<svg width="24" height="24" viewBox="0 0 24 24" xmlns="http://www.w3.org/2000/svg">
<path d="M9.67188 9.76562C9.47656 9.29688 8.73438 9.29688 8.53906 9.76562L6.35156 14.7656C6.19531 15.0781 6.35156 15.4688 6.66406 15.5859C6.97656 15.7422 7.36719 15.5859 7.48438 15.2734L7.875 14.375H10.3359L10.7266 15.2734C10.8047 15.5078 11.0391 15.625 11.3125 15.625C11.3906 15.625 11.4688 15.625 11.5469 15.5859C11.8594 15.4688 12.0156 15.0781 11.8594 14.7656L9.67188 9.76562ZM8.42188 13.125L9.125 11.5625L9.78906 13.125H8.42188ZM14.125 9.375C13.7734 9.375 13.5 9.6875 13.5 10V15C13.5 15.3516 13.7734 15.625 14.125 15.625C14.4375 15.625 14.75 15.3516 14.75 15V10C14.75 9.6875 14.4375 9.375 14.125 9.375ZM20.375 13.125C20.6875 13.125 21 12.8516 21 12.5C21 12.1875 20.6875 11.875 20.375 11.875H18.5V9.375H20.375C20.6875 9.375 21 9.10156 21 8.75C21 8.4375 20.6875 8.125 20.375 8.125H18.5V7.5C18.5 6.13281 17.3672 5 16 5H15.375V3.125C15.375 2.8125 15.0625 2.5 14.75 2.5C14.3984 2.5 14.125 2.8125 14.125 3.125V5H11.625V3.125C11.625 2.8125 11.3125 2.5 11 2.5C10.6484 2.5 10.375 2.8125 10.375 3.125V5H7.875V3.125C7.875 2.8125 7.5625 2.5 7.25 2.5C6.89844 2.5 6.625 2.8125 6.625 3.125V5H6C4.59375 5 3.5 6.13281 3.5 7.5V8.125H1.625C1.27344 8.125 1 8.4375 1 8.75C1 9.10156 1.27344 9.375 1.625 9.375H3.5V11.875H1.625C1.27344 11.875 1 12.1875 1 12.5C1 12.8516 1.27344 13.125 1.625 13.125H3.5V15.625H1.625C1.27344 15.625 1 15.9375 1 16.25C1 16.6016 1.27344 16.875 1.625 16.875H3.5V17.5C3.5 18.9062 4.59375 20 6 20H6.625V21.875C6.625 22.2266 6.89844 22.5 7.25 22.5C7.5625 22.5 7.875 22.2266 7.875 21.875V20H10.375V21.875C10.375 22.2266 10.6484 22.5 11 22.5C11.3125 22.5 11.625 22.2266 11.625 21.875V20H14.125V21.875C14.125 22.2266 14.3984 22.5 14.75 22.5C15.0625 22.5 15.375 22.2266 15.375 21.875V20H16C17.3672 20 18.5 18.9062 18.5 17.5V16.875H20.375C20.6875 16.875 21 16.6016 21 16.25C21 15.9375 20.6875 15.625 20.375 15.625H18.5V13.125H20.375ZM17.25 17.5C17.25 18.2031 16.6641 18.75 16 18.75H6C5.29688 18.75 4.75 18.2031 4.75 17.5V7.5C4.75 6.83594 5.29688 6.25 6 6.25H16C16.6641 6.25 17.25 6.83594 17.25 7.5V17.5Z" />
</svg>
