<svg width="13" height="12" viewBox="0 0 13 12" fill="none" xmlns="http://www.w3.org/2000/svg">
<path d="M7.46875 0.691406L12.2812 5.28516C12.418 5.42188 12.5 5.58594 12.5 5.77734C12.5 5.94141 12.418 6.10547 12.2812 6.24219L7.46875 10.8359C7.22266 11.082 6.78516 11.082 6.53906 10.8086C6.29297 10.5625 6.29297 10.125 6.56641 9.87891L10.2031 6.43359H0.90625C0.523438 6.43359 0.25 6.13281 0.25 5.77734C0.25 5.39453 0.523438 5.12109 0.90625 5.12109H10.2031L6.56641 1.64844C6.29297 1.40234 6.29297 0.964844 6.53906 0.71875C6.78516 0.445312 7.19531 0.445312 7.46875 0.691406Z" fill="#414BDC"/>
</svg>
