<svg width="24" height="24" viewBox="0 0 24 24" xmlns="http://www.w3.org/2000/svg">
<path d="M17.75 3.75C20.4844 3.75 22.75 6.01562 22.75 8.75V18.75C22.75 20.1562 21.6172 21.25 20.25 21.25H2.75C1.34375 21.25 0.25 20.1562 0.25 18.75V8.75C0.25 6.01562 2.47656 3.75 5.25 3.75H17.75ZM4 20V13.75H1.5V18.75C1.5 19.4531 2.04688 20 2.75 20H4ZM4 12.5V5.23438C2.51562 5.78125 1.5 7.14844 1.5 8.75V12.5H4ZM17.75 20V13.75H15.25V15.625C15.25 16.6797 14.3906 17.5 13.375 17.5H9.625C8.57031 17.5 7.75 16.6797 7.75 15.625V13.75H5.25V20H17.75ZM9 15.625C9 15.9766 9.27344 16.25 9.625 16.25H13.375C13.6875 16.25 14 15.9766 14 15.625V10.625C14 10.3125 13.6875 10 13.375 10H9.625C9.27344 10 9 10.3125 9 10.625V15.625ZM17.75 12.5V5H5.25V12.5H7.75V10.625C7.75 9.60938 8.57031 8.75 9.625 8.75H13.375C14.3906 8.75 15.25 9.60938 15.25 10.625V12.5H17.75ZM21.5 18.75V13.75H19V20H20.25C20.9141 20 21.5 19.4531 21.5 18.75ZM21.5 12.5V8.75C21.5 7.14844 20.4453 5.78125 19 5.23438V12.5H21.5ZM11.5 15C11.1484 15 10.875 14.7266 10.875 14.375V11.875C10.875 11.5625 11.1484 11.25 11.5 11.25C11.8125 11.25 12.125 11.5625 12.125 11.875V14.375C12.125 14.7266 11.8125 15 11.5 15Z" />
</svg>
