<svg width="24" height="24" viewBox="0 0 24 24" xmlns="http://www.w3.org/2000/svg">
<path d="M17.625 2.5C19.3438 2.5 20.75 3.90625 20.75 5.625C20.75 7.14844 19.6562 8.39844 18.25 8.71094V10C18.25 11.7578 16.8438 13.125 15.125 13.125H8.875C7.82031 13.125 7 13.9844 7 15V16.3281C8.40625 16.6406 9.5 17.8906 9.5 19.375C9.5 21.1328 8.09375 22.5 6.375 22.5C4.61719 22.5 3.25 21.1328 3.25 19.375C3.25 17.8906 4.30469 16.6016 5.75 16.3281V8.71094C4.30469 8.39844 3.25 7.14844 3.25 5.625C3.25 3.90625 4.61719 2.5 6.375 2.5C8.09375 2.5 9.5 3.90625 9.5 5.625C9.5 7.14844 8.40625 8.39844 7 8.71094V12.5391C7.50781 12.1484 8.13281 11.875 8.875 11.875H15.125C16.1406 11.875 17 11.0547 17 10V8.71094C15.5547 8.39844 14.5 7.14844 14.5 5.625C14.5 3.90625 15.8672 2.5 17.625 2.5ZM8.25 19.375C8.25 18.3594 7.39062 17.5 6.375 17.5C5.32031 17.5 4.5 18.3594 4.5 19.375C4.5 20.4297 5.32031 21.25 6.375 21.25C7.39062 21.25 8.25 20.4297 8.25 19.375ZM6.375 7.5C7.39062 7.5 8.25 6.67969 8.25 5.625C8.25 4.60938 7.39062 3.75 6.375 3.75C5.32031 3.75 4.5 4.60938 4.5 5.625C4.5 6.67969 5.32031 7.5 6.375 7.5ZM17.625 7.5C18.6406 7.5 19.5 6.67969 19.5 5.625C19.5 4.60938 18.6406 3.75 17.625 3.75C16.5703 3.75 15.75 4.60938 15.75 5.625C15.75 6.67969 16.5703 7.5 17.625 7.5Z" />
</svg>
