<svg width="25" height="24" viewBox="0 0 25 24" xmlns="http://www.w3.org/2000/svg">
<path d="M11.375 14.0625C11.375 14.6094 10.9453 15 10.4375 15H8.5625C8.01562 15 7.625 14.6094 7.625 14.0625V12.1875C7.625 11.6797 8.01562 11.25 8.5625 11.25H10.4375C10.9453 11.25 11.375 11.6797 11.375 12.1875V14.0625ZM10.125 13.75V12.5H8.875V13.75H10.125ZM8.5625 10C8.01562 10 7.625 9.60938 7.625 9.0625V7.1875C7.625 6.67969 8.01562 6.25 8.5625 6.25H10.4375C10.9453 6.25 11.375 6.67969 11.375 7.1875V9.0625C11.375 9.60938 10.9453 10 10.4375 10H8.5625ZM8.875 7.5V8.75H10.125V7.5H8.875ZM12 17.5C13.3672 17.5391 14.5 18.6328 14.5 20V21.875C14.5 22.1875 14.1875 22.5 13.875 22.5C13.5234 22.5 13.25 22.1875 13.25 21.875V20C13.25 19.2969 12.6641 18.75 12 18.75C11.2969 18.75 10.75 19.2969 10.75 20V21.875C10.75 22.2266 10.4375 22.5 10.125 22.5C9.77344 22.5 9.5 22.2266 9.5 21.875V20C9.5 18.6328 10.5938 17.5391 12 17.5ZM15.4375 6.25C15.9453 6.25 16.375 6.67969 16.375 7.1875V9.0625C16.375 9.60938 15.9453 10 15.4375 10H13.5625C13.0156 10 12.625 9.60938 12.625 9.0625V7.1875C12.625 6.67969 13.0156 6.25 13.5625 6.25H15.4375ZM15.125 8.75V7.5H13.875V8.75H15.125ZM17 2.5C18.3672 2.5 19.5 3.63281 19.5 5V21.875C19.5 22.2266 19.1875 22.5 18.875 22.5C18.5234 22.5 18.25 22.2266 18.25 21.875V5C18.25 4.33594 17.6641 3.75 17 3.75H7C6.29688 3.75 5.75 4.33594 5.75 5V21.875C5.75 22.2266 5.4375 22.5 5.125 22.5C4.77344 22.5 4.5 22.2266 4.5 21.875V5C4.5 3.63281 5.59375 2.5 7 2.5H17ZM15.4375 11.25C15.9453 11.25 16.375 11.6797 16.375 12.1875V14.0625C16.375 14.6094 15.9453 15 15.4375 15H13.5625C13.0156 15 12.625 14.6094 12.625 14.0625V12.1875C12.625 11.6797 13.0156 11.25 13.5625 11.25H15.4375ZM15.125 13.75V12.5H13.875V13.75H15.125Z" />
</svg>
