<svg viewBox="0 0 512 512" xmlns="http://www.w3.org/2000/svg">
  <path d=" M 154.15 48.90 C 155.21 40.20 164.72 34.23 173.08 36.14 C 179.85 37.28 185.56 43.23 185.86 50.18 C 186.05 56.20 185.85 62.23 185.93 68.25 C 232.70 68.25 279.48 68.25 326.26 68.25 C 326.37 61.94 326.05 55.61 326.40 49.31 C 327.23 40.51 336.65 34.33 345.11 36.08 C 351.87 37.14 357.81 43.03 358.19 49.99 C 358.39 56.20 358.19 62.43 358.25 68.64 C 374.67 69.69 391.04 73.16 406.04 80.04 C 420.54 86.76 433.79 96.63 443.36 109.53 C 458.38 128.89 463.98 153.92 463.96 178.04 C 464.05 235.03 463.97 292.03 464.00 349.03 C 464.20 368.11 464.15 387.63 458.03 405.93 C 452.45 423.34 441.93 439.26 427.58 450.68 C 411.09 464.38 390.20 471.99 369.06 474.45 C 358.76 475.68 348.39 476.39 338.01 476.25 C 281.68 476.25 225.34 476.24 169.01 476.26 C 146.35 475.83 123.00 473.12 102.67 462.39 C 82.99 452.30 66.61 435.53 57.84 415.14 C 49.99 397.58 47.79 378.09 47.99 359.02 C 48.00 301.33 47.99 243.63 47.99 185.94 C 47.92 173.08 48.36 160.09 51.36 147.52 C 56.56 123.71 70.84 101.80 91.34 88.41 C 109.72 75.89 131.91 70.03 153.93 68.65 C 154.06 62.07 153.61 55.46 154.15 48.90 M 185.92 99.00 C 185.85 105.94 186.07 112.88 185.84 119.81 C 185.44 127.79 177.86 134.15 170.02 133.95 C 162.20 134.24 154.58 128.03 154.04 120.07 C 153.72 113.20 154.02 106.31 153.92 99.44 C 134.82 100.78 115.46 107.00 101.22 120.22 C 93.08 128.09 87.18 138.17 84.01 149.02 C 80.14 161.45 79.86 174.59 80.00 187.49 C 197.33 187.49 314.67 187.49 432.00 187.49 C 432.03 181.30 432.00 175.11 431.61 168.93 C 430.49 151.67 424.67 134.13 412.36 121.60 C 398.15 107.35 377.98 100.84 358.27 99.43 C 358.17 106.30 358.41 113.17 358.17 120.04 C 357.60 128.06 349.85 134.33 341.96 133.95 C 334.23 134.04 326.81 127.71 326.34 119.87 C 326.12 112.92 326.34 105.96 326.26 99.00 C 279.48 99.00 232.70 99.00 185.92 99.00 M 80.00 218.20 C 80.00 266.47 79.99 314.74 80.01 363.01 C 79.98 378.29 82.27 393.96 89.50 407.60 C 96.97 422.07 110.28 433.18 125.52 438.72 C 146.05 446.54 168.39 445.50 189.96 445.50 C 242.29 445.48 294.62 445.54 346.95 445.47 C 366.30 445.44 386.47 441.90 402.66 430.71 C 416.15 421.53 425.32 406.86 429.06 391.09 C 432.25 378.67 432.04 365.75 432.00 353.02 C 432.00 308.08 432.00 263.14 432.00 218.20 C 314.67 218.21 197.34 218.21 80.00 218.20 Z" />
  <path d=" M 156.26 268.20 C 165.61 264.86 177.19 271.83 177.44 282.04 C 178.17 291.71 168.29 299.77 158.96 298.04 C 151.56 297.19 145.12 290.61 145.26 283.02 C 144.99 276.32 149.93 270.08 156.26 268.20 Z" />
  <path d=" M 251.23 268.18 C 259.83 265.24 270.41 270.75 272.03 279.90 C 274.30 289.42 265.40 298.75 255.93 298.23 C 248.14 298.24 240.65 292.06 240.17 284.11 C 239.39 277.02 244.49 270.12 251.23 268.18 Z" />
  <path d=" M 346.29 268.05 C 355.23 265.19 366.07 271.60 366.87 281.17 C 367.96 289.04 361.83 296.66 354.12 297.88 C 345.64 299.86 336.01 293.78 334.94 284.98 C 333.63 277.46 339.05 269.94 346.29 268.05 Z" />
  <path d=" M 156.50 347.73 C 164.89 345.03 175.07 350.12 177.02 358.92 C 179.51 367.79 172.12 377.16 163.13 377.68 C 154.49 378.97 145.38 371.93 145.27 363.03 C 144.79 356.08 149.95 349.62 156.50 347.73 Z" />
  <path d=" M 251.44 347.70 C 259.83 345.09 270.01 350.14 271.92 358.96 C 274.34 367.77 267.06 377.09 258.13 377.68 C 249.83 378.92 241.01 372.63 240.22 364.14 C 239.17 356.81 244.42 349.60 251.44 347.70 Z" />
  <path d=" M 345.66 347.82 C 354.43 344.80 365.42 350.37 366.74 359.86 C 368.52 368.37 361.54 376.84 353.10 377.65 C 345.54 378.80 337.34 374.09 335.36 366.54 C 332.90 358.80 338.00 350.07 345.66 347.82 Z" />
</svg>
