<svg viewBox="0 0 32 32" xmlns="http://www.w3.org/2000/svg">
  <path fill-rule="evenodd" clip-rule="evenodd" d="M 27.781 26.4 L 4.219 26.4 C 3.545 26.4 3 25.863 3 25.2 L 3 10.492 C 3 9.829 3.545 9.292 4.219 9.292 L 9.424 9.292 L 11.376 6.079 C 11.598 5.789 11.947 5.6 12.344 5.6 L 19.656 5.6 C 19.999 5.6 20.307 5.74 20.528 5.964 L 20.529 5.963 L 22.599 9.292 L 27.781 9.292 C 28.455 9.292 29 9.829 29 10.492 L 29 25.2 C 29 25.863 28.455 26.4 27.781 26.4 Z M 16 11.753 C 12.444 11.753 9.562 14.591 9.562 18.092 C 9.562 21.593 12.444 24.431 16 24.431 C 19.556 24.431 22.438 21.593 22.438 18.092 C 22.438 14.591 19.556 11.753 16 11.753 Z M 12.274 18.092 C 12.274 20.118 13.943 21.76 16 21.76 C 18.058 21.76 19.726 20.118 19.726 18.092 C 19.726 16.066 18.058 14.424 16 14.424 C 13.943 14.424 12.274 16.066 12.274 18.092 Z" transform="matrix(1, 0, 0, 1, 1.7763568394002505e-15, -1.7763568394002505e-15)"/>
</svg>
