<svg width="19" height="18" viewBox="0 0 19 18" fill="none" xmlns="http://www.w3.org/2000/svg">
<path d="M5.19727 4.09375L4.32227 7.03125C4.41602 7.03125 4.54102 7 4.66602 7H14.666C14.7598 7 14.8848 7.03125 14.9785 7.03125L14.1035 4.09375C13.916 3.4375 13.3223 3 12.666 3H6.63477C5.97852 3 5.38477 3.4375 5.19727 4.09375ZM3.97852 8.125C3.19727 8.40625 2.66602 9.15625 2.66602 10V13H16.666V10C16.666 9.15625 16.1035 8.40625 15.3223 8.125C15.1035 8.0625 14.8848 8 14.6348 8H4.66602C4.41602 8 4.19727 8.0625 3.97852 8.125ZM3.16602 7.40625V7.375L4.25977 3.78125C4.57227 2.75 5.54102 2 6.63477 2H12.666C13.7598 2 14.7285 2.75 15.0723 3.78125L16.1348 7.375V7.40625C17.041 7.9375 17.666 8.90625 17.666 10V13V13.5V14V15.5C17.666 15.7812 17.416 16 17.166 16C16.8848 16 16.666 15.7812 16.666 15.5V14H2.66602V15.5C2.66602 15.7812 2.41602 16 2.16602 16C1.88477 16 1.66602 15.7812 1.66602 15.5V14V13.5V13V10C1.66602 8.90625 2.25977 7.9375 3.16602 7.40625ZM4.91602 9.5C5.32227 9.5 5.66602 9.84375 5.66602 10.25C5.66602 10.6875 5.32227 11 4.91602 11C4.47852 11 4.16602 10.6875 4.16602 10.25C4.16602 9.84375 4.47852 9.5 4.91602 9.5ZM13.666 10.25C13.666 9.84375 13.9785 9.5 14.416 9.5C14.8223 9.5 15.166 9.84375 15.166 10.25C15.166 10.6875 14.8223 11 14.416 11C13.9785 11 13.666 10.6875 13.666 10.25Z" fill="#46464F"/>
</svg>
