<svg viewBox="0 0 24 24" xmlns="http://www.w3.org/2000/svg">
<path style="transform: translate(-12px, -12px)" d="M30.5 25.5C32.4375 25.5 34 27.0938 34 29.0625C33.9688 30.9375 32.4062 32.5 30.5312 32.5C28.5938 32.5312 27 30.9688 27 29.0312L25.5625 29L14.625 32.5C14.5938 32.5 14.5312 32.5 14.5 32.5C14.2812 32.5 14.0625 32.375 14 32.1562C13.9375 31.9062 14.0625 31.625 14.3438 31.5312L25.0312 28.1562V18.5C25.0312 17.4062 25.9062 16.5 27 16.5H33.5C33.75 16.5 34 16.75 34 17C34 17.2812 33.75 17.5 33.5 17.5H27C26.4375 17.5 26 17.9688 26 18.5V28H27.1562C27.5938 26.5625 28.9062 25.5 30.5 25.5ZM30.5 31.5C31.875 31.5 33 30.4062 33 29C33 27.625 31.875 26.5 30.5 26.5C29.125 26.5 28 27.625 28 29C28 30.4062 29.0938 31.5 30.5 31.5ZM15.4375 27.7812L14.125 22.9375C14 22.4062 14.3125 21.8438 14.8438 21.7188L20.625 20.1562C20.7188 20.125 20.8125 20.125 20.9062 20.125C21.3438 20.125 21.75 20.4375 21.8438 20.875L23.1562 25.6875C23.3125 26.2188 22.9688 26.7812 22.4375 26.9375L16.6562 28.4688C16.5625 28.5 16.4688 28.5 16.375 28.5C15.9062 28.5 15.5312 28.1875 15.4375 27.7812ZM18.375 21.8125L17.625 22L18 23.4062L18.7188 23.1875L18.375 21.8125ZM16.6562 22.25L15.0938 22.6875L16.4062 27.5L22.1875 25.9688L20.9062 21.125L19.3125 21.5312L19.8438 23.4375C19.9062 23.6875 19.75 23.9688 19.4688 24.0312L17.7812 24.5C17.75 24.5 17.6875 24.5 17.6562 24.5C17.5625 24.5 17.4688 24.4688 17.4062 24.4375C17.2812 24.375 17.1875 24.25 17.1562 24.125L16.6562 22.25Z" />
</svg>
