<svg width="25" height="24" viewBox="0 0 25 24" xmlns="http://www.w3.org/2000/svg">
<path d="M4.84375 3.75C4.25781 3.75 3.78906 4.14062 3.63281 4.6875L3.00781 6.875C3.04688 6.875 3.08594 6.875 3.125 6.875H11.875C11.875 6.875 11.9141 6.875 11.9531 6.875L11.3281 4.6875C11.1719 4.14062 10.7031 3.75 10.1172 3.75H4.84375ZM2.42188 4.33594C2.73438 3.24219 3.71094 2.5 4.84375 2.5H10.1172C11.25 2.5 12.2266 3.24219 12.5391 4.33594L13.3984 7.30469C13.7891 7.5 14.1016 7.8125 14.375 8.16406C13.9062 8.24219 13.4766 8.35938 13.0859 8.59375C12.7344 8.32031 12.3047 8.125 11.875 8.125H3.125C2.07031 8.125 1.25 8.98438 1.25 10V11.875V12.5H10.7422L10.5078 13.3594C10.3516 13.4766 10.1953 13.6328 10.0391 13.75H1.25V15C1.25 15.3516 0.9375 15.625 0.625 15.625C0.273438 15.625 0 15.3516 0 15V13.75V12.5V11.875V10C0 8.82812 0.625 7.8125 1.60156 7.30469L2.42188 4.33594ZM3.125 11.25C2.57812 11.25 2.1875 10.8594 2.1875 10.3125C2.1875 9.80469 2.57812 9.375 3.125 9.375C3.63281 9.375 4.0625 9.80469 4.0625 10.3125C4.0625 10.8594 3.63281 11.25 3.125 11.25ZM14.8438 10.625C14.2578 10.625 13.7891 11.0156 13.6328 11.5625L13.0078 13.75C13.0469 13.75 13.0859 13.75 13.125 13.75H21.875C21.875 13.75 21.9141 13.75 21.9531 13.75L21.3281 11.5625C21.1719 11.0156 20.7031 10.625 20.1172 10.625H14.8438ZM12.4219 11.2109C12.7344 10.1172 13.7109 9.375 14.8438 9.375H20.1172C21.25 9.375 22.2266 10.1172 22.5391 11.2109L23.3984 14.1797C24.3359 14.6875 25 15.7031 25 16.875V18.75V19.375V20.625V21.875C25 22.2266 24.6875 22.5 24.375 22.5C24.0234 22.5 23.75 22.2266 23.75 21.875V20.625H11.25V21.875C11.25 22.2266 10.9375 22.5 10.625 22.5C10.2734 22.5 10 22.2266 10 21.875V20.625V19.375V18.75V16.875C10 15.7031 10.625 14.6875 11.6016 14.1797L12.4219 11.2109ZM23.75 18.75V16.875C23.75 15.8594 22.8906 15 21.875 15H13.125C12.0703 15 11.25 15.8594 11.25 16.875V18.75V19.375H23.75V18.75ZM13.125 18.125C12.5781 18.125 12.1875 17.7344 12.1875 17.1875C12.1875 16.6797 12.5781 16.25 13.125 16.25C13.6328 16.25 14.0625 16.6797 14.0625 17.1875C14.0625 17.7344 13.6328 18.125 13.125 18.125ZM22.8125 17.1875C22.8125 17.7344 22.3828 18.125 21.875 18.125C21.3281 18.125 20.9375 17.7344 20.9375 17.1875C20.9375 16.6797 21.3281 16.25 21.875 16.25C22.3828 16.25 22.8125 16.6797 22.8125 17.1875Z" />
</svg>
