<svg width="25" height="24" viewBox="0 0 25 24" xmlns="http://www.w3.org/2000/svg">
<path d="M4.80469 5.42969L4.10156 7.5H12.1094L11.4062 5.42969C11.3281 5.19531 11.0938 5 10.8203 5H5.39062C5.11719 5 4.88281 5.19531 4.80469 5.42969ZM1.40625 7.77344L2.42188 4.64844C2.85156 3.35938 4.0625 2.5 5.39062 2.5H10.8203C12.1484 2.5 13.3594 3.35938 13.7891 4.64844L14.7266 7.5H14.1406C12.2656 7.5 10.5859 8.71094 10 10.5078L9.10156 13.1641C8.86719 13.3594 8.63281 13.5547 8.4375 13.75H3.125V15C3.125 15.7031 2.53906 16.25 1.875 16.25H1.25C0.546875 16.25 0 15.7031 0 15V13.75V10C0 9.02344 0.546875 8.16406 1.40625 7.77344ZM2.1875 10.625C2.1875 11.1719 2.57812 11.5625 3.125 11.5625C3.63281 11.5625 4.0625 11.1719 4.0625 10.625C4.0625 10.1172 3.63281 9.6875 3.125 9.6875C2.57812 9.6875 2.1875 10.1172 2.1875 10.625ZM14.1406 11.25C13.8672 11.25 13.6328 11.4453 13.5547 11.6797L12.8516 13.75H20.8594L20.1562 11.6797C20.0781 11.4453 19.8438 11.25 19.5703 11.25H14.1406ZM11.1719 10.8984C11.6016 9.60938 12.8125 8.75 14.1406 8.75H19.5703C20.8984 8.75 22.1094 9.60938 22.5391 10.8984L23.5547 14.0234C24.4141 14.4141 25 15.2734 25 16.25V20V21.25C25 21.9531 24.4141 22.5 23.75 22.5H23.125C22.4219 22.5 21.875 21.9531 21.875 21.25V20H11.875V21.25C11.875 21.9531 11.2891 22.5 10.625 22.5H10C9.29688 22.5 8.75 21.9531 8.75 21.25V20V16.25C8.75 15.2734 9.29688 14.4141 10.1562 14.0234L11.1719 10.8984ZM11.875 15.9375C11.3281 15.9375 10.9375 16.3672 10.9375 16.875C10.9375 17.4219 11.3281 17.8125 11.875 17.8125C12.3828 17.8125 12.8125 17.4219 12.8125 16.875C12.8125 16.3672 12.3828 15.9375 11.875 15.9375ZM20.9375 16.875C20.9375 17.4219 21.3281 17.8125 21.875 17.8125C22.3828 17.8125 22.8125 17.4219 22.8125 16.875C22.8125 16.3672 22.3828 15.9375 21.875 15.9375C21.3281 15.9375 20.9375 16.3672 20.9375 16.875Z" />
</svg>
