<svg viewBox="0 0 24 24" xmlns="http://www.w3.org/2000/svg">
<path style="transform: translate(2px, 3px)" d="M6.5 12C6.75 12 7 12.25 7 12.5C7 12.7812 6.75 13 6.5 13H5.5C5.21875 13 5 12.7812 5 12.5C5 12.25 5.21875 12 5.5 12H6.5ZM11.5 12C11.75 12 12 12.25 12 12.5C12 12.7812 11.75 13 11.5 13H8.5C8.21875 13 8 12.7812 8 12.5C8 12.25 8.21875 12 8.5 12H11.5ZM9 10.5C9 10.7812 8.75 11 8.5 11H4.5C4.21875 11 4 10.7812 4 10.5C4 10.25 4.21875 10 4.5 10H8.5C8.75 10 9 10.25 9 10.5ZM14.5 12C14.75 12 15 12.25 15 12.5C15 12.7812 14.75 13 14.5 13H13.5C13.2188 13 13 12.7812 13 12.5C13 12.25 13.2188 12 13.5 12H14.5ZM15.5 10C15.75 10 16 10.25 16 10.5C16 10.75 15.75 11 15.5 11H10.5C10.2188 11 10 10.75 10 10.5C10 10.2188 10.2188 10 10.5 10H15.5ZM16.9688 7.71875C18.7188 8.25 20 9.84375 20 11.75C20 14.125 18.0938 16 15.75 16H4.5C2 16 0 14 0 11.5C0 9.5625 1.25 7.90625 3 7.28125C2.96875 4.375 5.3125 2 8.25 2C9.96875 2 11.5 2.875 12.4688 4.1875C12.7812 4.09375 13.125 4 13.5 4C15.4062 4 17 5.59375 17 7.5C17 7.59375 16.9688 7.65625 16.9688 7.71875ZM15.75 14.5C17.25 14.5 18.5 13.2812 18.5 11.75C18.5 10.5625 17.6875 9.5 16.5312 9.15625L15.4062 8.8125L15.4688 7.625C15.5312 6.40625 14.4375 5.15625 12.9062 5.625L11.875 5.9375L11.25 5.0625C10.5312 4.09375 9.4375 3.5 8.25 3.5C6.1875 3.5 4.53125 5.15625 4.5 7.1875C4.5 7.3125 4.5 7.125 4.5 8.34375L3.5 8.71875C2.28125 9.125 1.5 10.25 1.5 11.5C1.5 13.1562 2.84375 14.5 4.5 14.5H15.75Z" />
</svg>
