<svg width="24" height="24" viewBox="0 0 24 24" xmlns="http://www.w3.org/2000/svg">
<path style="transform: translate(5px, 3px)" d="M10.1667 9.66602C11.5417 9.66602 12.6667 10.791 12.6667 12.2285V14.1973C12.6667 15.5723 11.5417 16.666 10.1667 16.666H9.16667C7.76042 16.666 6.66667 15.5723 6.66667 14.166V12.166C6.66667 10.791 7.76042 9.66602 9.16667 9.66602H10.1667ZM11.6667 14.166V12.2285C11.6667 11.4473 10.9792 10.7598 10.1667 10.7598H9.16667C8.32292 10.7598 7.66667 11.416 7.66667 12.2285V14.1973C7.66667 15.0098 8.32292 15.666 9.16667 15.666H10.1667C10.9792 15.666 11.6667 15.0098 11.6667 14.166ZM5.16667 15.666C5.41667 15.666 5.66667 15.916 5.66667 16.166C5.66667 16.4473 5.41667 16.666 5.16667 16.666H1.16667C0.885422 16.666 0.666672 16.4473 0.666672 16.166C0.666672 15.916 0.885422 15.666 1.16667 15.666H2.66667V10.8848L1.82292 11.166C1.54167 11.2285 1.26042 11.1035 1.16667 10.8535C1.10417 10.5723 1.22917 10.291 1.47917 10.1973L2.97917 9.69727C3.13542 9.66602 3.32292 9.69727 3.44792 9.79102C3.57292 9.88477 3.66667 10.0098 3.66667 10.166V15.666H5.16667ZM8.16667 7.66602C7.88542 7.66602 7.66667 7.44727 7.66667 7.19727C7.66667 6.91602 7.88542 6.69727 8.16667 6.69727H9.66667V1.88477L8.82292 2.16602C8.54167 2.22852 8.26042 2.10352 8.16667 1.85352C8.10417 1.57227 8.22917 1.29102 8.47917 1.19727L9.97917 0.697266C10.1354 0.666016 10.3229 0.697266 10.4479 0.791016C10.5729 0.884766 10.6667 1.00977 10.6667 1.19727V6.66602H12.1667C12.4167 6.66602 12.6667 6.91602 12.6667 7.16602C12.6667 7.44727 12.4167 7.66602 12.1667 7.66602H8.16667ZM6.66667 3.19727V5.16602C6.66667 6.54102 5.54167 7.66602 4.16667 7.66602H3.16667C1.76042 7.66602 0.666672 6.54102 0.666672 5.16602V3.19727C0.666672 1.79102 1.76042 0.697266 3.16667 0.697266H4.16667C5.54167 0.697266 6.66667 1.79102 6.66667 3.19727ZM5.66667 5.16602V3.19727C5.66667 2.41602 4.97917 1.72852 4.16667 1.72852H3.16667C2.32292 1.72852 1.66667 2.38477 1.66667 3.19727V5.16602C1.66667 5.97852 2.32292 6.66602 3.16667 6.66602H4.16667C4.97917 6.66602 5.66667 6.00977 5.66667 5.16602Z" />
</svg>
