<svg viewBox="0 0 24 25" xmlns="http://www.w3.org/2000/svg">
<path style="transform: translate(4px, 4px)" d="M15.5001 15.666C15.7501 15.666 16.0001 15.916 16.0001 16.166C16.0001 16.4473 15.7501 16.666 15.5001 16.666H9.00006C8.71881 16.666 8.50006 16.4473 8.50006 16.166V13.666H7.50006V16.166C7.50006 16.4473 7.25006 16.666 7.00006 16.666H0.500061C0.218811 16.666 6.10352e-05 16.4473 6.10352e-05 16.166C6.10352e-05 15.916 0.218811 15.666 0.500061 15.666H1.00006V1.66602H0.500061C0.218811 1.66602 6.10352e-05 1.44727 6.10352e-05 1.16602C6.10352e-05 0.916016 0.218811 0.666016 0.500061 0.666016H15.5001C15.7501 0.666016 16.0001 0.916016 16.0001 1.16602C16.0001 1.44727 15.7501 1.66602 15.5001 1.66602H15.0001V15.666H15.5001ZM14.0001 15.666V1.66602H2.00006V15.666H6.50006V13.6973C6.50006 13.1348 6.93756 12.666 7.50006 12.666H8.50006C9.03131 12.666 9.50006 13.1348 9.50006 13.6973V15.666H14.0001ZM10.0001 5.66602C9.43756 5.66602 9.00006 5.22852 9.00006 4.66602V3.66602C9.00006 3.13477 9.43756 2.66602 10.0001 2.66602H11.0001C11.5313 2.66602 12.0001 3.13477 12.0001 3.66602V4.66602C12.0001 5.22852 11.5313 5.66602 11.0001 5.66602H10.0001ZM10.0001 3.66602V4.66602H11.0001V3.66602H10.0001ZM5.00006 9.66602C4.43756 9.66602 4.00006 9.22852 4.00006 8.66602V7.66602C4.00006 7.13477 4.43756 6.66602 5.00006 6.66602H6.00006C6.53131 6.66602 7.00006 7.13477 7.00006 7.66602V8.66602C7.00006 9.22852 6.53131 9.66602 6.00006 9.66602H5.00006ZM5.00006 7.66602V8.66602H6.00006V7.66602H5.00006ZM10.0001 9.66602C9.43756 9.66602 9.00006 9.22852 9.00006 8.66602V7.66602C9.00006 7.13477 9.43756 6.66602 10.0001 6.66602H11.0001C11.5313 6.66602 12.0001 7.13477 12.0001 7.66602V8.66602C12.0001 9.22852 11.5313 9.66602 11.0001 9.66602H10.0001ZM10.0001 7.66602V8.66602H11.0001V7.66602H10.0001ZM5.00006 5.66602C4.43756 5.66602 4.00006 5.22852 4.00006 4.66602V3.66602C4.00006 3.13477 4.43756 2.66602 5.00006 2.66602H6.00006C6.53131 2.66602 7.00006 3.13477 7.00006 3.66602V4.66602C7.00006 5.22852 6.53131 5.66602 6.00006 5.66602H5.00006ZM5.00006 3.66602V4.66602H6.00006V3.66602H5.00006ZM5.06256 12.4473C5.65631 11.3535 6.78131 10.666 8.00006 10.666C9.18756 10.666 10.3126 11.3535 10.9063 12.4473C11.0626 12.666 10.9688 12.9785 10.7188 13.1035C10.6563 13.166 10.5626 13.166 10.5001 13.166C10.3126 13.166 10.1251 13.0723 10.0626 12.916C9.62506 12.166 8.84381 11.666 8.00006 11.666C7.12506 11.666 6.34381 12.166 5.90631 12.916C5.78131 13.166 5.46881 13.2598 5.25006 13.1035C5.00006 12.9785 4.90631 12.666 5.06256 12.4473Z" />
</svg>
