<svg width="27" height="24" viewBox="0 0 27 24" xmlns="http://www.w3.org/2000/svg">
<path d="M25.8047 8.94531C22.6797 5.66406 18.1875 3.75 13.5 3.75C8.77344 3.75 4.28125 5.66406 1.15625 8.94531C0.921875 9.21875 0.921875 9.60938 1.19531 9.84375C1.42969 10.0781 1.82031 10.0781 2.05469 9.80469C4.94531 6.75781 9.125 5 13.5 5C17.8359 5 22.0156 6.75781 24.9062 9.80469C25.0234 9.96094 25.1797 10 25.375 10C25.4922 10 25.6484 9.96094 25.8047 9.84375C26.0391 9.60938 26.0391 9.21875 25.8047 8.94531ZM13.5 10C10.4531 10 7.64062 11.1719 5.53125 13.2812C5.29688 13.5938 5.29688 13.9844 5.53125 14.2188C5.80469 14.4531 6.19531 14.4531 6.42969 14.2188C8.26562 12.3047 10.7656 11.25 13.5 11.25C16.1953 11.25 18.6953 12.3047 20.5312 14.2188C20.6484 14.3359 20.8047 14.375 21 14.375C21.1562 14.375 21.3125 14.3359 21.4297 14.2188C21.6641 13.9844 21.6641 13.5938 21.4297 13.3203C19.3594 11.2109 16.5078 10 13.5 10ZM13.4609 16.25C12.0547 16.25 10.9609 17.3438 10.9609 18.75C10.9609 20.1172 12.0547 21.25 13.4609 21.25C14.8281 21.25 15.9609 20.1172 15.9609 18.75C15.9609 17.3438 14.8672 16.25 13.4609 16.25ZM13.5 20C12.7969 20 12.25 19.4531 12.25 18.75C12.25 18.0859 12.7969 17.5 13.5 17.5C14.1641 17.5 14.75 18.0859 14.75 18.75C14.75 19.4531 14.1641 20 13.5 20Z" />
</svg>
