<svg width="24" height="24" viewBox="0 0 24 24" fill="none" xmlns="http://www.w3.org/2000/svg">
<path d="M12 3.75C8.83594 3.75 5.98438 5.42969 4.42188 8.125C2.82031 10.8594 2.82031 14.1797 4.42188 16.875C5.98438 19.6094 8.83594 21.25 12 21.25C15.125 21.25 17.9766 19.6094 19.5391 16.875C21.1406 14.1797 21.1406 10.8594 19.5391 8.125C17.9766 5.42969 15.125 3.75 12 3.75ZM12 22.5C8.40625 22.5 5.125 20.625 3.32812 17.5C1.53125 14.4141 1.53125 10.625 3.32812 7.5C5.125 4.41406 8.40625 2.5 12 2.5C15.5547 2.5 18.8359 4.41406 20.6328 7.5C22.4297 10.625 22.4297 14.4141 20.6328 17.5C18.8359 20.625 15.5547 22.5 12 22.5ZM12 15C11.2969 15 10.75 15.5859 10.75 16.25C10.75 16.9531 11.2969 17.5 12 17.5C12.6641 17.5 13.25 16.9531 13.25 16.25C13.25 15.5859 12.6641 15 12 15ZM12 18.75C10.5938 18.75 9.5 17.6562 9.5 16.25C9.5 15.1172 10.2812 14.1406 11.375 13.8281V6.25C11.375 5.9375 11.6484 5.625 12 5.625C12.3125 5.625 12.625 5.9375 12.625 6.25V13.8281C13.6797 14.1406 14.5 15.1172 14.5 16.25C14.5 17.6562 13.3672 18.75 12 18.75ZM7.625 9.0625C7.07812 9.0625 6.6875 8.67188 6.6875 8.125C6.6875 7.61719 7.07812 7.1875 7.625 7.1875C8.13281 7.1875 8.5625 7.61719 8.5625 8.125C8.5625 8.67188 8.13281 9.0625 7.625 9.0625ZM6.6875 12.5C6.6875 13.0469 6.25781 13.4375 5.75 13.4375C5.20312 13.4375 4.8125 13.0469 4.8125 12.5C4.8125 11.9922 5.20312 11.5625 5.75 11.5625C6.25781 11.5625 6.6875 11.9922 6.6875 12.5ZM18.25 13.4375C17.7031 13.4375 17.3125 13.0469 17.3125 12.5C17.3125 11.9922 17.7031 11.5625 18.25 11.5625C18.7578 11.5625 19.1875 11.9922 19.1875 12.5C19.1875 13.0469 18.7578 13.4375 18.25 13.4375ZM17.3125 8.125C17.3125 8.67188 16.8828 9.0625 16.375 9.0625C15.8281 9.0625 15.4375 8.67188 15.4375 8.125C15.4375 7.61719 15.8281 7.1875 16.375 7.1875C16.8828 7.1875 17.3125 7.61719 17.3125 8.125Z" fill="currentColor"/>
</svg>
