<svg width="24" height="24" viewBox="0 0 24 24" fill="none" xmlns="http://www.w3.org/2000/svg">
<path d="M2 12.5C2 8.94531 3.875 5.66406 7 3.86719C10.0859 2.07031 13.875 2.07031 17 3.86719C20.0859 5.66406 22 8.94531 22 12.5C22 16.0938 20.0859 19.375 17 21.1719C13.875 22.9688 10.0859 22.9688 7 21.1719C3.875 19.375 2 16.0938 2 12.5ZM14.5 16.25C14.5 15.2344 13.8359 14.3359 12.9375 13.9453V5.9375C12.9375 5.42969 12.5078 5 12 5C11.4531 5 11.0625 5.42969 11.0625 5.9375V13.9453C10.125 14.3359 9.5 15.2344 9.5 16.25C9.5 17.6562 10.5938 18.75 12 18.75C13.3672 18.75 14.5 17.6562 14.5 16.25ZM7.625 9.375C8.28906 9.375 8.875 8.82812 8.875 8.125C8.875 7.46094 8.28906 6.875 7.625 6.875C6.92188 6.875 6.375 7.46094 6.375 8.125C6.375 8.82812 6.92188 9.375 7.625 9.375ZM7 12.5C7 11.8359 6.41406 11.25 5.75 11.25C5.04688 11.25 4.5 11.8359 4.5 12.5C4.5 13.2031 5.04688 13.75 5.75 13.75C6.41406 13.75 7 13.2031 7 12.5ZM18.25 13.75C18.9141 13.75 19.5 13.2031 19.5 12.5C19.5 11.8359 18.9141 11.25 18.25 11.25C17.5469 11.25 17 11.8359 17 12.5C17 13.2031 17.5469 13.75 18.25 13.75ZM17.625 8.125C17.625 7.46094 17.0391 6.875 16.375 6.875C15.6719 6.875 15.125 7.46094 15.125 8.125C15.125 8.82812 15.6719 9.375 16.375 9.375C17.0391 9.375 17.625 8.82812 17.625 8.125Z" fill="currentColor"/>
</svg>
