<svg width="24" height="24" viewBox="0 0 24 24" xmlns="http://www.w3.org/2000/svg">
<path d="M20.75 5.39062V7.14844C20.75 8.75 16.8047 10 12 10C7.15625 10 3.25 8.75 3.25 7.14844V5.39062C3.25 3.78906 7.15625 2.5 12 2.5C16.8047 2.5 20.75 3.78906 20.75 5.39062ZM20.75 9.375V13.3984C20.75 15 16.8047 16.25 12 16.25C7.15625 16.25 3.25 15 3.25 13.3984V9.375C5.125 10.7031 8.5625 11.2891 12 11.2891C15.3984 11.2891 18.8359 10.7031 20.75 9.375ZM20.75 15.625V19.6484C20.75 21.25 16.8047 22.5 12 22.5C7.15625 22.5 3.25 21.25 3.25 19.6484V15.625C5.125 16.9531 8.5625 17.5391 12 17.5391C15.3984 17.5391 18.8359 16.9531 20.75 15.625Z" />
</svg>
