<svg width="24" height="24" viewBox="0 0 24 24" xmlns="http://www.w3.org/2000/svg">
<path d="M12 2.5C16.8047 2.5 20.75 3.90625 20.75 5.625V19.375C20.75 21.1328 16.8047 22.5 12 22.5C7.15625 22.5 3.25 21.1328 3.25 19.375V5.625C3.25 3.90625 7.15625 2.5 12 2.5ZM12 3.75C7.15625 3.75 4.61719 5.15625 4.46094 5.66406V8.78906C6.49219 9.57031 9.14844 10 12 10C14.8125 10 17.4688 9.57031 19.5 8.78906V5.625C19.3438 5.15625 16.8047 3.75 12 3.75ZM19.5 10.0781C17.3906 10.8203 14.7734 11.25 11.9609 11.25C9.1875 11.25 6.57031 10.8203 4.46094 10.0781L4.5 15.0391C6.49219 15.8203 9.14844 16.25 12 16.25C14.8125 16.25 17.4688 15.8203 19.5 15.0391V10.0781ZM12 21.25C16.8047 21.25 19.3438 19.8828 19.4609 19.375V16.3281C17.3516 17.0703 14.7344 17.5 11.9609 17.5C9.1875 17.5 6.57031 17.0703 4.46094 16.3281L4.5 19.375C4.61719 19.8828 7.19531 21.25 12 21.25Z" />
</svg>
