<svg width="18" height="20" viewBox="0 0 18 20" fill="none" xmlns="http://www.w3.org/2000/svg">
<path d="M7.16406 1.25C6.96875 1.25 6.77344 1.36719 6.65625 1.5625L6.03125 2.5H11.9297L11.3047 1.5625C11.1875 1.36719 10.9922 1.25 10.7969 1.25H7.16406ZM13.375 2.5H15.2109H16.5H17.125C17.4375 2.5 17.75 2.8125 17.75 3.125C17.75 3.47656 17.4375 3.75 17.125 3.75H16.3828L15.4062 17.6953C15.2891 19.0234 14.2344 20 12.9062 20H5.05469C3.76562 20 2.67188 19.0234 2.55469 17.6953L1.57812 3.75H0.875C0.523438 3.75 0.25 3.47656 0.25 3.125C0.25 2.8125 0.523438 2.5 0.875 2.5H1.5H2.75H4.58594L5.60156 0.898438C5.91406 0.351562 6.53906 0 7.16406 0H10.7969C11.4219 0 12.0469 0.351562 12.3984 0.898438L13.375 2.5ZM15.1328 3.75H2.82812L3.80469 17.6172C3.84375 18.2422 4.39062 18.75 5.05469 18.75H12.9062C13.5703 18.75 14.1172 18.2422 14.1562 17.6172L15.1328 3.75Z" fill="#414BDC"/>
</svg>
