<svg width="22" height="21" viewBox="0 0 22 21" xmlns="http://www.w3.org/2000/svg">
<path d="M16.4297 2.0625L14.3203 4.21094L17.2891 7.17969L19.4375 5.07031C19.7891 4.67969 19.7891 4.09375 19.4375 3.74219L17.7578 2.0625C17.4062 1.71094 16.8203 1.71094 16.4297 2.0625ZM13.4219 5.07031L4.24219 14.2891C3.92969 14.5625 3.69531 14.9531 3.57812 15.3438L2.52344 18.9766L6.15625 17.8828C6.54688 17.7656 6.9375 17.5703 7.21094 17.2578L16.4297 8.07812L13.4219 5.07031ZM18.6562 1.16406L20.3359 2.84375C21.1562 3.70312 21.1562 5.07031 20.3359 5.92969L8.10938 18.1562C7.64062 18.5859 7.09375 18.9375 6.50781 19.0938L1.78125 20.5C1.54688 20.5391 1.3125 20.5 1.15625 20.3438C1 20.1875 0.960938 19.9531 1 19.7188L2.40625 14.9922C2.5625 14.4062 2.91406 13.8594 3.34375 13.3906L15.5703 1.16406C16.4297 0.34375 17.7969 0.34375 18.6562 1.16406Z" />
</svg>
