<svg viewBox="0 0 24 24" xmlns="http://www.w3.org/2000/svg">
<path style="transform: translate(4px, 4px)" d="M15.4688 1.5625C16.1562 2.25 16.1562 3.34375 15.4375 4.03125L8.65625 10.8125C8.4375 11.0312 8.15625 11.1875 7.84375 11.2812C6.78125 11.5312 4.46875 12 4.46875 12C4.4375 12 4.4375 12 4.40625 12C4.15625 12 3.9375 11.7812 4 11.5L4.75 8.125C4.8125 7.8125 4.96875 7.5 5.21875 7.28125L11.9688 0.53125C12.3125 0.1875 12.75 0 13.2188 0C13.6562 0 14.0938 0.1875 14.4375 0.53125L15.4688 1.5625ZM14.4062 2.96875C14.5 2.875 14.5 2.71875 14.4062 2.625L13.375 1.59375C13.3125 1.53125 13.25 1.5 13.2188 1.5C13.1562 1.5 13.0938 1.53125 13.0312 1.59375L6.28125 8.34375C6.25 8.375 6.21875 8.40625 6.21875 8.46875L5.8125 10.1875C6.4375 10.0625 7.09375 9.90625 7.53125 9.8125C7.5625 9.8125 7.59375 9.78125 7.625 9.75L14.4062 2.96875ZM13.25 9C13.6562 9 14 9.34375 14 9.75L13.9062 13.75C13.9062 15 12.9062 16 11.6875 16H2.21875C1 16 0 15 0 13.75V4.25C0 3.03125 1 2 2.21875 2H6.75C7.15625 2 7.5 2.34375 7.5 2.75C7.5 3.1875 7.15625 3.5 6.75 3.5H2.25C1.8125 3.5 1.5 3.84375 1.5 4.25V13.75C1.5 14.1875 1.8125 14.5 2.25 14.5H11.75C12.1562 14.5 12.5 14.1875 12.5 13.75V9.75C12.5 9.34375 12.8125 9 13.25 9Z" />
</svg>
