<svg width="18" height="21" viewBox="0 0 18 21" xmlns="http://www.w3.org/2000/svg">
<path d="M15.2578 5.42188C15.7266 5.89062 16 6.51562 16 7.17969V18C16 19.4062 14.8672 20.5 13.5 20.5H3.5C2.09375 20.5 1 19.4062 1 18V3C1 1.63281 2.09375 0.5 3.5 0.5H9.32031C9.98438 0.5 10.6094 0.773438 11.0781 1.24219L15.2578 5.42188ZM9.75 1.86719V6.125C9.75 6.47656 10.0234 6.75 10.375 6.75H14.6328C14.5938 6.59375 14.5156 6.4375 14.3594 6.28125L10.2188 2.14062C10.0625 1.98438 9.90625 1.90625 9.75 1.86719ZM14.75 18V8H10.375C9.32031 8 8.5 7.17969 8.5 6.125V1.75H3.5C2.79688 1.75 2.25 2.33594 2.25 3V18C2.25 18.7031 2.79688 19.25 3.5 19.25H13.5C14.1641 19.25 14.75 18.7031 14.75 18ZM8.5 12.5703L10.1406 10.1484C10.3359 9.875 10.7266 9.79688 11.0391 9.99219C11.3125 10.1875 11.3906 10.5781 11.1953 10.8906L9.24219 13.625L11.1953 16.3984C11.3906 16.7109 11.3125 17.1016 11.0391 17.2969C10.9219 17.375 10.8047 17.375 10.6875 17.375C10.4531 17.375 10.2578 17.2969 10.1406 17.1406L8.5 14.7188L6.78125 17.1406C6.66406 17.2969 6.46875 17.375 6.27344 17.375C6.15625 17.375 6.03906 17.375 5.92188 17.2969C5.64844 17.1016 5.57031 16.7109 5.76562 16.3984L7.71875 13.625L5.76562 10.8906C5.57031 10.5781 5.64844 10.1875 5.92188 9.99219C6.23438 9.79688 6.625 9.875 6.82031 10.1484L8.5 12.5703Z" />
</svg>
