<svg width="25" height="24" viewBox="0 0 25 24" xmlns="http://www.w3.org/2000/svg">
<path d="M21.875 12.5C22.1875 12.5 22.5 12.8125 22.5 13.125L22.3828 20.0391C22.3828 21.4062 21.2891 22.5 19.9219 22.5H2.46094C1.09375 22.5 0 21.4062 0 20V10C0 8.63281 1.09375 7.5 2.46094 7.5H11.875C12.1875 7.5 12.5 7.8125 12.5 8.125C12.5 8.47656 12.1875 8.75 11.875 8.75H2.5C1.79688 8.75 1.25 9.33594 1.25 10V20C1.25 20.7031 1.79688 21.25 2.5 21.25H20C20.6641 21.25 21.25 20.7031 21.25 20V13.125C21.25 12.8125 21.5234 12.5 21.875 12.5ZM25 5.50781C25 5.97656 24.8047 6.44531 24.4141 6.83594L16.2891 14.9219C15.9375 15.2734 15.5078 15.5078 15 15.625L11.7578 16.25C11.7188 16.25 11.6797 16.25 11.6797 16.25C11.4453 16.25 11.25 16.0547 11.25 15.8203C11.25 15.7812 11.25 15.7422 11.25 15.7031L11.875 12.4609C11.9922 11.9531 12.2266 11.5234 12.5781 11.1719L20.6641 3.08594C21.0547 2.69531 21.5234 2.5 21.9922 2.5C22.5 2.5 22.9688 2.69531 23.3203 3.08594L24.4141 4.17969C24.8047 4.53125 25 5 25 5.50781ZM15.4297 14.0234L21.1719 8.32031L19.1797 6.32812L13.4766 12.0703C13.2812 12.2266 13.1641 12.4609 13.125 12.6953L12.6953 14.8047L14.8047 14.3359C15.0391 14.2969 15.2734 14.1797 15.4297 14.0234ZM23.5547 5.9375C23.7109 5.78125 23.75 5.58594 23.75 5.50781C23.75 5.39062 23.7109 5.19531 23.5547 5.03906L22.4609 3.94531C22.3047 3.78906 22.1094 3.75 21.9922 3.75C21.9141 3.75 21.7188 3.78906 21.5625 3.94531L20.0391 5.46875L22.0312 7.46094L23.5547 5.9375ZM4.0625 15C4.0625 14.4922 4.45312 14.0625 5 14.0625C5.50781 14.0625 5.9375 14.4922 5.9375 15C5.9375 15.5469 5.50781 15.9375 5 15.9375C4.45312 15.9375 4.0625 15.5469 4.0625 15ZM7.8125 15C7.8125 14.4922 8.20312 14.0625 8.75 14.0625C9.25781 14.0625 9.6875 14.4922 9.6875 15C9.6875 15.5469 9.25781 15.9375 8.75 15.9375C8.20312 15.9375 7.8125 15.5469 7.8125 15Z" />
</svg>
