<svg width="25" height="24" viewBox="0 0 25 24" fill="none" xmlns="http://www.w3.org/2000/svg">
<g clip-path="url(#clip0_56095_117965)">
<rect x="0.5" width="24" height="24" rx="6" fill="#191A2C"/>
<path d="M18.5 6C19.5938 6 20.5 6.90625 20.5 8V18C20.5 19.125 19.5938 20 18.5 20H6.5C5.375 20 4.5 19.125 4.5 18V8C4.5 6.90625 5.375 6 6.5 6H8.5C9.40625 4.8125 10.8438 4 12.5 4C14.125 4 15.5312 4.8125 16.4688 6H18.5ZM12.5 5C10.2812 5 8.5 6.8125 8.5 9C8.5 11.2188 10.2812 13 12.5 13C14.6875 13 16.5 11.2188 16.5 9C16.5 6.8125 14.6875 5 12.5 5ZM19.5 18V8C19.5 7.46875 19.0312 7 18.5 7H17.0625C17.3438 7.625 17.5 8.3125 17.5 9C17.5 11.7812 15.25 14 12.5 14C9.71875 14 7.5 11.7812 7.5 9C7.5 8.3125 7.65625 7.625 7.90625 7H6.5C5.9375 7 5.5 7.46875 5.5 8V18C5.5 18.5625 5.9375 19 6.5 19H18.5C19.0312 19 19.5 18.5625 19.5 18ZM12.5 12C11.6562 12 11 11.3438 11 10.5C11 9.90625 11.4688 8.9375 12.5938 9.03125L13.5312 6.8125C13.625 6.5625 13.9375 6.4375 14.1875 6.5625C14.4375 6.65625 14.5625 6.96875 14.4375 7.21875L13.5 9.40625C13.8125 9.6875 14 10.0938 14 10.5C14 11.3438 13.3125 12 12.5 12ZM12.5 10C12.2188 10 12 10.25 12 10.5C12 10.7812 12.2188 11 12.5 11C12.75 11 13 10.7812 13 10.5C13 10.25 12.75 10 12.5 10Z" fill="white"/>
</g>
<defs>
<clipPath id="clip0_56095_117965">
<rect x="0.5" width="24" height="24" rx="6" fill="white"/>
</clipPath>
</defs>
</svg>
