<svg width="16" height="16" viewBox="0 0 16 16" xmlns="http://www.w3.org/2000/svg">
<path d="M13.8828 3.88281C14.0703 4.25781 14 4.70312 13.7422 5.00781L9.85156 9.76562V12.8594C9.85156 13.3516 9.45312 13.75 8.96094 13.75C8.77344 13.75 8.58594 13.7031 8.42188 13.5859L6.5 12.1094C6.26562 11.9219 6.125 11.6641 6.125 11.3594V9.76562L2.23438 5.00781C1.97656 4.70312 1.90625 4.25781 2.09375 3.88281C2.25781 3.50781 2.65625 3.25 3.07812 3.25H12.8984C13.3203 3.25 13.7188 3.50781 13.8828 3.88281ZM8.91406 9.15625L12.8047 4.39844H3.17188L7.0625 9.15625C7.17969 9.29688 7.25 9.46094 7.25 9.64844V11.2422L8.75 12.4141V9.625C8.75 9.4375 8.79688 9.27344 8.91406 9.15625Z" />
</svg>
