<svg width="25" height="24" viewBox="0 0 25 24" fill="none" xmlns="http://www.w3.org/2000/svg">
<g clip-path="url(#clip0_56095_117910)">
<rect x="0.5" width="24" height="24" rx="6" fill="#191A2C"/>
<path d="M16 13C17.375 13 18.5 14.125 18.5 15.5625V17.5312C18.5 18.9062 17.375 20 16 20H15C13.5938 20 12.5 18.9062 12.5 17.5V15.5C12.5 14.125 13.5938 13 15 13H16ZM17.5 17.5V15.5625C17.5 14.7812 16.8125 14.0938 16 14.0938H15C14.1562 14.0938 13.5 14.75 13.5 15.5625V17.5312C13.5 18.3438 14.1562 19 15 19H16C16.8125 19 17.5 18.3438 17.5 17.5ZM11 19C11.25 19 11.5 19.25 11.5 19.5C11.5 19.7812 11.25 20 11 20H7C6.71875 20 6.5 19.7812 6.5 19.5C6.5 19.25 6.71875 19 7 19H8.5V14.2188L7.65625 14.5C7.375 14.5625 7.09375 14.4375 7 14.1875C6.9375 13.9062 7.0625 13.625 7.3125 13.5312L8.8125 13.0312C8.96875 13 9.15625 13.0312 9.28125 13.125C9.40625 13.2188 9.5 13.3438 9.5 13.5V19H11ZM14 11C13.7188 11 13.5 10.7812 13.5 10.5312C13.5 10.25 13.7188 10.0312 14 10.0312H15.5V5.21875L14.6562 5.5C14.375 5.5625 14.0938 5.4375 14 5.1875C13.9375 4.90625 14.0625 4.625 14.3125 4.53125L15.8125 4.03125C15.9688 4 16.1562 4.03125 16.2812 4.125C16.4062 4.21875 16.5 4.34375 16.5 4.53125V10H18C18.25 10 18.5 10.25 18.5 10.5C18.5 10.7812 18.25 11 18 11H14ZM12.5 6.53125V8.5C12.5 9.875 11.375 11 10 11H9C7.59375 11 6.5 9.875 6.5 8.5V6.53125C6.5 5.125 7.59375 4.03125 9 4.03125H10C11.375 4.03125 12.5 5.125 12.5 6.53125ZM11.5 8.5V6.53125C11.5 5.75 10.8125 5.0625 10 5.0625H9C8.15625 5.0625 7.5 5.71875 7.5 6.53125V8.5C7.5 9.3125 8.15625 10 9 10H10C10.8125 10 11.5 9.34375 11.5 8.5Z" fill="white"/>
</g>
<defs>
<clipPath id="clip0_56095_117910">
<rect x="0.5" width="24" height="24" rx="6" fill="white"/>
</clipPath>
</defs>
</svg>
