<svg width="24" height="24" viewBox="0 0 24 24" fill="none" xmlns="http://www.w3.org/2000/svg">
<g clip-path="url(#clip0_56095_153888)">
<rect width="24" height="24" rx="6" fill="#191A2C"/>
<path d="M12 4.5C16.125 4.5 19.5 7.875 19.5 12C19.5 16.1562 16.0625 19.5 11.9688 19.5C7.84375 19.5 4.5 16.1562 4.5 12C4.5 10.25 5.09375 8.53125 6.25 7.1875C6.40625 6.96875 6.71875 6.96875 6.9375 7.125C7.15625 7.3125 7.1875 7.625 7 7.84375C6.03125 9 5.5 10.5 5.5 12C5.5 15.5938 8.40625 18.5 12 18.5C15.5625 18.5 18.5 15.5938 18.5 12C18.5 8.59375 15.8438 5.78125 12.5 5.53125V7.5C12.5 7.78125 12.25 8 12 8C11.7188 8 11.5 7.78125 11.5 7.5V5C11.5 4.75 11.7188 4.5 12 4.5ZM11.625 12.375L9.125 9.875C8.9375 9.6875 8.9375 9.34375 9.125 9.15625C9.3125 8.96875 9.65625 8.96875 9.84375 9.15625L12.3438 11.6562C12.5312 11.8438 12.5312 12.1875 12.3438 12.375C12.25 12.4688 12.125 12.5 12 12.5C11.8438 12.5 11.7188 12.4688 11.625 12.375Z" fill="white"/>
</g>
<defs>
<clipPath id="clip0_56095_153888">
<rect width="24" height="24" rx="6" fill="white"/>
</clipPath>
</defs>
</svg>
