<svg width="24" height="24" viewBox="0 0 24 24" fill="none" xmlns="http://www.w3.org/2000/svg">
<g clip-path="url(#clip0_55996_243629)">
<rect width="24" height="24" rx="6" fill="#191A2C"/>
<path d="M4 15.0625C4 14.6875 4.125 14.3125 4.4375 14L14 4.46875C14.2812 4.15625 14.6562 4 15.0312 4C15.4375 4 15.8125 4.15625 16.0938 4.46875L19.5312 8C19.8438 8.28125 20 8.65625 20 9.0625C20 9.4375 19.8438 9.8125 19.5312 10.0938L10 19.5625C9.6875 19.875 9.3125 20 8.9375 20C8.53125 20 8.15625 19.875 7.875 19.5625L4.4375 16.125C4.125 15.8438 4 15.4688 4 15.0625ZM6.3125 13.4375L5.125 14.7188C5.03125 14.8125 5 14.9375 5 15.0625C5 15.2188 5.03125 15.3438 5.125 15.4375L8.5625 18.875C8.65625 18.9688 8.8125 19.0312 8.9375 19.0312C9.0625 19.0312 9.1875 18.9688 9.28125 18.875L18.8438 9.40625C18.9375 9.3125 19 9.1875 19 9.0625C19 8.9375 18.9375 8.78125 18.8438 8.6875L15.4062 5.15625C15.3125 5.0625 15.1875 5.03125 15.0312 5.03125C14.9062 5.03125 14.7812 5.0625 14.6875 5.15625L13.4062 6.375L14.8125 7.78125C14.9062 7.875 14.9688 8 14.9688 8.125C14.9688 8.40625 14.75 8.625 14.4688 8.625C14.3438 8.625 14.2188 8.59375 14.0938 8.46875L12.6875 7.0625L11.2812 8.46875L12.6875 9.90625C12.7812 10 12.8438 10.125 12.8438 10.25C12.8438 10.5 12.625 10.75 12.3438 10.75C12.2188 10.75 12.0938 10.6875 12 10.5938L10.5625 9.1875L9.15625 10.5938L10.5625 12C10.6562 12.125 10.7188 12.25 10.7188 12.375C10.7188 12.6562 10.4688 12.875 10.2188 12.875C10.0938 12.875 9.96875 12.8125 9.875 12.7188L8.4375 11.3125L7.03125 12.7188L8.4375 14.125C8.53125 14.25 8.59375 14.375 8.59375 14.5C8.59375 14.75 8.375 15 8.09375 15C7.96875 15 7.84375 14.9375 7.75 14.8438L6.3125 13.4375Z" fill="white"/>
</g>
<defs>
<clipPath id="clip0_55996_243629">
<rect width="24" height="24" rx="6" fill="white"/>
</clipPath>
</defs>
</svg>
