<svg width="25" height="24" viewBox="0 0 25 24" fill="none" xmlns="http://www.w3.org/2000/svg">
<g clip-path="url(#clip0_56095_145480)">
<rect x="0.5" width="24" height="24" rx="6" fill="#191A2C"/>
<path d="M12.5 10C13.5938 10 14.5 10.9062 14.5 12C14.5 13.0625 13.5938 13.9688 12.5 13.9688C11.375 13.9688 10.5 13.0625 10.5 12C10.5 10.9062 11.375 10 12.5 10ZM12.5 13C13.0312 13 13.5 12.5625 13.5 12.0312C13.5 11.5312 13.0312 11.0625 12.5 11.0625C11.9375 11.0625 11.5 11.5312 11.5 12.0312C11.5 12.5625 11.9375 13 12.5 13ZM4.5 12C4.5 13.9688 5.25 15.7812 6.625 17.1562C6.8125 17.3438 6.8125 17.6875 6.625 17.875C6.5 17.9688 6.375 18 6.25 18C6.125 18 6 17.9688 5.90625 17.875C4.34375 16.3125 3.5 14.2188 3.5 12C3.5 9.8125 4.34375 7.71875 5.90625 6.15625C6.09375 5.96875 6.40625 5.96875 6.625 6.15625C6.8125 6.34375 6.8125 6.6875 6.625 6.875C5.25 8.25 4.5 10.0625 4.5 12ZM19.0625 6.15625C20.625 7.71875 21.5 9.8125 21.5 12C21.5 14.2188 20.625 16.3125 19.0625 17.875C18.9688 17.9688 18.8438 18 18.7188 18C18.5938 18 18.4688 17.9688 18.3438 17.875C18.1562 17.6875 18.1562 17.3438 18.3438 17.1562C19.7188 15.7812 20.5 13.9688 20.5 12C20.5 10.0625 19.7188 8.25 18.3438 6.875C18.1562 6.6875 18.1562 6.34375 18.3438 6.15625C18.5625 5.96875 18.875 5.96875 19.0625 6.15625ZM8.71875 8.15625C8.90625 8.34375 8.9375 8.65625 8.75 8.875C7.9375 9.71875 7.5 10.8438 7.5 12C7.5 13.1875 7.9375 14.3125 8.75 15.125C8.9375 15.3125 8.90625 15.625 8.71875 15.8125C8.625 15.9062 8.5 15.9688 8.375 15.9688C8.25 15.9688 8.125 15.9375 8 15.8438C7.03125 14.8125 6.5 13.4375 6.5 12C6.5 10.5938 7.03125 9.21875 8 8.1875C8.1875 7.96875 8.53125 7.96875 8.71875 8.15625ZM16.9688 8.15625C17.9375 9.21875 18.5 10.5938 18.5 12C18.5 13.4375 17.9375 14.8125 16.9688 15.8438C16.8438 15.9375 16.7188 16 16.5938 16C16.4688 16 16.3438 15.9375 16.25 15.8438C16.0625 15.6562 16.0312 15.3438 16.2188 15.1562C17.0312 14.3125 17.5 13.1875 17.5 12C17.5 10.8438 17.0312 9.71875 16.2188 8.84375C16.0312 8.65625 16.0625 8.34375 16.25 8.15625C16.4375 7.96875 16.7812 7.96875 16.9688 8.15625Z" fill="white"/>
</g>
<defs>
<clipPath id="clip0_56095_145480">
<rect x="0.5" width="24" height="24" rx="6" fill="white"/>
</clipPath>
</defs>
</svg>
