<svg width="25" height="24" viewBox="0 0 25 24" fill="none" xmlns="http://www.w3.org/2000/svg">
<g clip-path="url(#clip0_56095_267957)">
<rect x="0.5" width="24" height="24" rx="6" fill="#191A2C"/>
<path d="M12.5 9.3125C14.1875 9.34375 15.5625 10.7188 15.5625 12.3438C15.5625 13.9688 15.4688 15.6562 15.1875 17.2188C15.1562 17.4688 14.9375 17.625 14.6875 17.625C14.6562 17.625 14.6562 17.625 14.625 17.625C14.3438 17.5625 14.1562 17.3125 14.2188 17.0625C14.5 15.5312 14.5625 13.9688 14.5625 12.4062C14.5625 11.2812 13.6562 10.3438 12.5 10.3125C12.2812 10.3125 11.5312 10.3438 10.9688 10.9062C10.5938 11.2812 10.4062 11.7812 10.4375 12.2812C10.4375 13.9062 10.3125 15.5625 9.96875 17.1562C9.90625 17.4375 9.65625 17.5938 9.375 17.5625C9.125 17.5312 8.9375 17.25 9 16.9688C9.28125 15.4688 9.4375 13.875 9.40625 12.3125C9.375 11.5312 9.71875 10.75 10.25 10.2188C10.8438 9.625 11.5938 9.34375 12.5 9.3125ZM12.4688 12C12.75 12 13 12.2188 13 12.5C13.0312 14.9062 12.7188 17.2188 12.0938 19.5312L12.0312 19.6562C11.9688 19.875 11.75 20 11.5625 20C11.125 20 11.0312 19.5938 11.0938 19.375L11.125 19.25C11.75 17.0312 12.0312 14.8125 12 12.5312C12 12.25 12.2188 12.0312 12.4688 12ZM8 8.6875C8.1875 8.46875 8.5 8.4375 8.71875 8.625C8.9375 8.8125 8.96875 9.125 8.78125 9.3125C8.125 10.125 7.8125 11.0938 7.8125 12.125C7.84375 13.4375 7.71875 14.7188 7.5 16C7.46875 16.2188 7.25 16.4062 7 16.4062C6.96875 16.4062 6.90625 16.4062 6.90625 16.4062C6.65625 16.3438 6.46875 16.0938 6.53125 15.8125C6.75 14.625 6.84375 13.375 6.8125 12.125C6.8125 10.875 7.21875 9.65625 8 8.6875ZM20.4688 11.9062C20.5 12.1562 20.5 12.4062 20.5 12.6562C20.4375 12.9375 20.25 13.1562 19.9688 13.1562C19.6875 13.1562 19.4688 12.9375 19.5 12.6562C19.5 12.4062 19.5 12.1875 19.4688 11.9375C19.4688 11.5 19.4375 11 19.3125 10.5938C19.25 10.3125 19.4375 10.0625 19.7188 10C19.9688 9.9375 20.25 10.125 20.3125 10.375C20.4062 10.875 20.4688 11.4062 20.4688 11.9062ZM12.375 4.03125C15.0312 4.0625 17.5312 5.375 19.0312 7.53125C19.2188 7.78125 19.1562 8.125 18.9375 8.25C18.6875 8.40625 18.375 8.34375 18.2188 8.125C16.875 6.21875 14.6875 5.0625 12.375 5.03125C10.4688 5 8.6875 5.6875 7.40625 7C6.125 8.25 5.46875 9.90625 5.46875 11.6875C5.46875 11.9375 5.46875 12.1875 5.46875 12.4375C5.46875 12.7188 5.25 12.9375 5 12.9375H4.96875C4.6875 12.9375 4.46875 12.6875 4.5 12.4062C4.5 12.1875 4.5 11.9375 4.5 11.7188C4.46875 9.65625 5.25 7.75 6.6875 6.28125C8.1875 4.78125 10.1875 3.96875 12.375 4.03125ZM12.4062 6.6875C15.5312 6.71875 18.125 9.21875 18.125 12.3125C18.1562 13.5938 18.0938 14.875 17.9375 16.1562C17.9062 16.4375 17.6875 16.5938 17.4688 16.5938C17.4375 16.5938 17.4062 16.5938 17.4062 16.5938C17.1562 16.5625 16.9688 16.3125 17 16.0312C17.125 14.8125 17.1875 13.5625 17.1562 12.3125C17.125 9.8125 15 7.75 12.4062 7.6875C12 7.65625 11.625 7.71875 11.25 7.8125C10.9688 7.875 10.6875 7.6875 10.625 7.4375C10.5938 7.15625 10.75 6.875 11 6.8125C11.4688 6.71875 11.9375 6.65625 12.4062 6.6875Z" fill="white"/>
</g>
<defs>
<clipPath id="clip0_56095_267957">
<rect x="0.5" width="24" height="24" rx="6" fill="white"/>
</clipPath>
</defs>
</svg>
