<svg width="25" height="24" viewBox="0 0 25 24" fill="none" xmlns="http://www.w3.org/2000/svg">
<g clip-path="url(#clip0_56095_267939)">
<rect x="0.5" width="24" height="24" rx="6" fill="#191A2C"/>
<path d="M15.75 13.7812C17.9375 14.5 19.5 16.5625 19.4688 18.9688C19.4688 19.5625 18.9688 20 18.4062 20H6.5625C6 20 5.5 19.5625 5.46875 18.9688C5.46875 16.5625 7.03125 14.5 9.21875 13.7812C9.28125 13.7812 9.3125 13.75 9.375 13.75C9.5625 13.75 9.75 13.875 9.8125 14.0625L10.9375 16.5938L11.7812 14H11.5C11.2188 14 11 13.7812 11 13.5C11 13.25 11.2188 13 11.5 13H13.5C13.75 13 14 13.25 14 13.5C14 13.7812 13.75 14 13.5 14H13.1875L14.0312 16.5938L15.1562 14.0625C15.2188 13.875 15.4062 13.75 15.5938 13.75C15.6562 13.75 15.6875 13.7812 15.75 13.7812ZM6.5625 19H10.9062L9.09375 14.9062C7.5 15.625 6.46875 17.1875 6.5 18.9688C6.5 18.9688 6.53125 19 6.5625 19ZM13 19L13.4375 17.9688L12.5 15.0938L11.5312 17.9375L12 19H13ZM18.4062 19C18.4375 19 18.4688 18.9688 18.5 18.9688C18.5 17.1875 17.4688 15.625 15.875 14.9062L14.0625 19H18.4062ZM12.5 12C10.2812 12 8.5 10.2188 8.5 8C8.5 5.8125 10.2812 4 12.5 4C14.6875 4 16.5 5.8125 16.5 8C16.5 10.2188 14.6875 12 12.5 12ZM12.5 5C10.8438 5 9.5 6.375 9.5 8C9.5 9.65625 10.8438 11 12.5 11C14.125 11 15.5 9.65625 15.5 8C15.5 6.375 14.125 5 12.5 5Z" fill="white"/>
</g>
<defs>
<clipPath id="clip0_56095_267939">
<rect x="0.5" width="24" height="24" rx="6" fill="white"/>
</clipPath>
</defs>
</svg>
