<svg width="25" height="24" viewBox="0 0 25 24" fill="none" xmlns="http://www.w3.org/2000/svg">
<g clip-path="url(#clip0_56095_127414)">
<rect x="0.5" width="24" height="24" rx="6" fill="#191A2C"/>
<path d="M12.5 3.25C17.457 3.25 21.5 7.29297 21.5 12.25C21.5 17.2422 17.457 21.25 12.5 21.25C7.50781 21.25 3.5 17.2422 3.5 12.25C3.5 7.29297 7.50781 3.25 12.5 3.25ZM12.5 20.125C16.8242 20.125 20.375 16.6094 20.375 12.25C20.375 7.92578 16.8242 4.375 12.5 4.375C8.14062 4.375 4.625 7.92578 4.625 12.25C4.625 16.6094 8.14062 20.125 12.5 20.125ZM15.9453 13.6211C16.1914 13.7617 16.2969 14.1133 16.1211 14.3594C16.0156 14.5703 15.8398 14.6406 15.6641 14.6406C15.5586 14.6406 15.4531 14.6406 15.3828 14.5703L12.2188 12.7422C12.043 12.6367 11.9375 12.4609 11.9375 12.25V7.1875C11.9375 6.90625 12.1836 6.625 12.5 6.625C12.7812 6.625 13.0625 6.90625 13.0625 7.1875V11.9336L15.9453 13.6211Z" fill="white"/>
</g>
<defs>
<clipPath id="clip0_56095_127414">
<rect x="0.5" width="24" height="24" rx="6" fill="white"/>
</clipPath>
</defs>
</svg>
