<svg width="25" height="24" viewBox="0 0 25 24" fill="none" xmlns="http://www.w3.org/2000/svg">
<g clip-path="url(#clip0_56095_135661)">
<rect x="0.832031" width="24" height="24" rx="6" fill="#191A2C"/>
<path d="M12.832 4C16.1445 4 18.832 6.6875 18.832 10C18.832 12.4375 17.9883 13.0938 13.4258 19.6875C13.2695 19.9062 13.0508 20 12.832 20C12.582 20 12.3633 19.9062 12.207 19.6875C7.64453 13.125 6.83203 12.4375 6.83203 10C6.83203 6.6875 9.48828 4 12.832 4ZM12.832 18.8125C17.207 12.4688 17.832 12 17.832 10C17.832 7.25 15.582 5 12.832 5C10.0508 5 7.83203 7.25 7.83203 10C7.83203 12 8.42578 12.5 12.832 18.8125Z" fill="white"/>
</g>
<defs>
<clipPath id="clip0_56095_135661">
<rect x="0.832031" width="24" height="24" rx="6" fill="white"/>
</clipPath>
</defs>
</svg>
