<svg width="25" height="24" viewBox="0 0 25 24" fill="none" xmlns="http://www.w3.org/2000/svg">
<g clip-path="url(#clip0_56095_127442)">
<rect x="0.5" width="24" height="24" rx="6" fill="#191A2C"/>
<path d="M19 8.5C19.25 8.5 19.5 8.75 19.5 9.03125C19.5 9.3125 19.25 9.53125 19 9.53125H16.0625L14.9062 14.5312H18C18.25 14.5312 18.5 14.75 18.5 15C18.5 15.2812 18.25 15.5 18 15.5H14.6875L13.9688 18.625C13.9062 18.875 13.7188 19 13.5 19C13.4375 19 13.4062 19 13.375 19C13.0938 18.9375 12.9375 18.6875 13 18.4062L13.6562 15.5H9.6875L8.96875 18.625C8.90625 18.875 8.71875 19 8.5 19C8.4375 19 8.40625 19 8.375 19C8.09375 18.9375 7.9375 18.6875 8 18.4062L8.65625 15.5H6C5.71875 15.5 5.5 15.2812 5.5 15C5.5 14.75 5.71875 14.5 6 14.5H8.90625L10.0625 9.5H7C6.71875 9.5 6.5 9.28125 6.5 9C6.5 8.75 6.71875 8.5 7 8.5H10.2812L11 5.34375C11.0625 5.09375 11.3125 4.9375 11.5938 5C11.875 5.0625 12.0312 5.34375 11.9688 5.59375L11.3125 8.5H15.2812L16 5.375C16.0625 5.125 16.3125 4.96875 16.5938 5.03125C16.875 5.09375 17.0312 5.34375 16.9688 5.625L16.3125 8.5H19ZM13.9062 14.5L15.0625 9.5H11.0625L9.90625 14.5H13.9062Z" fill="white"/>
</g>
<defs>
<clipPath id="clip0_56095_127442">
<rect x="0.5" width="24" height="24" rx="6" fill="white"/>
</clipPath>
</defs>
</svg>
