<svg width="25" height="24" viewBox="0 0 25 24" fill="none" xmlns="http://www.w3.org/2000/svg">
<g clip-path="url(#clip0_56095_267985)">
<rect x="0.5" width="24" height="24" rx="6" fill="#191A2C"/>
<path d="M17 4C18.375 4 19.5 5.125 19.5 6.5C19.5 7.71875 18.625 8.71875 17.5 8.96875V10C17.5 11.4062 16.375 12.5 15 12.5H10C9.15625 12.5 8.5 13.1875 8.5 14V15.0625C9.625 15.3125 10.5 16.3125 10.5 17.5C10.5 18.9062 9.375 20 8 20C6.59375 20 5.5 18.9062 5.5 17.5C5.5 16.3125 6.34375 15.2812 7.5 15.0625V8.96875C6.34375 8.71875 5.5 7.71875 5.5 6.5C5.5 5.125 6.59375 4 8 4C9.375 4 10.5 5.125 10.5 6.5C10.5 7.71875 9.625 8.71875 8.5 8.96875V12.0312C8.90625 11.7188 9.40625 11.5 10 11.5H15C15.8125 11.5 16.5 10.8438 16.5 10V8.96875C15.3438 8.71875 14.5 7.71875 14.5 6.5C14.5 5.125 15.5938 4 17 4ZM9.5 17.5C9.5 16.6875 8.8125 16 8 16C7.15625 16 6.5 16.6875 6.5 17.5C6.5 18.3438 7.15625 19 8 19C8.8125 19 9.5 18.3438 9.5 17.5ZM8 8C8.8125 8 9.5 7.34375 9.5 6.5C9.5 5.6875 8.8125 5 8 5C7.15625 5 6.5 5.6875 6.5 6.5C6.5 7.34375 7.15625 8 8 8ZM17 8C17.8125 8 18.5 7.34375 18.5 6.5C18.5 5.6875 17.8125 5 17 5C16.1562 5 15.5 5.6875 15.5 6.5C15.5 7.34375 16.1562 8 17 8Z" fill="white"/>
</g>
<defs>
<clipPath id="clip0_56095_267985">
<rect x="0.5" width="24" height="24" rx="6" fill="white"/>
</clipPath>
</defs>
</svg>
