<svg width="25" height="24" viewBox="0 0 25 24" fill="none" xmlns="http://www.w3.org/2000/svg">
<g clip-path="url(#clip0_56095_130058)">
<rect x="0.5" width="24" height="24" rx="6" fill="#191A2C"/>
<path d="M19.3125 9.09375C19.4375 9.28125 19.5 9.53125 19.5 9.75V17C19.5 18.125 18.5938 19 17.5 19H7.5C6.375 19 5.5 18.125 5.5 17V9.75C5.5 9.53125 5.53125 9.28125 5.65625 9.09375L7.25 5.84375C7.5 5.34375 8.03125 5 8.59375 5H16.375C16.9375 5 17.4688 5.34375 17.7188 5.84375L19.3125 9.09375ZM16.375 6H14.0625L14.5 9H18.1875L16.8125 6.28125C16.7188 6.125 16.5625 6 16.375 6ZM11.5 9H13.5L13.0625 6H11.9062L11.5 9ZM13.5 10H11.4375L11.4688 13H13.5V10ZM8.15625 6.28125L6.78125 9H10.5L10.9062 6H8.59375C8.40625 6 8.25 6.125 8.15625 6.28125ZM18.5 17V10H14.4688L14.5 13.5C14.5 13.7812 14.25 14 14 14H11C10.7188 14 10.5 13.7812 10.5 13.5V10H6.5V17C6.5 17.5625 6.9375 18 7.5 18H17.5C18.0312 18 18.5 17.5625 18.5 17Z" fill="white"/>
</g>
<defs>
<clipPath id="clip0_56095_130058">
<rect x="0.5" width="24" height="24" rx="6" fill="white"/>
</clipPath>
</defs>
</svg>
