<svg width="25" height="24" viewBox="0 0 25 24" fill="none" xmlns="http://www.w3.org/2000/svg">
<g clip-path="url(#clip0_56095_117892)">
<rect x="0.5" width="24" height="24" rx="6" fill="#191A2C"/>
<path d="M12 13.25C12 13.6875 11.6562 14 11.25 14H9.75C9.3125 14 9 13.6875 9 13.25V11.75C9 11.3438 9.3125 11 9.75 11H11.25C11.6562 11 12 11.3438 12 11.75V13.25ZM11 13V12H10V13H11ZM9.75 10C9.3125 10 9 9.6875 9 9.25V7.75C9 7.34375 9.3125 7 9.75 7H11.25C11.6562 7 12 7.34375 12 7.75V9.25C12 9.6875 11.6562 10 11.25 10H9.75ZM10 8V9H11V8H10ZM12.5 16C13.5938 16.0312 14.5 16.9062 14.5 18V19.5C14.5 19.75 14.25 20 14 20C13.7188 20 13.5 19.75 13.5 19.5V18C13.5 17.4375 13.0312 17 12.5 17C11.9375 17 11.5 17.4375 11.5 18V19.5C11.5 19.7812 11.25 20 11 20C10.7188 20 10.5 19.7812 10.5 19.5V18C10.5 16.9062 11.375 16.0312 12.5 16ZM15.25 7C15.6562 7 16 7.34375 16 7.75V9.25C16 9.6875 15.6562 10 15.25 10H13.75C13.3125 10 13 9.6875 13 9.25V7.75C13 7.34375 13.3125 7 13.75 7H15.25ZM15 9V8H14V9H15ZM16.5 4C17.5938 4 18.5 4.90625 18.5 6V19.5C18.5 19.7812 18.25 20 18 20C17.7188 20 17.5 19.7812 17.5 19.5V6C17.5 5.46875 17.0312 5 16.5 5H8.5C7.9375 5 7.5 5.46875 7.5 6V19.5C7.5 19.7812 7.25 20 7 20C6.71875 20 6.5 19.7812 6.5 19.5V6C6.5 4.90625 7.375 4 8.5 4H16.5ZM15.25 11C15.6562 11 16 11.3438 16 11.75V13.25C16 13.6875 15.6562 14 15.25 14H13.75C13.3125 14 13 13.6875 13 13.25V11.75C13 11.3438 13.3125 11 13.75 11H15.25ZM15 13V12H14V13H15Z" fill="white"/>
</g>
<defs>
<clipPath id="clip0_56095_117892">
<rect x="0.5" width="24" height="24" rx="6" fill="white"/>
</clipPath>
</defs>
</svg>
