<svg width="25" height="24" viewBox="0 0 25 24" fill="none" xmlns="http://www.w3.org/2000/svg">
<g clip-path="url(#clip0_56095_130049)">
<rect x="0.5" width="24" height="24" rx="6" fill="#191A2C"/>
<path d="M19.5 5.5V7.5C19.5 7.78125 19.25 8 19 8C18.7188 8 18.5 7.78125 18.5 7.5V6H13V18H15C15.25 18 15.5 18.25 15.5 18.5C15.5 18.75 15.25 19 15 19H10C9.71875 19 9.5 18.75 9.5 18.5C9.5 18.25 9.71875 18 9.96875 18H12V6H6.5V7.5C6.5 7.78125 6.25 8 6 8C5.71875 8 5.5 7.78125 5.5 7.5V5.5C5.5 5.25 5.71875 5 6 5H19C19.25 5 19.5 5.25 19.5 5.5Z" fill="white"/>
</g>
<defs>
<clipPath id="clip0_56095_130049">
<rect x="0.5" width="24" height="24" rx="6" fill="white"/>
</clipPath>
</defs>
</svg>
