<svg width="25" height="24" viewBox="0 0 25 24" fill="none" xmlns="http://www.w3.org/2000/svg">
<g clip-path="url(#clip0_56095_145507)">
<rect x="0.5" width="24" height="24" rx="6" fill="#191A2C"/>
<path d="M14 11C14.25 11 14.5 11.25 14.5 11.5L14.4688 18.5C14.4688 19.3125 13.8125 20 13 20H6C5.15625 20 4.5 19.3438 4.5 18.5V11.5C4.5 11.25 4.71875 11.0312 4.96875 11.0312C5.25 11.0312 5.46875 11.25 5.46875 11.5V15H13.4688V11.5C13.4688 11.25 13.7188 11 14 11ZM13.5 18.5V16H5.5V18.5C5.5 18.7812 5.71875 19 6 19H13C13.25 19 13.5 18.7812 13.5 18.5ZM20 11C20.25 11 20.5 11.25 20.5 11.5L20.4688 19.5C20.4688 19.7812 20.25 20 19.9688 20C19.7188 20 19.5 19.7812 19.5 19.5V11.5C19.5 11.25 19.7188 11 20 11ZM22.25 7.9375C22.5312 8.34375 22.5625 8.875 22.3125 9.3125C22.0938 9.75 21.6562 10 21.1562 10H3.8125C3.3125 10 2.875 9.75 2.65625 9.3125C2.40625 8.875 2.4375 8.34375 2.71875 7.9375L4.9375 4.59375C5.1875 4.25 5.59375 4 6.03125 4H18.9375C19.375 4 19.7812 4.25 20.0312 4.59375L22.25 7.9375ZM21.1562 9C21.4062 9 21.5625 8.71875 21.4375 8.5L19.2188 5.15625C19.1562 5.0625 19.0312 5 18.9375 5H6.03125C5.9375 5 5.8125 5.0625 5.75 5.15625L3.53125 8.5C3.40625 8.71875 3.5625 9 3.8125 9H21.1562Z" fill="white"/>
</g>
<defs>
<clipPath id="clip0_56095_145507">
<rect x="0.5" width="24" height="24" rx="6" fill="white"/>
</clipPath>
</defs>
</svg>
