<svg width="25" height="24" viewBox="0 0 25 24" fill="none" xmlns="http://www.w3.org/2000/svg">
<g clip-path="url(#clip0_56095_117874)">
<rect x="0.5" width="24" height="24" rx="6" fill="#191A2C"/>
<path d="M17.5 6C18.5938 6 19.5 6.90625 19.5 8V18C19.5 19.125 18.5938 20 17.5 20H7.5C6.375 20 5.5 19.125 5.5 18V8C5.5 6.90625 6.375 6 7.5 6H8.5V4.5C8.5 4.25 8.71875 4 9 4C9.25 4 9.5 4.25 9.5 4.5V6H15.5V4.5C15.5 4.25 15.7188 4 16 4C16.25 4 16.5 4.25 16.5 4.5V6H17.5ZM6.5 11V13H9.5V11H6.5ZM10.5 13H14.5V11H10.5V13ZM14.5 14H10.5V16H14.5V14ZM6.5 14V16H9.5V14H6.5ZM7.5 19H9.5V17.0312H6.5V18C6.5 18.5625 6.9375 19 7.5 19ZM10.5 19H14.5V17.0312H10.5V19ZM18.5 18V17.0312H15.5V19H17.5C18.0312 19 18.5 18.5625 18.5 18ZM18.5 16V14H15.5V16H18.5ZM18.5 13V11H15.5V13H18.5ZM18.5 10V8C18.5 7.46875 18.0312 7 17.5 7H7.5C6.9375 7 6.5 7.46875 6.5 8V10H18.5Z" fill="white"/>
</g>
<defs>
<clipPath id="clip0_56095_117874">
<rect x="0.5" width="24" height="24" rx="6" fill="white"/>
</clipPath>
</defs>
</svg>
