<svg width="25" height="24" viewBox="0 0 25 24" fill="none" xmlns="http://www.w3.org/2000/svg">
<g clip-path="url(#clip0_56095_127378)">
<rect x="0.5" width="24" height="24" rx="6" fill="#191A2C"/>
<path d="M16.5 12C16.5 12.2812 16.375 12.5312 16.1875 12.7188L12.1875 16.7188C11.9062 17 11.4688 17.0938 11.0938 16.9375C10.7188 16.7812 10.5 16.4062 10.5 16V14H6C5.15625 14 4.5 13.3438 4.5 12.5V11.5C4.5 10.6875 5.15625 10 6 10H10.5V8C10.5 7.625 10.7188 7.25 11.0938 7.09375C11.4688 6.9375 11.9062 7.03125 12.1875 7.3125L16.1875 11.3125C16.375 11.5 16.5 11.75 16.5 12ZM11.5 16L15.4688 12L11.4688 8L11.5 11H6C5.71875 11 5.5 11.25 5.5 11.5V12.5C5.5 12.7812 5.71875 13 6 13H11.5V16ZM18 5C19.375 5 20.5 6.125 20.5 7.5V16.5C20.5 17.9062 19.375 19 18 19H15C14.7188 19 14.5 18.7812 14.5 18.5C14.5 18.25 14.7188 18 15 18H18C18.8125 18 19.5 17.3438 19.5 16.5V7.5C19.5 6.6875 18.8125 6 18 6H15C14.7188 6 14.5 5.78125 14.5 5.5C14.5 5.25 14.7188 5 15 5H18Z" fill="white"/>
</g>
<defs>
<clipPath id="clip0_56095_127378">
<rect x="0.5" width="24" height="24" rx="6" fill="white"/>
</clipPath>
</defs>
</svg>
