<svg width="25" height="24" viewBox="0 0 25 24" fill="none" xmlns="http://www.w3.org/2000/svg">
<g clip-path="url(#clip0_56095_135606)">
<rect x="0.832031" width="24" height="24" rx="6" fill="#191A2C"/>
<path d="M19.957 14.3438C20.582 14.625 20.9258 15.3125 20.7695 15.9688L20.1133 18.9062C19.957 19.5625 19.3945 20 18.707 20C11.0508 20 4.83203 13.7812 4.83203 6.125C4.83203 5.4375 5.26953 4.875 5.92578 4.75L8.86328 4.0625C9.51953 3.90625 10.207 4.25 10.4883 4.875L11.832 8.0625C12.082 8.625 11.9258 9.3125 11.457 9.71875L10.1758 10.75C11.082 12.375 12.457 13.75 14.082 14.6562L15.1445 13.4062C15.5195 12.9062 16.207 12.75 16.7695 12.9688L19.957 14.3438ZM19.1133 18.6875L19.8008 15.75C19.8633 15.5312 19.7383 15.3438 19.5508 15.25L16.3945 13.9062C16.207 13.8438 16.0195 13.875 15.8945 14.0312L14.6133 15.5938C14.457 15.7812 14.207 15.8438 14.0195 15.7188C11.8945 14.6875 10.1445 12.9375 9.11328 10.8438C8.98828 10.625 9.05078 10.375 9.23828 10.2188L10.8008 8.9375C10.957 8.8125 10.9883 8.625 10.9258 8.4375L9.58203 5.28125C9.48828 5.125 9.33203 5 9.17578 5C9.14453 5 9.11328 5.03125 9.08203 5.03125L6.14453 5.71875C5.95703 5.75 5.83203 5.90625 5.83203 6.125C5.83203 13.2188 11.6133 19.0312 18.707 19.0312C18.9258 19.0312 19.082 18.875 19.1133 18.6875Z" fill="white"/>
</g>
<defs>
<clipPath id="clip0_56095_135606">
<rect x="0.832031" width="24" height="24" rx="6" fill="white"/>
</clipPath>
</defs>
</svg>
