<svg width="25" height="24" viewBox="0 0 25 24" fill="none" xmlns="http://www.w3.org/2000/svg">
<g clip-path="url(#clip0_56095_267948)">
<rect x="0.5" width="24" height="24" rx="6" fill="#191A2C"/>
<path d="M14.5 15C14.2188 15 14 14.7812 14 14.5C14 14.25 14.2188 14 14.5 14H18.5C18.75 14 19 14.25 19 14.5C19 14.7812 18.75 15 18.5 15H14.5ZM19.5 5C20.5938 5 21.5 5.90625 21.5 7V17C21.5 18.125 20.5938 19 19.5 19H5.5C4.375 19 3.5 18.125 3.5 17V7C3.5 5.90625 4.375 5 5.5 5H19.5ZM20.5 17V8H4.5V17C4.5 17.5625 4.9375 18 5.5 18H19.5C20.0312 18 20.5 17.5625 20.5 17ZM4.5 7H20.5C20.5 6.46875 20.0312 6 19.5 6H5.5C4.9375 6 4.5 6.46875 4.5 7ZM14.5 11C14.2188 11 14 10.7812 14 10.5C14 10.25 14.2188 10 14.5 10H18.5C18.75 10 19 10.25 19 10.5C19 10.7812 18.75 11 18.5 11H14.5ZM14.5 13C14.2188 13 14 12.7812 14 12.5C14 12.25 14.2188 12 14.5 12H18.5C18.75 12 19 12.25 19 12.5C19 12.7812 18.75 13 18.5 13H14.5ZM9.5 13C8.375 13 7.5 12.125 7.5 11C7.5 9.90625 8.375 9 9.5 9C10.5938 9 11.5 9.90625 11.5 11C11.5 12.125 10.5938 13 9.5 13ZM9.5 10C8.9375 10 8.5 10.4688 8.5 11C8.5 11.5625 8.9375 12 9.5 12C10.0312 12 10.5 11.5625 10.5 11C10.5 10.4688 10.0312 10 9.5 10ZM6.5 17C6.21875 17 6 16.7812 6 16.5C6 15.125 7.09375 14 8.5 14H10.5C11.875 14 13 15.125 13 16.5C13 16.7812 12.75 17 12.5 17C12.2188 17 12 16.7812 12 16.5C12 15.6875 11.3125 15 10.5 15H8.5C7.65625 15 7 15.6875 7 16.5C7 16.7812 6.75 17 6.5 17Z" fill="white"/>
</g>
<defs>
<clipPath id="clip0_56095_267948">
<rect x="0.5" width="24" height="24" rx="6" fill="white"/>
</clipPath>
</defs>
</svg>
