<svg width="25" height="24" viewBox="0 0 25 24" fill="none" xmlns="http://www.w3.org/2000/svg">
<g clip-path="url(#clip0_56095_117883)">
<rect x="0.5" width="24" height="24" rx="6" fill="#191A2C"/>
<path d="M12.4688 20C10.7188 20 10.0938 19.6562 10.0938 18.9062V17.6562C9.59375 17.4688 9.15625 17.1875 8.75 16.9062L7.6875 17.5C7.53125 17.5938 7.375 17.625 7.21875 17.625C6.0625 17.625 4.8125 14.75 4.8125 14.25C4.8125 13.9062 5 13.5625 5.3125 13.4062L6.375 12.7812C6.375 12.5312 6.34375 12.25 6.34375 12C6.34375 11.7188 6.375 11.4688 6.40625 11.2188L5.34375 10.625C5.03125 10.4688 4.84375 10.125 4.84375 9.78125C4.84375 9.40625 6.03125 6.375 7.21875 6.375C7.40625 6.375 7.5625 6.4375 7.71875 6.53125L8.78125 7.125C9.1875 6.84375 9.625 6.5625 10.0938 6.375V5.125C10.0938 4.15625 11.2188 4 12.5 4C13.7188 4 14.8438 4.15625 14.8438 5.125V6.375C15.3125 6.5625 15.75 6.8125 16.1562 7.125L17.2188 6.53125C17.375 6.4375 17.5312 6.40625 17.7188 6.40625C18.8438 6.40625 20.0938 9.28125 20.0938 9.78125C20.0938 10.125 19.9062 10.4688 19.5938 10.625L18.5312 11.25C18.5625 11.5 18.5938 11.75 18.5938 12C18.5938 12.25 18.5625 12.5312 18.5312 12.7812L19.5938 13.4062C19.9062 13.5625 20.0938 13.9062 20.0938 14.25C20.0938 14.625 18.9062 17.625 17.7188 17.625C17.5312 17.625 17.375 17.5938 17.2188 17.5L16.1562 16.9062C15.75 17.1875 15.3125 17.4688 14.8438 17.6562V18.9062C14.875 19.6562 14.25 20 12.4688 20ZM8.875 15.6875C10 16.6562 10.5312 16.75 11.0938 16.9688V18.9062C11.5625 18.9688 12 19 12.4688 19C12.9375 19 13.4062 18.9688 13.875 18.875L13.8438 16.9688C14.375 16.7812 14.9688 16.625 16.0625 15.6875L17.75 16.6562C18.3438 15.9688 18.8125 15.1562 19.0938 14.25L17.4688 13.3125C17.5312 12.8438 17.5938 12.5 17.5938 12.0625C17.5938 11.75 17.5625 11.3438 17.4688 10.7188L19.125 9.78125C18.8125 8.90625 18.3438 8.09375 17.7188 7.375L16.0625 8.34375C14.9688 7.375 14.4375 7.28125 13.8438 7.0625V5.125C13.4062 5.0625 12.9688 5.03125 12.5 5.03125C12.0312 5.03125 11.5625 5.0625 11.0625 5.15625L11.0938 7.0625C10.5938 7.25 10 7.375 8.875 8.34375L7.21875 7.375C6.625 8.09375 6.15625 8.90625 5.84375 9.8125L7.5 10.7188C7.4375 11.1875 7.375 11.5312 7.375 11.9375C7.375 12.2812 7.40625 12.6875 7.5 13.2812L5.84375 14.25C6.15625 15.0938 6.625 15.9062 7.25 16.625L8.875 15.6875ZM12.5 15C10.8438 15 9.5 13.6562 9.5 12C9.5 10.3438 10.8438 9 12.5 9C14.125 9 15.5 10.3438 15.5 12C15.5 13.6562 14.125 15 12.5 15ZM12.5 10C11.375 10 10.5 10.875 10.5 12C10.5 13.0938 11.375 14 12.5 14C13.5938 14 14.5 13.0938 14.5 12C14.5 10.875 13.5938 10 12.5 10Z" fill="white"/>
</g>
<defs>
<clipPath id="clip0_56095_117883">
<rect x="0.5" width="24" height="24" rx="6" fill="white"/>
</clipPath>
</defs>
</svg>
