<svg width="25" height="24" viewBox="0 0 25 24" fill="none" xmlns="http://www.w3.org/2000/svg">
<g clip-path="url(#clip0_56095_117947)">
<rect x="0.5" width="24" height="24" rx="6" fill="#191A2C"/>
<path d="M15 11C14.7188 11 14.5 10.7812 14.5 10.5C14.5 10.25 14.7188 10 15 10H16V6H15.5C15.2188 6 15 5.78125 15 5.5C15 5.25 15.2188 5 15.5 5H16.5C16.75 5 17 5.25 17 5.5V10H18C18.25 10 18.5 10.2812 18.5 10.5312C18.5 10.7812 18.25 11 18 11H15ZM16.5 12C17.875 12 19 13.125 19 14.5V16C19 17.6562 17.625 19 16 19C15.7188 19 15.5 18.7812 15.5 18.5C15.5 18.25 15.7188 18 16 18C16.875 18 17.6562 17.4062 17.9062 16.5625C17.5 16.8438 17 17 16.5 17C15.0938 17 14 15.9062 14 14.5C14 13.125 15.0938 12 16.5 12ZM16.5 16C17.3125 16 18 15.3438 18 14.5C18 13.6875 17.3125 13 16.5 13C15.6562 13 15 13.6875 15 14.5C15 15.3438 15.6562 16 16.5 16ZM11.5 15C11.625 15 11.75 15.0625 11.8438 15.1562C12.0312 15.3438 12.0312 15.6875 11.8438 15.875L8.84375 18.875C8.65625 19.0625 8.3125 19.0625 8.125 18.875L5.125 15.875C4.9375 15.6875 4.9375 15.3438 5.125 15.1562C5.3125 14.9688 5.65625 14.9688 5.84375 15.1562L8 17.3125V5.5C8 5.25 8.21875 5 8.5 5C8.75 5 9 5.25 9 5.5V17.3125L11.125 15.1562C11.2188 15.0625 11.3438 15 11.5 15Z" fill="white"/>
</g>
<defs>
<clipPath id="clip0_56095_117947">
<rect x="0.5" width="24" height="24" rx="6" fill="white"/>
</clipPath>
</defs>
</svg>
