<svg width="25" height="24" viewBox="0 0 25 24" fill="none" xmlns="http://www.w3.org/2000/svg">
<g clip-path="url(#clip0_56095_127405)">
<rect x="0.5" width="24" height="24" rx="6" fill="#191A2C"/>
<path d="M19 13C20.9375 13 22.5 14.5938 22.5 16.5625C22.4688 18.4375 20.9062 20 19.0312 20C17.0938 20.0312 15.5 18.4688 15.5 16.5312L14.0625 16.5L3.125 20C3.09375 20 3.03125 20 3 20C2.78125 20 2.5625 19.875 2.5 19.6562C2.4375 19.4062 2.5625 19.125 2.84375 19.0312L13.5312 15.6562V6C13.5312 4.90625 14.4062 4 15.5 4H22C22.25 4 22.5 4.25 22.5 4.5C22.5 4.78125 22.25 5 22 5H15.5C14.9375 5 14.5 5.46875 14.5 6V15.5H15.6562C16.0938 14.0625 17.4062 13 19 13ZM19 19C20.375 19 21.5 17.9062 21.5 16.5C21.5 15.125 20.375 14 19 14C17.625 14 16.5 15.125 16.5 16.5C16.5 17.9062 17.5938 19 19 19ZM3.9375 15.2812L2.625 10.4375C2.5 9.90625 2.8125 9.34375 3.34375 9.21875L9.125 7.65625C9.21875 7.625 9.3125 7.625 9.40625 7.625C9.84375 7.625 10.25 7.9375 10.3438 8.375L11.6562 13.1875C11.8125 13.7188 11.4688 14.2812 10.9375 14.4375L5.15625 15.9688C5.0625 16 4.96875 16 4.875 16C4.40625 16 4.03125 15.6875 3.9375 15.2812ZM6.875 9.3125L6.125 9.5L6.5 10.9062L7.21875 10.6875L6.875 9.3125ZM5.15625 9.75L3.59375 10.1875L4.90625 15L10.6875 13.4688L9.40625 8.625L7.8125 9.03125L8.34375 10.9375C8.40625 11.1875 8.25 11.4688 7.96875 11.5312L6.28125 12C6.25 12 6.1875 12 6.15625 12C6.0625 12 5.96875 11.9688 5.90625 11.9375C5.78125 11.875 5.6875 11.75 5.65625 11.625L5.15625 9.75Z" fill="white"/>
</g>
<defs>
<clipPath id="clip0_56095_127405">
<rect x="0.5" width="24" height="24" rx="6" fill="white"/>
</clipPath>
</defs>
</svg>
