<svg width="24" height="24" viewBox="0 0 24 24" fill="none" xmlns="http://www.w3.org/2000/svg">
<g clip-path="url(#clip0_56095_153879)">
<rect width="24" height="24" rx="6" fill="#191A2C"/>
<path d="M8.5 9C8.21875 9 8 8.78125 8 8.5C8 8.25 8.21875 8 8.5 8H10.5C10.75 8 11 8.25 11 8.5C11 8.78125 10.75 9 10.5 9H8.5ZM8.5 7C8.21875 7 8 6.78125 8 6.5C8 6.25 8.21875 6 8.5 6H10.5C10.75 6 11 6.25 11 6.5C11 6.78125 10.75 7 10.5 7H8.5ZM17.4062 7.9375C17.7812 8.3125 18 8.8125 18 9.34375V18C18 19.125 17.0938 20 16 20H8C6.875 20 6 19.125 6 18V6C6 4.90625 6.875 4 8 4H12.6562C13.1875 4 13.6875 4.21875 14.0625 4.59375L17.4062 7.9375ZM13 5.09375V8.5C13 8.78125 13.2188 9 13.5 9H16.9062C16.875 8.875 16.8125 8.75 16.6875 8.625L13.375 5.3125C13.25 5.1875 13.125 5.125 13 5.09375ZM17 18V10H13.5C12.6562 10 12 9.34375 12 8.5V5H8C7.4375 5 7 5.46875 7 6V18C7 18.5625 7.4375 19 8 19H16C16.5312 19 17 18.5625 17 18ZM8 12.5C8 11.9688 8.4375 11.5 9 11.5H15C15.5312 11.5 16 11.9688 16 12.5V14.5C16 15.0625 15.5312 15.5 15 15.5H9C8.4375 15.5 8 15.0625 8 14.5V12.5ZM15 14.5V12.5H9V14.5H15ZM15.5 17C15.75 17 16 17.25 16 17.5C16 17.7812 15.75 18 15.5 18H13.5C13.2188 18 13 17.7812 13 17.5C13 17.25 13.2188 17 13.5 17H15.5Z" fill="white"/>
</g>
<defs>
<clipPath id="clip0_56095_153879">
<rect width="24" height="24" rx="6" fill="white"/>
</clipPath>
</defs>
</svg>
