<svg width="25" height="24" viewBox="0 0 25 24" fill="none" xmlns="http://www.w3.org/2000/svg">
<g clip-path="url(#clip0_56095_145471)">
<rect x="0.5" width="24" height="24" rx="6" fill="#191A2C"/>
<path d="M4.5 16C4.75 16 5 16.25 5 16.5V19.5C5 19.7812 4.71875 20 4.46875 20C4.21875 20 4 19.7812 4 19.5V16.5C4 16.25 4.21875 16 4.5 16ZM8.5 13C8.75 13 9 13.25 9 13.5V19.5C9 19.7812 8.75 20 8.5 20C8.21875 20 8 19.7812 8 19.5V13.5C8 13.25 8.21875 13 8.5 13ZM12.5 10C12.75 10 13 10.25 13 10.5V19.5C13 19.7812 12.75 20 12.5 20C12.2188 20 12 19.7812 12 19.5V10.5C12 10.25 12.2188 10 12.5 10ZM16.5 7C16.75 7 17 7.25 17 7.5V19.5C17 19.7812 16.75 20 16.5 20C16.2188 20 16 19.7812 16 19.5V7.5C16 7.25 16.2188 7 16.5 7ZM20.5 4C20.75 4 21 4.25 21 4.5V19.5C21 19.7812 20.75 20 20.5 20C20.2188 20 20 19.7812 20 19.5V4.5C20 4.25 20.2188 4 20.5 4Z" fill="white"/>
</g>
<defs>
<clipPath id="clip0_56095_145471">
<rect x="0.5" width="24" height="24" rx="6" fill="white"/>
</clipPath>
</defs>
</svg>
