<svg width="25" height="24" viewBox="0 0 25 24" fill="none" xmlns="http://www.w3.org/2000/svg">
<g clip-path="url(#clip0_56095_135670)">
<rect x="0.832031" width="24" height="24" rx="6" fill="#191A2C"/>
<path d="M14.832 15C14.5508 15 14.332 14.7812 14.332 14.5C14.332 14.25 14.5508 14 14.832 14H18.832C19.082 14 19.332 14.25 19.332 14.5C19.332 14.7812 19.082 15 18.832 15H14.832ZM19.832 5C20.9258 5 21.832 5.90625 21.832 7V17C21.832 18.125 20.9258 19 19.832 19H5.83203C4.70703 19 3.83203 18.125 3.83203 17V7C3.83203 5.90625 4.70703 5 5.83203 5H19.832ZM20.832 17V8H4.83203V17C4.83203 17.5625 5.26953 18 5.83203 18H19.832C20.3633 18 20.832 17.5625 20.832 17ZM4.83203 7H20.832C20.832 6.46875 20.3633 6 19.832 6H5.83203C5.26953 6 4.83203 6.46875 4.83203 7ZM14.832 11C14.5508 11 14.332 10.7812 14.332 10.5C14.332 10.25 14.5508 10 14.832 10H18.832C19.082 10 19.332 10.25 19.332 10.5C19.332 10.7812 19.082 11 18.832 11H14.832ZM14.832 13C14.5508 13 14.332 12.7812 14.332 12.5C14.332 12.25 14.5508 12 14.832 12H18.832C19.082 12 19.332 12.25 19.332 12.5C19.332 12.7812 19.082 13 18.832 13H14.832ZM9.83203 13C8.70703 13 7.83203 12.125 7.83203 11C7.83203 9.90625 8.70703 9 9.83203 9C10.9258 9 11.832 9.90625 11.832 11C11.832 12.125 10.9258 13 9.83203 13ZM9.83203 10C9.26953 10 8.83203 10.4688 8.83203 11C8.83203 11.5625 9.26953 12 9.83203 12C10.3633 12 10.832 11.5625 10.832 11C10.832 10.4688 10.3633 10 9.83203 10ZM6.83203 17C6.55078 17 6.33203 16.7812 6.33203 16.5C6.33203 15.125 7.42578 14 8.83203 14H10.832C12.207 14 13.332 15.125 13.332 16.5C13.332 16.7812 13.082 17 12.832 17C12.5508 17 12.332 16.7812 12.332 16.5C12.332 15.6875 11.6445 15 10.832 15H8.83203C7.98828 15 7.33203 15.6875 7.33203 16.5C7.33203 16.7812 7.08203 17 6.83203 17Z" fill="white"/>
</g>
<defs>
<clipPath id="clip0_56095_135670">
<rect x="0.832031" width="24" height="24" rx="6" fill="white"/>
</clipPath>
</defs>
</svg>
