<svg width="25" height="24" viewBox="0 0 25 24" fill="none" xmlns="http://www.w3.org/2000/svg">
<g clip-path="url(#clip0_56095_267930)">
<rect x="0.5" width="24" height="24" rx="6" fill="#191A2C"/>
<path d="M16.5 7C19.25 7 21.5 9.3125 21.5 12.0312C21.5 14.7812 19.25 17 16.5 17H8.5C5.71875 17 3.5 14.7812 3.5 12C3.5 9.25 5.71875 7 8.5 7H16.5ZM16.5 16C18.6875 16 20.5 14.2188 20.5 12C20.5 9.8125 18.6875 8 16.5 8H8.5C6.28125 8 4.5 9.8125 4.5 12C4.5 14.2188 6.28125 16 8.5 16H16.5ZM16.5 9C18.1562 9 19.5 10.3438 19.5 12C19.5 13.6875 18.1562 15 16.5 15C14.8125 15 13.5 13.6875 13.5 12C13.5 10.3438 14.8125 9 16.5 9ZM16.5 14C17.5938 14 18.5 13.125 18.5 12C18.5 10.9062 17.5938 10 16.5 10C15.375 10 14.5 10.9062 14.5 12C14.5 13.125 15.375 14 16.5 14ZM16.5 11C17.0312 11 17.5 11.4688 17.5 12C17.5 12.5625 17.0312 13 16.5 13C15.9375 13 15.5 12.5625 15.5 12C15.5 11.4688 15.9375 11 16.5 11Z" fill="white"/>
</g>
<defs>
<clipPath id="clip0_56095_267930">
<rect x="0.5" width="24" height="24" rx="6" fill="white"/>
</clipPath>
</defs>
</svg>
