<svg width="25" height="24" viewBox="0 0 25 24" fill="none" xmlns="http://www.w3.org/2000/svg">
<g clip-path="url(#clip0_56095_267975)">
<rect x="0.5" width="24" height="24" rx="6" fill="#191A2C"/>
<path d="M12.5 12.25C10.0039 12.25 8 10.2461 8 7.75C8 5.28906 10.0039 3.25 12.5 3.25C14.9609 3.25 17 5.28906 17 7.75C17 10.2461 14.9609 12.25 12.5 12.25ZM12.5 4.375C10.6367 4.375 9.125 5.92188 9.125 7.75C9.125 9.61328 10.6367 11.125 12.5 11.125C14.3281 11.125 15.875 9.61328 15.875 7.75C15.875 5.92188 14.3281 4.375 12.5 4.375ZM14.2578 13.9375C17.6328 13.9375 20.375 16.6797 20.375 20.0547C20.375 20.7227 19.8125 21.25 19.1445 21.25H5.82031C5.15234 21.25 4.625 20.7227 4.625 20.0547C4.625 16.6797 7.33203 13.9375 10.707 13.9375H14.2578ZM19.1445 20.125C19.1797 20.125 19.25 20.0898 19.25 20.0547C19.25 17.3125 17 15.0625 14.2578 15.0625H10.707C7.96484 15.0625 5.75 17.3125 5.75 20.0547C5.75 20.0898 5.78516 20.125 5.82031 20.125H19.1445Z" fill="white"/>
</g>
<defs>
<clipPath id="clip0_56095_267975">
<rect x="0.5" width="24" height="24" rx="6" fill="white"/>
</clipPath>
</defs>
</svg>
