<svg width="25" height="24" viewBox="0 0 25 24" fill="none" xmlns="http://www.w3.org/2000/svg">
<g clip-path="url(#clip0_56095_117974)">
<rect x="0.5" width="24" height="24" rx="6" fill="#191A2C"/>
<path d="M22 16C22.25 16 22.5 16.25 22.5 16.5C22.5 16.7812 22.25 17 22 17H20.5C20.5 18.6562 19.125 20 17.5 20C15.8438 20 14.5 18.6562 14.5 17H10.5C10.5 18.6562 9.125 20 7.5 20C5.84375 20 4.5 18.6562 4.5 17C3.375 17 2.5 16.125 2.5 15V6C2.5 4.90625 3.375 4 4.5 4H13.5C14.5938 4 15.5 4.90625 15.5 6V7H17.5312C17.9688 7 18.375 7.21875 18.6562 7.53125L20.875 10.125C21.2812 10.5938 21.5 11.1562 21.5 11.75V16H22ZM15.5 8V11H20.2812C20.25 10.9375 20.1875 10.8438 20.125 10.7812L17.9062 8.1875C17.8125 8.09375 17.6562 8 17.5312 8H15.5ZM7.5 19C8.59375 19 9.5 18.125 9.5 17C9.5 15.9062 8.59375 15 7.5 15C6.375 15 5.5 15.9062 5.5 17C5.5 18.125 6.375 19 7.5 19ZM17.5 19C18.5938 19 19.5 18.125 19.5 17C19.5 15.9062 18.5938 15 17.5 15C16.375 15 15.5 15.9062 15.5 17C15.5 18.125 16.375 19 17.5 19ZM20.5 16V12H15.5V13C15.5 13.2812 15.25 13.5 15 13.5C14.7188 13.5 14.5 13.2812 14.5 13V6C14.5 5.46875 14.0312 5 13.5 5H4.5C3.9375 5 3.5 5.46875 3.5 6V15C3.5 15.5625 3.9375 16 4.5 16H4.65625C5.0625 14.8438 6.1875 14 7.5 14C8.78125 14 9.90625 14.8438 10.3125 16H14.6562C15.0625 14.8438 16.1875 14 17.5 14C18.7812 14 19.9062 14.8438 20.3125 16H20.5Z" fill="white"/>
</g>
<defs>
<clipPath id="clip0_56095_117974">
<rect x="0.5" width="24" height="24" rx="6" fill="white"/>
</clipPath>
</defs>
</svg>
