<svg width="24" height="24" viewBox="0 0 24 24" fill="none" xmlns="http://www.w3.org/2000/svg">
<g clip-path="url(#clip0_56095_153897)">
<rect width="24" height="24" rx="6" fill="#191A2C"/>
<path d="M7.40625 7.21875L6.71875 6.53125C6.5625 6.375 6.5 6.1875 6.5 5.96875C6.5 5.625 6.71875 5.3125 7.09375 5.21875C11.625 4.0625 11.8125 4.03125 11.9375 4.03125C11.9375 4.03125 11.9688 4.03125 12 4.03125L12.0312 4C12.1562 4 12.3438 4.0625 16.9062 5.21875C17.25 5.3125 17.5 5.625 17.5 5.96875C17.5 6.1875 17.4062 6.375 17.2188 6.53125L16.5312 7.21875V7.90625C16.5312 8.3125 16.3125 8.71875 15.9062 8.84375C14.75 9.28125 13.4062 9.5 11.9688 9.5C10.5312 9.5 9.1875 9.28125 8.03125 8.84375C7.65625 8.71875 7.40625 8.3125 7.40625 7.90625V7.21875ZM12 8.4375C12.25 8.21875 12.7188 7.75 12.8438 6.90625L12 6.5625L11.125 6.90625C11.25 7.75 11.7188 8.21875 12 8.4375ZM10.0625 5.5L7.6875 6.09375L8.40625 6.8125V7.90625C9.09375 8.15625 9.84375 8.34375 10.6562 8.4375C10.3438 7.9375 10.125 7.3125 10.125 6.5C10.125 6.375 10.1875 6.21875 10.3438 6.15625L11.8438 5.53125C11.875 5.53125 11.9375 5.5 12 5.5C12.0312 5.5 12.0938 5.53125 12.125 5.53125L13.625 6.15625C13.7812 6.21875 13.875 6.375 13.875 6.5C13.875 7.3125 13.625 7.9375 13.3125 8.4375C14.125 8.34375 14.9062 8.15625 15.5938 7.90625L15.5625 7.21875V6.8125L16.2812 6.09375C16.2812 6.09375 12.1562 5.0625 12 5.03125C11.8125 5.0625 11.25 5.1875 10.0625 5.5ZM15.4688 10C15.7812 10 16.0312 10.2812 15.9375 10.5938C15.6875 12.5312 13.9688 14 11.9688 14C9.96875 14 8.28125 12.5312 8 10.5938C7.9375 10.2812 8.1875 10 8.5 10C8.75 10 8.96875 10.1875 8.96875 10.4375C9.15625 11.9062 10.4375 13 11.9688 13C13.5 13 14.7812 11.9062 14.9688 10.4375C15.0312 10.1875 15.2188 10 15.4688 10ZM15 15C17.1875 15 19 16.8125 19 19C19 19.5625 18.5312 20 18 20H6C5.4375 20 5 19.5625 5 19C5 16.8125 6.78125 15 9 15H10L12 17L14 15H15ZM15.5 19H18C18 17.375 16.625 16 15 16H14.4062L12 18.4375L9.5625 16H9C7.34375 16 6 17.375 6 19H14.5V18.5H14C13.7188 18.5 13.5 18.2812 13.5 18C13.5 17.75 13.7188 17.5 14 17.5H14.5V17C14.5 16.75 14.7188 16.5 15 16.5C15.25 16.5 15.5 16.75 15.5 17V17.5H16C16.25 17.5 16.5 17.75 16.5 18C16.5 18.2812 16.25 18.5 16 18.5H15.5V19Z" fill="white"/>
</g>
<defs>
<clipPath id="clip0_56095_153897">
<rect width="24" height="24" rx="6" fill="white"/>
</clipPath>
</defs>
</svg>
