<svg viewBox="0 0 24 24" xmlns="http://www.w3.org/2000/svg">
<path style="transform: translate(-12px, -12px)" d="M30.5 21C30.75 21 31 21.25 31 21.5312C31 21.8125 30.75 22.0312 30.5 22.0312H27.5625L26.4062 27.0312H29.5C29.75 27.0312 30 27.25 30 27.5C30 27.7812 29.75 28 29.5 28H26.1875L25.4688 31.125C25.4062 31.375 25.2188 31.5 25 31.5C24.9375 31.5 24.9062 31.5 24.875 31.5C24.5938 31.4375 24.4375 31.1875 24.5 30.9062L25.1562 28H21.1875L20.4688 31.125C20.4062 31.375 20.2188 31.5 20 31.5C19.9375 31.5 19.9062 31.5 19.875 31.5C19.5938 31.4375 19.4375 31.1875 19.5 30.9062L20.1562 28H17.5C17.2188 28 17 27.7812 17 27.5C17 27.25 17.2188 27 17.5 27H20.4062L21.5625 22H18.5C18.2188 22 18 21.7812 18 21.5C18 21.25 18.2188 21 18.5 21H21.7812L22.5 17.8438C22.5625 17.5938 22.8125 17.4375 23.0938 17.5C23.375 17.5625 23.5312 17.8438 23.4688 18.0938L22.8125 21H26.7812L27.5 17.875C27.5625 17.625 27.8125 17.4688 28.0938 17.5312C28.375 17.5938 28.5312 17.8438 28.4688 18.125L27.8125 21H30.5ZM25.4062 27L26.5625 22H22.5625L21.4062 27H25.4062Z" />
</svg>
