<svg width="25" height="21" viewBox="0 0 25 21" xmlns="http://www.w3.org/2000/svg">
<path d="M1.40625 8C0.625 8 0 7.375 0 6.59375C0 6.28125 0.078125 6.00781 0.234375 5.77344L3.16406 1.35938C3.51562 0.8125 4.10156 0.5 4.72656 0.5H20.2344C20.8594 0.5 21.4453 0.8125 21.7969 1.35938L24.7266 5.77344C24.8828 6.00781 25 6.28125 25 6.59375C25 7.375 24.3359 8 23.5547 8H1.40625ZM2.5 9.25H5V15.5H12.5V9.25H15V15.5V18.625C15 19.6797 14.1406 20.5 13.125 20.5H4.375C3.32031 20.5 2.5 19.6797 2.5 18.625V15.5V9.25ZM20 9.25H22.5V19.25C22.5 19.9531 21.9141 20.5 21.25 20.5C20.5469 20.5 20 19.9531 20 19.25V9.25Z"/>
</svg>
