<svg width="25" height="21" viewBox="0 0 25 21" xmlns="http://www.w3.org/2000/svg">
<path d="M0 7.76562C0 7.53125 0.0390625 7.29688 0.15625 7.0625L3.20312 1.47656C3.51562 0.890625 4.14062 0.5 4.84375 0.5H20.1172C20.8203 0.5 21.4453 0.890625 21.7578 1.47656L24.8047 7.0625C24.9219 7.25781 25 7.53125 25 7.76562C25 8.58594 24.2969 9.25 23.4766 9.25H22.5V19.875C22.5 20.2266 22.1875 20.5 21.875 20.5C21.5234 20.5 21.25 20.2266 21.25 19.875V9.25H3.75V14.25H13.75V11.125V10.5H15V11.125V18.625C15 19.6797 14.1406 20.5 13.125 20.5H4.375C3.32031 20.5 2.5 19.6797 2.5 18.625V9.25H1.48438C0.664062 9.25 0 8.58594 0 7.76562ZM3.125 8H21.875H23.4766C23.6328 8 23.75 7.92188 23.75 7.76562C23.75 7.72656 23.7109 7.6875 23.7109 7.64844L20.6641 2.10156C20.5469 1.90625 20.3516 1.75 20.1172 1.75H4.84375C4.60938 1.75 4.41406 1.90625 4.29688 2.10156L1.25 7.64844C1.25 7.6875 1.25 7.72656 1.25 7.76562C1.25 7.92188 1.32812 8 1.48438 8H3.125ZM3.75 18.625C3.75 18.9766 4.02344 19.25 4.375 19.25H13.125C13.4375 19.25 13.75 18.9766 13.75 18.625V15.5H3.75V18.625Z"/>
</svg>
