<svg width="24" height="24" viewBox="0 0 24 24" xmlns="http://www.w3.org/2000/svg">
<path d="M14 16.25C13.6484 16.25 13.375 15.9766 13.375 15.625C13.375 15.3125 13.6484 15 14 15H19C19.3125 15 19.625 15.3125 19.625 15.625C19.625 15.9766 19.3125 16.25 19 16.25H14ZM20.25 3.75C21.6172 3.75 22.75 4.88281 22.75 6.25V18.75C22.75 20.1562 21.6172 21.25 20.25 21.25H2.75C1.34375 21.25 0.25 20.1562 0.25 18.75V6.25C0.25 4.88281 1.34375 3.75 2.75 3.75H20.25ZM21.5 18.75V7.5H1.5V18.75C1.5 19.4531 2.04688 20 2.75 20H20.25C20.9141 20 21.5 19.4531 21.5 18.75ZM1.5 6.25H21.5C21.5 5.58594 20.9141 5 20.25 5H2.75C2.04688 5 1.5 5.58594 1.5 6.25ZM14 11.25C13.6484 11.25 13.375 10.9766 13.375 10.625C13.375 10.3125 13.6484 10 14 10H19C19.3125 10 19.625 10.3125 19.625 10.625C19.625 10.9766 19.3125 11.25 19 11.25H14ZM14 13.75C13.6484 13.75 13.375 13.4766 13.375 13.125C13.375 12.8125 13.6484 12.5 14 12.5H19C19.3125 12.5 19.625 12.8125 19.625 13.125C19.625 13.4766 19.3125 13.75 19 13.75H14ZM7.75 13.75C6.34375 13.75 5.25 12.6562 5.25 11.25C5.25 9.88281 6.34375 8.75 7.75 8.75C9.11719 8.75 10.25 9.88281 10.25 11.25C10.25 12.6562 9.11719 13.75 7.75 13.75ZM7.75 10C7.04688 10 6.5 10.5859 6.5 11.25C6.5 11.9531 7.04688 12.5 7.75 12.5C8.41406 12.5 9 11.9531 9 11.25C9 10.5859 8.41406 10 7.75 10ZM4 18.75C3.64844 18.75 3.375 18.4766 3.375 18.125C3.375 16.4062 4.74219 15 6.5 15H9C10.7188 15 12.125 16.4062 12.125 18.125C12.125 18.4766 11.8125 18.75 11.5 18.75C11.1484 18.75 10.875 18.4766 10.875 18.125C10.875 17.1094 10.0156 16.25 9 16.25H6.5C5.44531 16.25 4.625 17.1094 4.625 18.125C4.625 18.4766 4.3125 18.75 4 18.75Z" />
</svg>
