<svg width="24" height="24" viewBox="0 0 24 24" fill="none" xmlns="http://www.w3.org/2000/svg">
<path d="M9.5 9.375C9.5 10 9.57812 10.5469 9.73438 11.0938C9.8125 11.3281 9.77344 11.5625 9.57812 11.7188L3.25 18.0859V21.25H7V19.375C7 19.0625 7.27344 18.75 7.625 18.75H9.5V16.875C9.5 16.5625 9.77344 16.25 10.125 16.25H12.0391L13.25 15.0391C13.4062 14.8828 13.6406 14.8438 13.8359 14.8828C14.2656 14.9609 14.6562 15 15.125 15C18.2109 15 20.75 12.5 20.75 9.375C20.75 6.28906 18.2109 3.75 15.125 3.75C12 3.75 9.5 6.28906 9.5 9.375ZM15.125 2.5C18.9141 2.5 22 5.58594 22 9.375C22 13.2031 18.9141 16.25 15.125 16.25C14.6953 16.25 14.3047 16.25 13.9141 16.1719L12.7422 17.3438C12.625 17.4609 12.4688 17.5 12.3125 17.5H10.75V19.375C10.75 19.7266 10.4375 20 10.125 20H8.25V21.875C8.25 22.2266 7.9375 22.5 7.625 22.5H2.625C2.27344 22.5 2 22.2266 2 21.875V17.8125C2 17.6562 2.03906 17.5 2.15625 17.3828L8.44531 11.0938C8.28906 10.5469 8.25 10 8.25 9.375C8.25 5.58594 11.2969 2.5 15.125 2.5ZM16.375 9.0625C15.8281 9.0625 15.4375 8.67188 15.4375 8.125C15.4375 7.61719 15.8281 7.1875 16.375 7.1875C16.8828 7.1875 17.3125 7.61719 17.3125 8.125C17.3125 8.67188 16.8828 9.0625 16.375 9.0625Z" fill="#46464F"/>
</svg>
