<svg width="19" height="17" viewBox="0 0 19 17" xmlns="http://www.w3.org/2000/svg">
<path d="M11.5 10.5C12.0312 10.5 12.5 10.9688 12.5 11.5V12.5C12.5 13.0625 12.0312 13.5 11.5 13.5H10.5C9.9375 13.5 9.5 13.0625 9.5 12.5V11.5C9.5 10.9688 9.9375 10.5 10.5 10.5H11.5ZM11.5 12.5V11.5H10.5V12.5H11.5ZM11.5 6.5C12.0312 6.5 12.5 6.96875 12.5 7.5V8.5C12.5 9.0625 12.0312 9.5 11.5 9.5H10.5C9.9375 9.5 9.5 9.0625 9.5 8.5V7.5C9.5 6.96875 9.9375 6.5 10.5 6.5H11.5ZM11.5 8.5V7.5H10.5V8.5H11.5ZM15.5 10.5C16.0312 10.5 16.5 10.9688 16.5 11.5V12.5C16.5 13.0625 16.0312 13.5 15.5 13.5H14.5C13.9375 13.5 13.5 13.0625 13.5 12.5V11.5C13.5 10.9688 13.9375 10.5 14.5 10.5H15.5ZM15.5 12.5V11.5H14.5V12.5H15.5ZM15.5 6.5C16.0312 6.5 16.5 6.96875 16.5 7.5V8.5C16.5 9.0625 16.0312 9.5 15.5 9.5H14.5C13.9375 9.5 13.5 9.0625 13.5 8.5V7.5C13.5 6.96875 13.9375 6.5 14.5 6.5H15.5ZM15.5 8.5V7.5H14.5V8.5H15.5ZM16.5 1.5C17.5938 1.5 18.5 2.40625 18.5 3.5V14.5C18.5 15.625 17.5938 16.5 16.5 16.5H2.5C1.375 16.5 0.5 15.625 0.5 14.5V3.5C0.5 2.40625 1.375 1.5 2.5 1.5H3.09375C3.28125 0.9375 3.84375 0.5 4.5 0.5H6.5C7.125 0.5 7.6875 0.9375 7.90625 1.5H16.5ZM10.5 2.5V4.5H15.5V2.5H10.5ZM4 2V12.5C4 12.7812 4.21875 13 4.5 13H6.5C6.75 13 7 12.7812 7 12.5V2C7 1.75 6.75 1.5 6.5 1.5H4.5C4.21875 1.5 4 1.75 4 2ZM17.5 14.5V3.5C17.5 2.96875 17.0312 2.5 16.5 2.5V4.5C16.5 5.0625 16.0312 5.5 15.5 5.5H10.5C9.9375 5.5 9.5 5.0625 9.5 4.5V2.5H8V12.5C8 13.3438 7.3125 14 6.5 14H4.5C3.65625 14 3 13.3438 3 12.5V2.5H2.5C1.9375 2.5 1.5 2.96875 1.5 3.5V14.5C1.5 15.0625 1.9375 15.5 2.5 15.5H16.5C17.0312 15.5 17.5 15.0625 17.5 14.5Z"/>
</svg>
