<svg viewBox="0 0 24 24" xmlns="http://www.w3.org/2000/svg">
<path style="transform: translate(3px, 5px)" d="M14.6667 0C15.7604 0 16.6667 0.90625 16.6667 2V12C16.6667 13.125 15.7604 14 14.6667 14H2.66666C1.54166 14 0.666656 13.125 0.666656 12V2C0.666656 0.90625 1.54166 0 2.66666 0H14.6667ZM4.66666 13V1H2.66666C2.10416 1 1.66666 1.46875 1.66666 2V12C1.66666 12.5625 2.10416 13 2.66666 13H4.66666ZM15.6667 12V7.5H5.66666V13H14.6667C15.1979 13 15.6667 12.5625 15.6667 12ZM15.6667 6.5V2C15.6667 1.46875 15.1979 1 14.6667 1H5.66666V6.5H15.6667Z"/>
</svg>
