<svg width="25" height="24" viewBox="0 0 25 24" xmlns="http://www.w3.org/2000/svg">
<path d="M4 4.375C4.66406 4.375 5.25 4.96094 5.25 5.625V6.875C5.25 7.57812 4.66406 8.125 4 8.125H2.75C2.04688 8.125 1.5 7.57812 1.5 6.875V5.625C1.5 4.96094 2.04688 4.375 2.75 4.375H4ZM4 6.875V5.625H2.75V6.875H4ZM4 16.875C4.66406 16.875 5.25 17.4609 5.25 18.125V19.375C5.25 20.0781 4.66406 20.625 4 20.625H2.75C2.04688 20.625 1.5 20.0781 1.5 19.375V18.125C1.5 17.4609 2.04688 16.875 2.75 16.875H4ZM4 19.375V18.125H2.75V19.375H4ZM8.375 6.875C8.02344 6.875 7.75 6.60156 7.75 6.25C7.75 5.9375 8.02344 5.625 8.375 5.625H20.875C21.1875 5.625 21.5 5.9375 21.5 6.28906C21.5 6.60156 21.1875 6.875 20.875 6.875H8.375ZM20.875 11.875C21.1875 11.875 21.5 12.1875 21.5 12.5C21.5 12.8516 21.1875 13.125 20.875 13.125H8.375C8.02344 13.125 7.75 12.8516 7.75 12.5C7.75 12.1875 8.02344 11.875 8.375 11.875H20.875ZM20.875 18.125C21.1875 18.125 21.5 18.4375 21.5 18.75C21.5 19.1016 21.1875 19.375 20.875 19.375H8.375C8.02344 19.375 7.75 19.1016 7.75 18.75C7.75 18.4375 8.02344 18.125 8.375 18.125H20.875ZM4 10.625C4.66406 10.625 5.25 11.2109 5.25 11.875V13.125C5.25 13.8281 4.66406 14.375 4 14.375H2.75C2.04688 14.375 1.5 13.8281 1.5 13.125V11.875C1.5 11.2109 2.04688 10.625 2.75 10.625H4ZM4 13.125V11.875H2.75V13.125H4Z" />
</svg>
