<svg viewBox="0 0 24 24" xmlns="http://www.w3.org/2000/svg">
<path style="transform: translate(-12px, -12px)" d="M24 16.5C27.3125 16.5 30 19.1875 30 22.5C30 24.9375 29.1562 25.5938 24.5938 32.1875C24.4375 32.4062 24.2188 32.5 24 32.5C23.75 32.5 23.5312 32.4062 23.375 32.1875C18.8125 25.625 18 24.9375 18 22.5C18 19.1875 20.6562 16.5 24 16.5ZM24 31.3125C28.375 24.9688 29 24.5 29 22.5C29 19.75 26.75 17.5 24 17.5C21.2188 17.5 19 19.75 19 22.5C19 24.5 19.5938 25 24 31.3125ZM26.125 21C26.3125 20.8125 26.6562 20.8125 26.8438 21C27.0312 21.1875 27.0312 21.5 26.8438 21.6875L23.5 25.0312C23.4062 25.125 23.2812 25.1875 23.1562 25.1875C23.0312 25.1875 22.9062 25.125 22.8125 25.0312L21.125 23.375C20.9375 23.1875 20.9375 22.8438 21.125 22.6562C21.3125 22.4688 21.6562 22.4688 21.8438 22.6562L23.1562 23.9688L26.125 21Z" />
</svg>
