<svg width="12" height="16" viewBox="0 0 12 16" xmlns="http://www.w3.org/2000/svg">
<path d="M6 0C9.3125 0 12 2.6875 12 6C12 8.4375 11.1562 9.09375 6.59375 15.6875C6.4375 15.9062 6.21875 16 6 16C5.75 16 5.53125 15.9062 5.375 15.6875C0.8125 9.125 0 8.4375 0 6C0 2.6875 2.65625 0 6 0ZM6 14.8125C10.375 8.46875 11 8 11 6C11 3.25 8.75 1 6 1C3.21875 1 1 3.25 1 6C1 8 1.59375 8.5 6 14.8125ZM6 3.5C7.375 3.5 8.5 4.59375 8.5 6C8.5 7.375 7.375 8.5 6 8.5C4.59375 8.5 3.5 7.375 3.5 6C3.5 4.59375 4.59375 3.5 6 3.5ZM6 7.5C6.8125 7.5 7.5 6.8125 7.5 6C7.5 5.15625 6.8125 4.5 6 4.5C5.15625 4.5 4.5 5.15625 4.5 6C4.5 6.8125 5.15625 7.5 6 7.5Z"/>
</svg>
