<svg width="20" height="19" viewBox="0 0 20 19" xmlns="http://www.w3.org/2000/svg">
<path d="M19.8047 9.07031C19.9219 9.1875 20 9.34375 20 9.5C20 9.69531 19.9219 9.85156 19.8047 9.96875L14.1797 15.5938C13.9453 15.8281 13.5156 15.8281 13.2812 15.5938C13.0469 15.3594 13.0469 14.9297 13.2812 14.6953L17.8516 10.125H6.875C6.52344 10.125 6.25 9.85156 6.25 9.5C6.25 9.1875 6.52344 8.875 6.875 8.875H17.8516L13.2812 4.34375C13.0469 4.10938 13.0469 3.67969 13.2812 3.44531C13.5156 3.21094 13.9453 3.21094 14.1797 3.44531L19.8047 9.07031ZM6.875 17C7.1875 17 7.5 17.3125 7.5 17.625C7.5 17.9766 7.1875 18.25 6.875 18.25H3.125C1.36719 18.25 0 16.8828 0 15.125V3.875C0 2.15625 1.36719 0.75 3.125 0.75H6.875C7.1875 0.75 7.5 1.0625 7.5 1.375C7.5 1.72656 7.1875 2 6.875 2H3.125C2.07031 2 1.25 2.85938 1.25 3.875V15.125C1.25 16.1797 2.07031 17 3.125 17H6.875Z" />
</svg>
