<svg viewBox="0 0 24 24" xmlns="http://www.w3.org/2000/svg">
<path style="transform: translate(5px, 4px)" d="M12 0C13.0938 0 14 0.90625 14 2V11C14 12.125 13.0938 13 12 13H10.625L11.75 14.375C12 14.6875 12.0625 15.0938 11.875 15.4375C11.7188 15.7812 11.375 16 10.9688 16H3C2.59375 16 2.25 15.7812 2.09375 15.4375C1.90625 15.0938 1.96875 14.6875 2.21875 14.375L3.34375 13H2C0.875 13 0 12.125 0 11V2C0 0.90625 0.875 0 2 0H12ZM10.9688 15L9.3125 13H4.65625L3 15H10.9688ZM13 11V2C13 1.46875 12.5312 1 12 1H2C1.4375 1 1 1.46875 1 2V11C1 11.5625 1.4375 12 2 12H12C12.5312 12 13 11.5625 13 11ZM7 2.5C9.1875 2.5 11 4.3125 11 6.5C11 8.71875 9.1875 10.5 7 10.5C4.8125 10.5 3 8.71875 3 6.5C3 4.3125 4.78125 2.5 7 2.5ZM7 9.5C8.625 9.5 10 8.15625 10 6.5C10 4.875 8.625 3.5 7 3.5C5.34375 3.5 4 4.875 4 6.5C4 8.15625 5.34375 9.5 7 9.5Z" />
</svg>
