<svg width="12" height="17" viewBox="0 0 12 17" xmlns="http://www.w3.org/2000/svg">
<path d="M11 14.5V6.5H7.5C6.65625 6.5 6 5.84375 6 5V1.5H2C1.4375 1.5 1 1.96875 1 2.5V14.5C1 15.0625 1.4375 15.5 2 15.5H10C10.5312 15.5 11 15.0625 11 14.5ZM10.9688 5.5C10.9375 5.4375 10.9062 5.34375 10.8438 5.28125L7.21875 1.65625C7.15625 1.59375 7.0625 1.5625 7 1.53125V5C7 5.28125 7.21875 5.5 7.5 5.5H10.9688ZM0 2.5C0 1.40625 0.875 0.5 2 0.5H6.875C7.25 0.5 7.65625 0.6875 7.9375 0.96875L11.5312 4.5625C11.8125 4.84375 12 5.25 12 5.625V14.5C12 15.625 11.0938 16.5 10 16.5H2C0.875 16.5 0 15.625 0 14.5V2.5Z"/>
</svg>
