<svg width="24" height="24" viewBox="0 0 24 24" xmlns="http://www.w3.org/2000/svg">
<path d="M8.125 8.75C7.77344 8.75 7.5 8.47656 7.5 8.125C7.5 7.8125 7.77344 7.5 8.125 7.5H10.625C10.9375 7.5 11.25 7.8125 11.25 8.125C11.25 8.47656 10.9375 8.75 10.625 8.75H8.125ZM8.125 6.25C7.77344 6.25 7.5 5.97656 7.5 5.625C7.5 5.3125 7.77344 5 8.125 5H10.625C10.9375 5 11.25 5.3125 11.25 5.625C11.25 5.97656 10.9375 6.25 10.625 6.25H8.125ZM19.2578 7.42188C19.7266 7.89062 20 8.51562 20 9.17969V20C20 21.4062 18.8672 22.5 17.5 22.5H7.5C6.09375 22.5 5 21.4062 5 20V5C5 3.63281 6.09375 2.5 7.5 2.5H13.3203C13.9844 2.5 14.6094 2.77344 15.0781 3.24219L19.2578 7.42188ZM13.75 3.86719V8.125C13.75 8.47656 14.0234 8.75 14.375 8.75H18.6328C18.5938 8.59375 18.5156 8.4375 18.3594 8.28125L14.2188 4.14062C14.0625 3.98438 13.9062 3.90625 13.75 3.86719ZM18.75 20V10H14.375C13.3203 10 12.5 9.17969 12.5 8.125V3.75H7.5C6.79688 3.75 6.25 4.33594 6.25 5V20C6.25 20.7031 6.79688 21.25 7.5 21.25H17.5C18.1641 21.25 18.75 20.7031 18.75 20ZM7.5 13.125C7.5 12.4609 8.04688 11.875 8.75 11.875H16.25C16.9141 11.875 17.5 12.4609 17.5 13.125V15.625C17.5 16.3281 16.9141 16.875 16.25 16.875H8.75C8.04688 16.875 7.5 16.3281 7.5 15.625V13.125ZM16.25 15.625V13.125H8.75V15.625H16.25ZM16.875 18.75C17.1875 18.75 17.5 19.0625 17.5 19.375C17.5 19.7266 17.1875 20 16.875 20H14.375C14.0234 20 13.75 19.7266 13.75 19.375C13.75 19.0625 14.0234 18.75 14.375 18.75H16.875Z" />
</svg>
