<svg width="24" height="24" viewBox="0 0 24 24" xmlns="http://www.w3.org/2000/svg">
<path d="M15 2.5L20 7.5H15V2.5ZM16.25 12.5V15H8.75V12.5H16.25ZM13.75 7.5C13.75 8.20312 14.2969 8.75 15 8.75H20V20.625C20 21.6797 19.1406 22.5 18.125 22.5H6.875C5.82031 22.5 5 21.6797 5 20.625V4.375C5 3.35938 5.82031 2.5 6.875 2.5H13.75V7.5ZM7.5 5.3125V5.9375C7.5 6.13281 7.61719 6.25 7.8125 6.25H10.9375C11.0938 6.25 11.25 6.13281 11.25 5.9375V5.3125C11.25 5.15625 11.0938 5 10.9375 5H7.8125C7.61719 5 7.5 5.15625 7.5 5.3125ZM7.5 7.8125V8.4375C7.5 8.63281 7.61719 8.75 7.8125 8.75H10.9375C11.0938 8.75 11.25 8.63281 11.25 8.4375V7.8125C11.25 7.65625 11.0938 7.5 10.9375 7.5H7.8125C7.61719 7.5 7.5 7.65625 7.5 7.8125ZM17.5 19.6875V19.0625C17.5 18.9062 17.3438 18.75 17.1875 18.75H14.0625C13.8672 18.75 13.75 18.9062 13.75 19.0625V19.6875C13.75 19.8828 13.8672 20 14.0625 20H17.1875C17.3438 20 17.5 19.8828 17.5 19.6875ZM17.5 11.875C17.5 11.5625 17.1875 11.25 16.875 11.25H8.125C7.77344 11.25 7.5 11.5625 7.5 11.875V15.625C7.5 15.9766 7.77344 16.25 8.125 16.25H16.875C17.1875 16.25 17.5 15.9766 17.5 15.625V11.875Z" />
</svg>
