<svg width="24" height="24" viewBox="0 0 24 24" xmlns="http://www.w3.org/2000/svg">
<path d="M7.25 6.5V9H14.75V6.5C14.75 4.42969 13.0703 2.75 11 2.75C8.92969 2.75 7.25 4.42969 7.25 6.5ZM6 9V6.5C6 3.76562 8.22656 1.5 11 1.5C13.7344 1.5 16 3.76562 16 6.5V9H16.625C18.3438 9 19.75 10.4062 19.75 12.125V18.375C19.75 20.1328 18.3438 21.5 16.625 21.5H5.375C3.61719 21.5 2.25 20.1328 2.25 18.375V12.125C2.25 10.4062 3.61719 9 5.375 9H6ZM3.5 12.125V18.375C3.5 19.4297 4.32031 20.25 5.375 20.25H16.625C17.6406 20.25 18.5 19.4297 18.5 18.375V12.125C18.5 11.1094 17.6406 10.25 16.625 10.25H5.375C4.32031 10.25 3.5 11.1094 3.5 12.125Z" />
</svg>
