<svg width="17" height="17" viewBox="0 0 17 17" xmlns="http://www.w3.org/2000/svg">
<path d="M15.125 10.8438C15.75 11.125 16.0938 11.8125 15.9375 12.4688L15.2812 15.4062C15.125 16.0625 14.5625 16.5 13.875 16.5C6.21875 16.5 0 10.2812 0 2.625C0 1.9375 0.4375 1.375 1.09375 1.25L4.03125 0.5625C4.6875 0.40625 5.375 0.75 5.65625 1.375L7 4.5625C7.25 5.125 7.09375 5.8125 6.625 6.21875L5.34375 7.25C6.25 8.875 7.625 10.25 9.25 11.1562L10.3125 9.90625C10.6875 9.40625 11.375 9.25 11.9375 9.46875L15.125 10.8438ZM14.2812 15.1875L14.9688 12.25C15.0312 12.0312 14.9062 11.8438 14.7188 11.75L11.5625 10.4062C11.375 10.3438 11.1875 10.375 11.0625 10.5312L9.78125 12.0938C9.625 12.2812 9.375 12.3438 9.1875 12.2188C7.0625 11.1875 5.3125 9.4375 4.28125 7.34375C4.15625 7.125 4.21875 6.875 4.40625 6.71875L5.96875 5.4375C6.125 5.3125 6.15625 5.125 6.09375 4.9375L4.75 1.78125C4.65625 1.625 4.5 1.5 4.34375 1.5C4.3125 1.5 4.28125 1.53125 4.25 1.53125L1.3125 2.21875C1.125 2.25 1 2.40625 1 2.625C1 9.71875 6.78125 15.5312 13.875 15.5312C14.0938 15.5312 14.25 15.375 14.2812 15.1875Z"/>
</svg>
