<svg width="18" height="19" viewBox="0 0 18 19" fill="none" xmlns="http://www.w3.org/2000/svg">
<path d="M3.1875 2.11719C2.99219 2 2.75781 2 2.5625 2.07812C2.36719 2.19531 2.21094 2.42969 2.21094 2.625V16.375C2.21094 16.6094 2.36719 16.8438 2.5625 16.9219C2.75781 17.0391 2.99219 17.0391 3.1875 16.9219L14.4375 10.0469C14.6328 9.92969 14.75 9.73438 14.75 9.5C14.75 9.30469 14.6328 9.10938 14.4375 8.99219L3.1875 2.11719ZM1.9375 1.02344C2.52344 0.671875 3.26562 0.671875 3.85156 1.02344L15.1016 7.89844C15.6484 8.25 16 8.875 16 9.5C16 10.1641 15.6484 10.7891 15.1016 11.1016L3.85156 17.9766C3.26562 18.3672 2.52344 18.3672 1.9375 18.0156C1.35156 17.7031 1 17.0781 1 16.375V2.625C1 1.96094 1.35156 1.33594 1.9375 1.02344Z" fill="white"/>
</svg>
