<svg viewBox="0 0 24 24" xmlns="http://www.w3.org/2000/svg">
<path style="transform: translate(-8px, -8px)" d="M24.0234 12.7656C26.9141 14.2891 28.75 17.2578 28.75 20.5C28.75 25.3438 24.8047 29.25 20 29.25C15.1562 29.25 11.25 25.3438 11.25 20.5C11.25 17.2578 13.0469 14.2891 15.9375 12.7656C16.25 12.6094 16.6406 12.7266 16.7969 13.0391C16.9531 13.3125 16.8359 13.7031 16.5234 13.8594C14.0234 15.1484 12.5 17.7266 12.5 20.5C12.5 24.6406 15.8594 28 20 28C24.1016 28 27.5 24.6406 27.5 20.5C27.5 17.7266 25.9375 15.1484 23.4375 13.8594C23.125 13.7031 23.0078 13.3125 23.1641 13.0391C23.3203 12.7266 23.7109 12.6094 24.0234 12.7656ZM19.9609 21.75C19.6484 21.75 19.375 21.4766 19.375 21.125V11.125C19.375 10.8125 19.6875 10.5 20 10.5C20.3125 10.5 20.625 10.8125 20.625 11.125V21.125C20.625 21.4766 20.3125 21.75 19.9609 21.75Z" />
</svg>
