<svg viewBox="0 0 24 24" xmlns="http://www.w3.org/2000/svg">
<path style="transform: translate(4px, 4px)" d="M3.46875 1.5L3.5 5H2V4.09375V1.5C2 0.6875 2.65625 0 3.46875 0H11.4375C11.8125 0 12.2188 0.1875 12.5 0.46875L13.5312 1.5C13.8125 1.78125 14 2.1875 14 2.5625V5H12.5V2.5625L11.4062 1.5H3.46875ZM13.75 6C14.9688 6 16 7.03125 16 8.25V11.75C16 12.1875 15.6562 12.5 15.25 12.5H13.5V15C13.5 15.5625 13.0312 16 12.5 16H3.5C2.9375 16 2.5 15.5625 2.5 15V12.5H0.75C0.3125 12.5 0 12.1875 0 11.75V8.25C0 7.03125 1 6 2.25 6H13.75ZM12 14.5V11.5H4V14.5H12ZM14.5 11V8.25C14.5 7.84375 14.1562 7.5 13.75 7.5H2.25C1.8125 7.5 1.5 7.84375 1.5 8.25V11H2.5C2.5 10.4688 2.9375 10 3.5 10H12.5C13.0312 10 13.5 10.4688 13.5 11H14.5Z" />
</svg>
