<svg viewBox="0 0 24 24" xmlns="http://www.w3.org/2000/svg">
<path style="transform: translate(2px, 2px)" d="M16.25 13C16.9141 13 17.5 13.5859 17.5 14.25V19.25C17.5 19.9531 16.9141 20.5 16.25 20.5H3.75C3.04688 20.5 2.5 19.9531 2.5 19.25V14.25C2.5 13.5859 3.04688 13 3.75 13H16.25ZM16.25 19.25V14.25H3.75V19.25H16.25ZM17.5 8C18.8672 8 20 9.13281 20 10.5V14.875C20 15.2266 19.6875 15.5 19.375 15.5C19.0234 15.5 18.75 15.2266 18.75 14.875V10.5C18.75 9.83594 18.1641 9.25 17.5 9.25H2.5C1.79688 9.25 1.25 9.83594 1.25 10.5V14.875C1.25 15.2266 0.9375 15.5 0.625 15.5C0.273438 15.5 0 15.2266 0 14.875V10.5C0 9.13281 1.09375 8 2.5 8V3C2.5 1.63281 3.59375 0.5 5 0.5H14.7266C15.0391 0.5 15.3516 0.65625 15.5859 0.890625L17.1094 2.375C17.3438 2.60938 17.5 2.96094 17.5 3.27344V8ZM16.25 8V3.27344L14.7266 1.75H5C4.29688 1.75 3.75 2.33594 3.75 3V8H16.25ZM16.875 10.1875C17.3828 10.1875 17.8125 10.6172 17.8125 11.125C17.8125 11.6719 17.3828 12.0625 16.875 12.0625C16.3281 12.0625 15.9375 11.6719 15.9375 11.125C15.9375 10.6172 16.3281 10.1875 16.875 10.1875Z" />
</svg>
