<svg width="24" height="24" viewBox="0 0 24 24" xmlns="http://www.w3.org/2000/svg">
<path style="transform: translate(0.5px)" d="M11.5 2.5C17.0078 2.5 21.5 6.99219 21.5 12.5C21.5 18.0469 17.0078 22.5 11.5 22.5C5.95312 22.5 1.5 18.0469 1.5 12.5C1.5 6.99219 5.95312 2.5 11.5 2.5ZM11.5 21.25C16.3047 21.25 20.25 17.3438 20.25 12.5C20.25 7.69531 16.3047 3.75 11.5 3.75C6.65625 3.75 2.75 7.69531 2.75 12.5C2.75 17.3438 6.65625 21.25 11.5 21.25ZM10.875 15.9375C11.3828 15.9375 11.8125 16.3672 11.8125 16.875C11.8125 17.4219 11.3828 17.8125 10.875 17.8125C10.3281 17.8125 9.9375 17.4219 9.9375 16.875C9.9375 16.3672 10.3281 15.9375 10.875 15.9375ZM12.6328 7.5C14.0781 7.5 15.25 8.67188 15.25 10.1172C15.25 11.0547 14.7031 11.9141 13.8828 12.3828L11.5391 13.5547C11.5 13.5938 11.5 13.6328 11.5 13.6719V14.375C11.5 14.7266 11.1875 15 10.875 15C10.5234 15 10.25 14.7266 10.25 14.375V13.6719C10.25 13.1641 10.5234 12.6953 10.9531 12.4609L13.2969 11.2891C13.7266 11.0547 14 10.5859 14 10.1172C14 9.375 13.375 8.75 12.6328 8.75H10.3281C9.58594 8.75 9 9.375 9 10.1172V10.4688C9 10.8203 8.6875 11.0938 8.375 11.0938C8.02344 11.0938 7.75 10.8203 7.75 10.4688V10.1172C7.75 8.67188 8.88281 7.5 10.3281 7.5H12.6328Z" />
</svg>
