<svg width="24" height="24" viewBox="0 0 24 24" fill="none" xmlns="http://www.w3.org/2000/svg">
<path d="M7.5 2.5H13.75V7.5C13.75 8.20312 14.2969 8.75 15 8.75H20V20C20 21.4062 18.8672 22.5 17.5 22.5H7.5C6.09375 22.5 5 21.4062 5 20V5C5 3.63281 6.09375 2.5 7.5 2.5ZM15 2.5L20 7.5H15V2.5ZM13.4375 12.1875C13.4375 11.6797 13.0078 11.25 12.5 11.25C11.9531 11.25 11.5625 11.6797 11.5625 12.1875V19.0625C11.5625 19.6094 11.9531 20 12.5 20C13.0078 20 13.4375 19.6094 13.4375 19.0625V12.1875ZM16.875 14.6875C16.875 14.1797 16.4453 13.75 15.9375 13.75C15.3906 13.75 15 14.1797 15 14.6875V19.0625C15 19.6094 15.3906 20 15.9375 20C16.4453 20 16.875 19.6094 16.875 19.0625V14.6875ZM10 17.1875C10 16.6797 9.57031 16.25 9.0625 16.25C8.51562 16.25 8.125 16.6797 8.125 17.1875V19.0625C8.125 19.6094 8.51562 20 9.0625 20C9.57031 20 10 19.6094 10 19.0625V17.1875Z" fill="#414BDC"/>
</svg>
