<svg width="24" height="24" viewBox="0 0 24 24" fill="none" xmlns="http://www.w3.org/2000/svg">
<path d="M17.5 21.25C18.1641 21.25 18.75 20.7031 18.75 20V10H14.375C13.3203 10 12.5 9.17969 12.5 8.125V3.75H7.5C6.79688 3.75 6.25 4.33594 6.25 5V20C6.25 20.7031 6.79688 21.25 7.5 21.25H17.5ZM14.375 8.75H18.7109C18.6719 8.67188 18.6328 8.55469 18.5547 8.47656L14.0234 3.94531C13.9453 3.86719 13.8281 3.82812 13.75 3.78906V8.125C13.75 8.47656 14.0234 8.75 14.375 8.75ZM7.5 2.5H13.5938C14.0625 2.5 14.5703 2.73438 14.9219 3.08594L19.4141 7.57812C19.7656 7.92969 20 8.4375 20 8.90625V20C20 21.4062 18.8672 22.5 17.5 22.5H7.5C6.09375 22.5 5 21.4062 5 20V5C5 3.63281 6.09375 2.5 7.5 2.5ZM13.125 11.875V19.375C13.125 19.7266 12.8125 20 12.5 20C12.1484 20 11.875 19.7266 11.875 19.375V11.875C11.875 11.5625 12.1484 11.25 12.5 11.25C12.8125 11.25 13.125 11.5625 13.125 11.875ZM16.875 14.375V19.375C16.875 19.7266 16.5625 20 16.25 20C15.8984 20 15.625 19.7266 15.625 19.375V14.375C15.625 14.0625 15.8984 13.75 16.25 13.75C16.5625 13.75 16.875 14.0625 16.875 14.375ZM9.375 16.875V19.375C9.375 19.7266 9.0625 20 8.75 20C8.39844 20 8.125 19.7266 8.125 19.375V16.875C8.125 16.5625 8.39844 16.25 8.75 16.25C9.0625 16.25 9.375 16.5625 9.375 16.875Z" fill="#46464F"/>
</svg>
