<svg width="24" height="24" viewBox="0 0 24 24" xmlns="http://www.w3.org/2000/svg">
<path d="M18.25 3.75H5.75C4.34375 3.75 3.25 4.88281 3.25 6.25V18.75C3.25 20.1562 4.34375 21.25 5.75 21.25H18.25C19.6172 21.25 20.75 20.1562 20.75 18.75V6.25C20.75 4.88281 19.6172 3.75 18.25 3.75ZM19.5 18.75C19.5 19.4531 18.9141 20 18.25 20H5.75C5.04688 20 4.5 19.4531 4.5 18.75V6.25C4.5 5.58594 5.04688 5 5.75 5H18.25C18.9141 5 19.5 5.58594 19.5 6.25V18.75ZM17 6.25H12C11.6484 6.25 11.375 6.5625 11.375 6.875V10.7422C10.6328 11.0156 10.125 11.7188 10.125 12.5C10.125 13.5547 10.9453 14.375 12 14.375C13.0156 14.375 13.875 13.5547 13.875 12.5C13.875 11.7188 13.3281 11.0156 12.625 10.7422V7.5H17V17.5H7V7.5H8.875C9.1875 7.5 9.5 7.22656 9.5 6.875C9.5 6.5625 9.1875 6.25 8.875 6.25H7C6.29688 6.25 5.75 6.83594 5.75 7.5V17.5C5.75 18.2031 6.29688 18.75 7 18.75H17C17.6641 18.75 18.25 18.2031 18.25 17.5V7.5C18.25 6.83594 17.6641 6.25 17 6.25ZM12 13.125C11.6484 13.125 11.375 12.8516 11.375 12.5C11.375 12.1875 11.6484 11.875 12 11.875C12.3125 11.875 12.625 12.1875 12.625 12.5C12.625 12.8516 12.3125 13.125 12 13.125Z" />
</svg>
