<svg width="24" height="24" viewBox="0 0 24 24" xmlns="http://www.w3.org/2000/svg">
<path d="M16.0625 14.7266C18.7969 15.625 20.75 18.2031 20.7109 21.2109C20.7109 21.9531 20.0859 22.5 19.3828 22.5H4.57812C3.875 22.5 3.25 21.9531 3.21094 21.2109C3.21094 18.2031 5.16406 15.625 7.89844 14.7266C7.97656 14.7266 8.01562 14.6875 8.09375 14.6875C8.32812 14.6875 8.5625 14.8438 8.64062 15.0781L10.0469 18.2422L11.1016 15H10.75C10.3984 15 10.125 14.7266 10.125 14.375C10.125 14.0625 10.3984 13.75 10.75 13.75H13.25C13.5625 13.75 13.875 14.0625 13.875 14.375C13.875 14.7266 13.5625 15 13.25 15H12.8594L13.9141 18.2422L15.3203 15.0781C15.3984 14.8438 15.6328 14.6875 15.8672 14.6875C15.9453 14.6875 15.9844 14.7266 16.0625 14.7266ZM4.57812 21.25H10.0078L7.74219 16.1328C5.75 17.0312 4.46094 18.9844 4.5 21.2109C4.5 21.2109 4.53906 21.25 4.57812 21.25ZM12.625 21.25L13.1719 19.9609L12 16.3672L10.7891 19.9219L11.375 21.25H12.625ZM19.3828 21.25C19.4219 21.25 19.4609 21.2109 19.5 21.2109C19.5 18.9844 18.2109 17.0312 16.2188 16.1328L13.9531 21.25H19.3828ZM12 12.5C9.22656 12.5 7 10.2734 7 7.5C7 4.76562 9.22656 2.5 12 2.5C14.7344 2.5 17 4.76562 17 7.5C17 10.2734 14.7344 12.5 12 12.5ZM12 3.75C9.92969 3.75 8.25 5.46875 8.25 7.5C8.25 9.57031 9.92969 11.25 12 11.25C14.0312 11.25 15.75 9.57031 15.75 7.5C15.75 5.46875 14.0312 3.75 12 3.75Z" />
</svg>
