<svg width="20" height="21" viewBox="0 0 20 21" xmlns="http://www.w3.org/2000/svg">
  <path d="M17.6562 6.94531C18.3203 5.8125 18.75 4.875 18.75 4.25C18.75 2.88281 17.6172 1.75 16.25 1.75C14.8438 1.75 13.75 2.88281 13.75 4.25C13.75 4.875 14.1406 5.8125 14.8047 6.94531C15.2734 7.64844 15.7812 8.35156 16.25 8.89844C16.6797 8.35156 17.1875 7.64844 17.6562 6.94531ZM16.6797 10.3047C16.5234 10.5 16.3281 10.5781 16.0938 10.5H13.125C12.0703 10.5 11.25 11.3594 11.25 12.375C11.25 13.4297 12.0703 14.25 13.125 14.25H16.875C18.5938 14.25 20 15.6562 20 17.375C20 19.1328 18.5938 20.5 16.875 20.5H5.42969C5.74219 20.1875 6.09375 19.7578 6.48438 19.25H16.875C17.8906 19.25 18.75 18.4297 18.75 17.375C18.75 16.3594 17.8906 15.5 16.875 15.5H13.125C11.3672 15.5 10 14.1328 10 12.375C10 10.6562 11.3672 9.25 13.125 9.25H14.9219C13.8672 7.84375 12.5 5.77344 12.5 4.25C12.5 2.17969 14.1797 0.5 16.25 0.5C18.3203 0.5 20 2.17969 20 4.25C20 6.24219 17.6562 9.17188 16.6797 10.3047ZM5.15625 16.8281C5.85938 15.7734 6.25 14.8359 6.25 14.25C6.25 12.8828 5.11719 11.75 3.75 11.75C2.34375 11.75 1.25 12.8828 1.25 14.25C1.25 14.8359 1.60156 15.7734 2.30469 16.8281C2.77344 17.4922 3.28125 18.1562 3.75 18.6641C4.17969 18.1562 4.6875 17.4922 5.15625 16.8281ZM4.84375 19.2891C4.76562 19.4062 4.6875 19.4844 4.57031 19.6016C4.49219 19.6797 4.41406 19.7578 4.375 19.8359C4.29688 19.9141 4.21875 19.9922 4.14062 20.0703C3.94531 20.3047 3.55469 20.3047 3.32031 20.0703C2.30469 18.9766 0 16.2422 0 14.25C0 12.1797 1.67969 10.5 3.75 10.5C5.82031 10.5 7.5 12.1797 7.5 14.25C7.5 15.8516 5.9375 17.9609 4.84375 19.2891ZM17.1875 4.25C17.1875 4.79688 16.7578 5.1875 16.25 5.1875C15.7031 5.1875 15.3125 4.79688 15.3125 4.25C15.3125 3.74219 15.7031 3.3125 16.25 3.3125C16.7578 3.3125 17.1875 3.74219 17.1875 4.25ZM3.75 15.1875C3.20312 15.1875 2.8125 14.7969 2.8125 14.25C2.8125 13.7422 3.20312 13.3125 3.75 13.3125C4.25781 13.3125 4.6875 13.7422 4.6875 14.25C4.6875 14.7969 4.25781 15.1875 3.75 15.1875Z" />
</svg>
