<svg width="18" height="19" viewBox="0 0 18 19" fill="none" xmlns="http://www.w3.org/2000/svg">
<path d="M1.5 3.25V15.75C1.5 16.4531 2.04688 17 2.75 17H15.25C15.9141 17 16.5 16.4531 16.5 15.75V6.17969C16.5 5.82812 16.3438 5.51562 16.1094 5.28125L13.2188 2.39062C13.0625 2.23438 12.9062 2.15625 12.75 2.07812V5.75C12.75 6.45312 12.1641 7 11.5 7H4C3.29688 7 2.75 6.45312 2.75 5.75V2C2.04688 2 1.5 2.58594 1.5 3.25ZM4 2V5.75H11.5V2H4ZM0.25 3.25C0.25 1.88281 1.34375 0.75 2.75 0.75H12.3203C12.9844 0.75 13.6094 1.02344 14.0781 1.49219L17.0078 4.42188C17.4766 4.89062 17.75 5.51562 17.75 6.17969V15.75C17.75 17.1562 16.6172 18.25 15.25 18.25H2.75C1.34375 18.25 0.25 17.1562 0.25 15.75V3.25ZM10.875 12C10.875 11.3359 10.4844 10.75 9.9375 10.3984C9.35156 10.0469 8.60938 10.0469 8.0625 10.3984C7.47656 10.75 7.125 11.3359 7.125 12C7.125 12.7031 7.47656 13.2891 8.0625 13.6406C8.60938 13.9922 9.35156 13.9922 9.9375 13.6406C10.4844 13.2891 10.875 12.7031 10.875 12ZM9 8.875C10.0938 8.875 11.1094 9.5 11.6953 10.4375C12.2422 11.4141 12.2422 12.625 11.6953 13.5625C11.1094 14.5391 10.0938 15.125 9 15.125C7.86719 15.125 6.85156 14.5391 6.26562 13.5625C5.71875 12.625 5.71875 11.4141 6.26562 10.4375C6.85156 9.5 7.86719 8.875 9 8.875Z" fill="white"/>
</svg>
