<svg width="24" height="24" viewBox="0 0 24 24" xmlns="http://www.w3.org/2000/svg">
<path d="M6.29688 6.52344L5.4375 5.66406C5.28125 5.46875 5.16406 5.23438 5.16406 4.96094C5.16406 4.53125 5.47656 4.14062 5.90625 4.02344L11.6875 2.53906C11.8828 2.5 12.0781 2.5 12.2734 2.53906L18.0938 4.02344C18.4844 4.14062 18.7969 4.53125 18.7969 4.96094C18.7969 5.23438 18.7188 5.46875 18.5234 5.66406L17.6641 6.52344V7.61719C16.0625 8.32031 14.1094 8.75 12 8.75C9.85156 8.75 7.89844 8.32031 6.29688 7.61719V6.52344ZM10.7109 4.92188C10.5938 4.96094 10.5156 5.03906 10.5156 5.15625C10.5156 6.75781 11.6875 7.5 11.9609 7.5C12.3125 7.5 13.4453 6.71875 13.4453 5.15625C13.4453 5.03906 13.3672 4.96094 13.25 4.92188L12.0781 4.41406L12 4.375C11.9609 4.375 11.8828 4.41406 11.8828 4.41406L10.7109 4.92188ZM7.03906 9.25781C8.5625 9.76562 10.2422 10 12 10C13.7188 10 15.3984 9.76562 16.8438 9.25781C16.8828 9.49219 16.9219 9.76562 16.9219 10C16.9219 12.7734 14.6562 15 11.9609 15C9.22656 15 7 12.7734 7 10C7 9.76562 7 9.49219 7.03906 9.25781ZM15.75 16.25C18.4844 16.25 20.75 18.5156 20.75 21.25C20.75 21.9531 20.1641 22.5 19.5 22.5H4.5C3.79688 22.5 3.25 21.9531 3.25 21.25C3.25 18.5156 5.47656 16.25 8.25 16.25H9.5L12 18.75L14.5 16.25H15.75ZM17.2344 19.6094C17.3516 19.4922 17.2734 19.2969 17.1172 19.2969L16.2969 19.1406L15.9062 18.3984C15.8281 18.2422 15.6328 18.2422 15.5547 18.3984L15.1641 19.1406L14.3438 19.2969C14.1875 19.2969 14.1094 19.4922 14.2266 19.6094L14.8516 20.1953L14.6953 21.0547C14.6562 21.2109 14.8125 21.3281 14.9688 21.25L15.75 20.8594L16.4922 21.25C16.6094 21.3281 16.8047 21.2109 16.7656 21.0547L16.6094 20.1953L17.2344 19.6094Z" />
</svg>
