<svg width="24" height="24" viewBox="0 0 24 24" xmlns="http://www.w3.org/2000/svg">
<path d="M5.25781 6.52344L4.39844 5.66406C4.20312 5.46875 4.125 5.23438 4.125 4.96094C4.125 4.53125 4.39844 4.14062 4.86719 4.02344C10.5312 2.57812 10.7656 2.53906 10.9219 2.53906C10.9219 2.53906 10.9609 2.53906 11 2.53906L11.0391 2.5C11.1953 2.5 11.4297 2.57812 17.1328 4.02344C17.5625 4.14062 17.875 4.53125 17.875 4.96094C17.875 5.23438 17.7578 5.46875 17.5234 5.66406L16.6641 6.52344V7.38281C16.6641 7.89062 16.3906 8.39844 15.8828 8.55469C14.4375 9.10156 12.7578 9.375 10.9609 9.375C9.16406 9.375 7.48438 9.10156 6.03906 8.55469C5.57031 8.39844 5.25781 7.89062 5.25781 7.38281V6.52344ZM11 8.04688C11.3125 7.77344 11.8984 7.1875 12.0547 6.13281L11 5.70312L9.90625 6.13281C10.0625 7.1875 10.6484 7.77344 11 8.04688ZM8.57812 4.375L5.60938 5.11719L6.50781 6.01562V7.38281C7.36719 7.69531 8.30469 7.92969 9.32031 8.04688C8.92969 7.42188 8.65625 6.64062 8.65625 5.625C8.65625 5.46875 8.73438 5.27344 8.92969 5.19531L10.8047 4.41406C10.8438 4.41406 10.9219 4.375 11 4.375C11.0391 4.375 11.1172 4.41406 11.1562 4.41406L13.0312 5.19531C13.2266 5.27344 13.3438 5.46875 13.3438 5.625C13.3438 6.64062 13.0312 7.42188 12.6406 8.04688C13.6562 7.92969 14.6328 7.69531 15.4922 7.38281L15.4531 6.52344V6.01562L16.3516 5.11719C16.3516 5.11719 11.1953 3.82812 11 3.78906C10.7656 3.82812 10.0625 3.98438 8.57812 4.375ZM15.3359 10C15.7266 10 16.0391 10.3516 15.9219 10.7422C15.6094 13.1641 13.4609 15 10.9609 15C8.46094 15 6.35156 13.1641 6 10.7422C5.92188 10.3516 6.23438 10 6.625 10C6.9375 10 7.21094 10.2344 7.21094 10.5469C7.44531 12.3828 9.04688 13.75 10.9609 13.75C12.875 13.75 14.4766 12.3828 14.7109 10.5469C14.7891 10.2344 15.0234 10 15.3359 10ZM14.75 16.25C17.4844 16.25 19.75 18.5156 19.75 21.25C19.75 21.9531 19.1641 22.5 18.5 22.5H3.5C2.79688 22.5 2.25 21.9531 2.25 21.25C2.25 18.5156 4.47656 16.25 7.25 16.25H8.5L11 18.75L13.5 16.25H14.75ZM15.375 21.25H18.5C18.5 19.2188 16.7812 17.5 14.75 17.5H14.0078L11 20.5469L7.95312 17.5H7.25C5.17969 17.5 3.5 19.2188 3.5 21.25H14.125V20.625H13.5C13.1484 20.625 12.875 20.3516 12.875 20C12.875 19.6875 13.1484 19.375 13.5 19.375H14.125V18.75C14.125 18.4375 14.3984 18.125 14.75 18.125C15.0625 18.125 15.375 18.4375 15.375 18.75V19.375H16C16.3125 19.375 16.625 19.6875 16.625 20C16.625 20.3516 16.3125 20.625 16 20.625H15.375V21.25Z" />
</svg>
