<svg width="24" height="24" viewBox="0 0 24 24" xmlns="http://www.w3.org/2000/svg">
<path d="M18.5 3.75H3.5C2.09375 3.75 1 4.88281 1 6.25V8.75C1 10.1562 2.09375 11.25 3.5 11.25H18.5C19.8672 11.25 21 10.1562 21 8.75V6.25C21 4.88281 19.8672 3.75 18.5 3.75ZM19.75 8.75C19.75 9.45312 19.1641 10 18.5 10H3.5C2.79688 10 2.25 9.45312 2.25 8.75V6.25C2.25 5.58594 2.79688 5 3.5 5H18.5C19.1641 5 19.75 5.58594 19.75 6.25V8.75ZM17.25 6.5625C16.7031 6.5625 16.3125 6.99219 16.3125 7.5C16.3125 8.04688 16.7031 8.4375 17.25 8.4375C17.7578 8.4375 18.1875 8.04688 18.1875 7.5C18.1875 6.99219 17.7578 6.5625 17.25 6.5625ZM13.5 6.5625C12.9531 6.5625 12.5625 6.99219 12.5625 7.5C12.5625 8.04688 12.9531 8.4375 13.5 8.4375C14.0078 8.4375 14.4375 8.04688 14.4375 7.5C14.4375 6.99219 14.0078 6.5625 13.5 6.5625ZM18.5 13.75H3.5C2.09375 13.75 1 14.8828 1 16.25V18.75C1 20.1562 2.09375 21.25 3.5 21.25H18.5C19.8672 21.25 21 20.1562 21 18.75V16.25C21 14.8828 19.8672 13.75 18.5 13.75ZM19.75 18.75C19.75 19.4531 19.1641 20 18.5 20H3.5C2.79688 20 2.25 19.4531 2.25 18.75V16.25C2.25 15.5859 2.79688 15 3.5 15H18.5C19.1641 15 19.75 15.5859 19.75 16.25V18.75ZM17.25 16.5625C16.7031 16.5625 16.3125 16.9922 16.3125 17.5C16.3125 18.0469 16.7031 18.4375 17.25 18.4375C17.7578 18.4375 18.1875 18.0469 18.1875 17.5C18.1875 16.9922 17.7578 16.5625 17.25 16.5625ZM13.5 16.5625C12.9531 16.5625 12.5625 16.9922 12.5625 17.5C12.5625 18.0469 12.9531 18.4375 13.5 18.4375C14.0078 18.4375 14.4375 18.0469 14.4375 17.5C14.4375 16.9922 14.0078 16.5625 13.5 16.5625Z" />
</svg>
