<svg width="24" height="24" viewBox="0 0 24 24" xmlns="http://www.w3.org/2000/svg">
<path d="M21.4922 15.4688C21.4922 16.1719 19.7734 19.3359 18.9922 19.375C18.875 19.375 18.7578 19.3359 18.6797 19.2578L16.8438 18.2031C16.1406 18.7891 15.3594 19.2578 14.5 19.5703V21.6797C14.5 21.9922 14.2656 22.2266 13.9531 22.3047C13.2891 22.4609 12.5859 22.5 11.9609 22.5C11.2969 22.5 10.6328 22.4219 9.96875 22.3047C9.69531 22.2266 9.5 21.9922 9.5 21.6797V19.5703C8.60156 19.2578 7.82031 18.7891 7.11719 18.2031L5.28125 19.2578C5.20312 19.3359 5.08594 19.375 4.96875 19.375C4.10938 19.375 2.46875 16.0547 2.46875 15.4688C2.46875 15.2734 2.58594 15.0391 2.78125 14.9219L4.61719 13.9062C4.53906 13.4375 4.5 12.9688 4.5 12.5C4.5 12.0312 4.53906 11.6016 4.61719 11.1328L2.78125 10.1172C2.58594 10 2.46875 9.76562 2.46875 9.53125C2.46875 8.86719 4.1875 5.66406 4.96875 5.66406C5.08594 5.66406 5.20312 5.70312 5.28125 5.78125L7.11719 6.83594C7.82031 6.21094 8.60156 5.78125 9.5 5.46875V3.35938C9.5 3.04688 9.69531 2.8125 9.96875 2.73438C10.6328 2.57812 11.2969 2.5 12 2.5C12.6641 2.5 13.3281 2.57812 13.9922 2.73438C14.2656 2.77344 14.5 3.04688 14.5 3.35938V5.46875C15.3594 5.78125 16.1406 6.21094 16.8438 6.83594L18.6797 5.78125C18.7578 5.70312 18.875 5.66406 18.9922 5.66406C19.8516 5.66406 21.4922 8.98438 21.4922 9.53125C21.4922 9.76562 21.375 10 21.1797 10.1172L19.3438 11.1328C19.4219 11.6016 19.5 12.0703 19.5 12.5C19.5 12.9688 19.4219 13.4375 19.3438 13.9062L21.1797 14.9219C21.375 15.0391 21.4922 15.2734 21.4922 15.4688ZM12 15.625C13.7188 15.625 15.125 14.2578 15.125 12.5C15.125 10.7812 13.7188 9.375 12 9.375C10.2422 9.375 8.875 10.7812 8.875 12.5C8.875 14.2578 10.2422 15.625 12 15.625Z" />
</svg>
