<svg width="24" height="24" viewBox="0 0 24 24" xmlns="http://www.w3.org/2000/svg">
<path d="M11.9609 22.5C9.77344 22.5 8.99219 22.0703 8.99219 21.1328V19.5703C8.36719 19.3359 7.82031 18.9844 7.3125 18.6328L5.98438 19.375C5.78906 19.4922 5.59375 19.5312 5.39844 19.5312C3.95312 19.5312 2.39062 15.9375 2.39062 15.3125C2.39062 14.8828 2.625 14.4531 3.01562 14.2578L4.34375 13.4766C4.34375 13.1641 4.30469 12.8125 4.30469 12.5C4.30469 12.1484 4.34375 11.8359 4.38281 11.5234L3.05469 10.7812C2.66406 10.5859 2.42969 10.1562 2.42969 9.72656C2.42969 9.25781 3.91406 5.46875 5.39844 5.46875C5.63281 5.46875 5.82812 5.54688 6.02344 5.66406L7.35156 6.40625C7.85938 6.05469 8.40625 5.70312 8.99219 5.46875V3.90625C8.99219 2.69531 10.3984 2.5 12 2.5C13.5234 2.5 14.9297 2.69531 14.9297 3.90625V5.46875C15.5156 5.70312 16.0625 6.01562 16.5703 6.40625L17.8984 5.66406C18.0938 5.54688 18.2891 5.50781 18.5234 5.50781C19.9297 5.50781 21.4922 9.10156 21.4922 9.72656C21.4922 10.1562 21.2578 10.5859 20.8672 10.7812L19.5391 11.5625C19.5781 11.875 19.6172 12.1875 19.6172 12.5C19.6172 12.8125 19.5781 13.1641 19.5391 13.4766L20.8672 14.2578C21.2578 14.4531 21.4922 14.8828 21.4922 15.3125C21.4922 15.7812 20.0078 19.5312 18.5234 19.5312C18.2891 19.5312 18.0938 19.4922 17.8984 19.375L16.5703 18.6328C16.0625 18.9844 15.5156 19.3359 14.9297 19.5703V21.1328C14.9688 22.0703 14.1875 22.5 11.9609 22.5ZM7.46875 17.1094C8.875 18.3203 9.53906 18.4375 10.2422 18.7109V21.1328C10.8281 21.2109 11.375 21.25 11.9609 21.25C12.5469 21.25 13.1328 21.2109 13.7188 21.0938L13.6797 18.7109C14.3438 18.4766 15.0859 18.2812 16.4531 17.1094L18.5625 18.3203C19.3047 17.4609 19.8906 16.4453 20.2422 15.3125L18.2109 14.1406C18.2891 13.5547 18.3672 13.125 18.3672 12.5781C18.3672 12.1875 18.3281 11.6797 18.2109 10.8984L20.2812 9.72656C19.8906 8.63281 19.3047 7.61719 18.5234 6.71875L16.4531 7.92969C15.0859 6.71875 14.4219 6.60156 13.6797 6.32812V3.90625C13.1328 3.82812 12.5859 3.78906 12 3.78906C11.4141 3.78906 10.8281 3.82812 10.2031 3.94531L10.2422 6.32812C9.61719 6.5625 8.875 6.71875 7.46875 7.92969L5.39844 6.71875C4.65625 7.61719 4.07031 8.63281 3.67969 9.76562L5.75 10.8984C5.67188 11.4844 5.59375 11.9141 5.59375 12.4219C5.59375 12.8516 5.63281 13.3594 5.75 14.1016L3.67969 15.3125C4.07031 16.3672 4.65625 17.3828 5.4375 18.2812L7.46875 17.1094ZM12 16.25C9.92969 16.25 8.25 14.5703 8.25 12.5C8.25 10.4297 9.92969 8.75 12 8.75C14.0312 8.75 15.75 10.4297 15.75 12.5C15.75 14.5703 14.0312 16.25 12 16.25ZM12 10C10.5938 10 9.5 11.0938 9.5 12.5C9.5 13.8672 10.5938 15 12 15C13.3672 15 14.5 13.8672 14.5 12.5C14.5 11.0938 13.3672 10 12 10Z" />
</svg>
