<svg viewBox="0 0 24 24" xmlns="http://www.w3.org/2000/svg">
<path style="transform: translate(-12px, -12px)" d="M28 24.5C29.375 24.5 30.5 25.625 30.5 27V28.5C30.5 30.1562 29.125 31.5 27.5 31.5C27.2188 31.5 27 31.2812 27 31C27 30.75 27.2188 30.5 27.5 30.5C28.375 30.5 29.1562 29.9062 29.4062 29.0625C29 29.3438 28.5 29.5 28 29.5C26.5938 29.5 25.5 28.4062 25.5 27C25.5 25.625 26.5938 24.5 28 24.5ZM28 28.5C28.8125 28.5 29.5 27.8438 29.5 27C29.5 26.1875 28.8125 25.5 28 25.5C27.1562 25.5 26.5 26.1875 26.5 27C26.5 27.8438 27.1562 28.5 28 28.5ZM26.5 23.5C26.2188 23.5 26 23.2812 26 23C26 22.75 26.2188 22.5 26.5 22.5H27.5V18.5H27C26.7188 18.5 26.5 18.2812 26.5 18C26.5 17.75 26.7188 17.5 27 17.5H28C28.25 17.5 28.5 17.75 28.5 18V22.5H29.5C29.75 22.5 30 22.7812 30 23.0312C30 23.2812 29.75 23.5 29.5 23.5H26.5ZM20.3438 17.6562L23.3438 20.6562C23.5312 20.8438 23.5312 21.1875 23.3438 21.375C23.25 21.4688 23.125 21.5 23 21.5C22.8438 21.5 22.7188 21.4688 22.625 21.375L20.5 19.2188V31C20.5 31.2812 20.25 31.5 20 31.5C19.7188 31.5 19.5 31.2812 19.5 31V19.2188L17.3438 21.375C17.1562 21.5625 16.8125 21.5625 16.625 21.375C16.4375 21.1875 16.4375 20.8438 16.625 20.6562L19.625 17.6562C19.8125 17.4688 20.1562 17.4688 20.3438 17.6562Z" />
</svg>
