<svg width="27" height="24" viewBox="0 0 27 24" xmlns="http://www.w3.org/2000/svg">
<path d="M15.375 11.25C15.6875 11.25 16 11.5625 16 11.875L15.9609 20.625C15.9609 21.6406 15.1406 22.5 14.125 22.5H5.375C4.32031 22.5 3.5 21.6797 3.5 20.625V11.875C3.5 11.5625 3.77344 11.2891 4.08594 11.2891C4.4375 11.2891 4.71094 11.5625 4.71094 11.875V16.25H14.7109V11.875C14.7109 11.5625 15.0234 11.25 15.375 11.25ZM14.75 20.625V17.5H4.75V20.625C4.75 20.9766 5.02344 21.25 5.375 21.25H14.125C14.4375 21.25 14.75 20.9766 14.75 20.625ZM22.875 11.25C23.1875 11.25 23.5 11.5625 23.5 11.875L23.4609 21.875C23.4609 22.2266 23.1875 22.5 22.8359 22.5C22.5234 22.5 22.25 22.2266 22.25 21.875V11.875C22.25 11.5625 22.5234 11.25 22.875 11.25ZM25.6875 7.42188C26.0391 7.92969 26.0781 8.59375 25.7656 9.14062C25.4922 9.6875 24.9453 10 24.3203 10H2.64062C2.01562 10 1.46875 9.6875 1.19531 9.14062C0.882812 8.59375 0.921875 7.92969 1.27344 7.42188L4.04688 3.24219C4.35938 2.8125 4.86719 2.5 5.41406 2.5H21.5469C22.0938 2.5 22.6016 2.8125 22.9141 3.24219L25.6875 7.42188ZM24.3203 8.75C24.6328 8.75 24.8281 8.39844 24.6719 8.125L21.8984 3.94531C21.8203 3.82812 21.6641 3.75 21.5469 3.75H5.41406C5.29688 3.75 5.14062 3.82812 5.0625 3.94531L2.28906 8.125C2.13281 8.39844 2.32812 8.75 2.64062 8.75H24.3203Z" />
</svg>
