<svg viewBox="0 0 24 24.5" xmlns="http://www.w3.org/2000/svg">
  <path d="M 20.75 12.23 C 20.75 9.105 19.07 6.254 16.375 4.691 C 13.64 3.09 10.32 3.09 7.625 4.691 C 4.89 6.254 3.25 9.105 3.25 12.23 C 3.25 15.395 4.89 18.246 7.625 19.809 C 10.32 21.41 13.64 21.41 16.375 19.809 C 19.07 18.246 20.75 15.395 20.75 12.23 Z M 2 12.23 C 2 8.676 3.875 5.395 7 3.597 C 10.086 1.801 13.875 1.801 17 3.597 C 20.086 5.395 22 8.676 22 12.23 C 22 15.824 20.086 19.105 17 20.902 C 13.875 22.699 10.086 22.699 7 20.902 C 3.875 19.105 2 15.824 2 12.23 Z M 11.375 6.605 C 11.375 6.292 11.649 5.98 12 5.98 C 12.312 5.98 12.625 6.292 12.625 6.605 L 12.625 12.23 C 12.625 12.465 12.469 12.699 12.274 12.816 C 12.077 12.895 11.844 12.895 11.649 12.777 L 7.899 10.277 C 7.586 10.082 7.507 9.691 7.702 9.417 C 7.899 9.105 8.289 9.027 8.562 9.222 L 11.375 11.097 L 11.375 6.605 Z" />
</svg>
