<svg viewBox="0 0 24 24" xmlns="http://www.w3.org/2000/svg">
<path style="transform: translate(3px, 3px)" d="M0.875 0.75C0.5625 0.75 0.25 1.0625 0.25 1.375V7.625C0.25 7.97656 0.5625 8.25 0.875 8.25H7.125C7.47656 8.25 7.75 7.97656 7.75 7.625C7.75 7.3125 7.47656 7 7.125 7H2.63281C3.64844 4.38281 6.1875 2.625 9 2.625C12.3984 2.625 15.25 5.04688 15.7969 8.36719C15.8359 8.67969 16.1094 8.875 16.4219 8.875C16.4609 8.875 16.5 8.875 16.5 8.875C16.8516 8.83594 17.0859 8.52344 17.0469 8.17188C16.3828 4.22656 12.9844 1.375 9 1.375C5.71875 1.375 2.75 3.40625 1.5 6.45312V1.375C1.5 1.0625 1.22656 0.75 0.875 0.75ZM1.53906 10.1641C1.1875 10.2031 0.953125 10.5156 0.992188 10.8672C1.65625 14.8125 5.05469 17.625 9 17.625C12.3203 17.625 15.2891 15.6328 16.5 12.5859V17.625C16.5 17.9766 16.8125 18.25 17.125 18.25C17.4766 18.25 17.75 17.9766 17.75 17.625V11.375C17.75 11.0625 17.4766 10.75 17.125 10.75H10.875C10.5625 10.75 10.25 11.0625 10.25 11.375C10.25 11.7266 10.5625 12 10.875 12H15.4453C14.4297 14.6562 11.8906 16.375 9.03906 16.375C5.64062 16.375 2.78906 13.9922 2.28125 10.6719C2.20312 10.3203 1.89062 10.0859 1.53906 10.1641Z" />
</svg>
