<svg width="24" height="24" viewBox="0 0 24 24" xmlns="http://www.w3.org/2000/svg">
<path d="M11.0625 16.875C11.0625 16.3672 11.4531 15.9375 12 15.9375C12.5078 15.9375 12.9375 16.3672 12.9375 16.875C12.9375 17.4219 12.5078 17.8125 12 17.8125C11.4531 17.8125 11.0625 17.4219 11.0625 16.875ZM19.6562 14.1016C19.9688 14.2188 20.1641 14.5703 20.0859 14.8828C19.0312 18.4766 15.7109 20.9375 12 20.9375C8.79688 20.9375 5.90625 19.1016 4.5 16.3672V18.125C4.5 18.4766 4.1875 18.75 3.875 18.75C3.52344 18.75 3.25 18.4766 3.25 18.125V14.375C3.25 14.0625 3.52344 13.75 3.83594 13.75H7.625C7.9375 13.75 8.25 14.0625 8.25 14.375C8.25 14.7266 7.9375 15 7.625 15H5.28125C6.29688 17.8125 8.99219 19.6875 12 19.6875C15.1641 19.6875 17.9766 17.5781 18.875 14.5312C18.9922 14.2188 19.3438 14.0234 19.6562 14.1016ZM20.125 6.25C20.4375 6.25 20.75 6.5625 20.75 6.875V10.625C20.75 10.9766 20.4375 11.25 20.0859 11.25H16.3359C16.0234 11.25 15.75 10.9766 15.75 10.625C15.75 10.3125 16.0234 10 16.375 10H18.6797C17.6641 7.22656 14.9688 5.3125 12 5.3125C8.79688 5.3125 5.98438 7.46094 5.08594 10.5078C4.96875 10.8203 4.61719 11.0156 4.30469 10.9375C3.99219 10.8203 3.79688 10.4688 3.875 10.1562C4.92969 6.5625 8.25 4.0625 12 4.0625C15.1641 4.0625 18.0547 5.89844 19.5 8.67188V6.875C19.5 6.5625 19.7734 6.25 20.125 6.25ZM12.625 13.75C12.625 14.1016 12.3125 14.375 12 14.375C11.6484 14.375 11.375 14.1016 11.375 13.75V7.5C11.375 7.1875 11.6484 6.875 12 6.875C12.3125 6.875 12.625 7.1875 12.625 7.5V13.75Z" />
</svg>
