<svg width="24" height="24" viewBox="0 0 24 24" xmlns="http://www.w3.org/2000/svg">
<path d="M18.4844 2.65625C18.9141 2.34375 19.5 2.61719 19.5 3.16406V21.875C19.5 22.4219 18.875 22.6953 18.4844 22.3438L17 20.625L14.8516 22.3438C14.6172 22.5391 14.3438 22.5391 14.1094 22.3438L12 20.625L9.85156 22.3438C9.61719 22.5391 9.34375 22.5391 9.10938 22.3438L7 20.625L5.47656 22.3828C5.08594 22.6953 4.5 22.4219 4.5 21.875V3.16406C4.5 2.61719 5.08594 2.34375 5.47656 2.65625L7 4.41406L9.10938 2.65625C9.34375 2.46094 9.61719 2.46094 9.85156 2.65625L12 4.41406L14.1094 2.65625C14.3438 2.46094 14.6172 2.46094 14.8516 2.65625L17 4.41406L18.4844 2.65625ZM16.375 16.875C16.6875 16.875 17 16.6016 16.9609 16.25C16.9609 15.8984 16.6875 15.625 16.375 15.625H7.625C7.27344 15.625 7 15.8984 7 16.25C7 16.5625 7.27344 16.875 7.625 16.875H16.375ZM16.375 13.125C16.6875 13.125 17 12.8516 16.9609 12.5C16.9609 12.1484 16.6875 11.875 16.375 11.875H7.625C7.27344 11.875 7 12.1484 7 12.5C7 12.8125 7.27344 13.125 7.625 13.125H16.375ZM16.375 9.375C16.6875 9.375 17 9.10156 16.9609 8.75C16.9609 8.39844 16.6875 8.125 16.375 8.125H7.625C7.27344 8.125 7 8.39844 7 8.75C7 9.0625 7.27344 9.375 7.625 9.375H16.375Z" />
</svg>
