<svg width="24" height="24" viewBox="0 0 24 24" xmlns="http://www.w3.org/2000/svg">
<path d="M16.375 11.875C16.6875 11.875 17 12.1875 16.9609 12.5C16.9609 12.8125 16.6875 13.125 16.375 13.125H7.625C7.27344 13.125 7 12.8125 7 12.5C7 12.1484 7.27344 11.875 7.625 11.875H16.375ZM16.375 15.625C16.6875 15.625 16.9609 15.8984 16.9609 16.25C16.9609 16.5625 16.6875 16.875 16.375 16.875H7.625C7.27344 16.875 7 16.5625 7 16.25C7 15.8984 7.27344 15.625 7.625 15.625H16.375ZM19.5781 2.5C20.1641 2.5 20.75 3.00781 20.7109 3.67188V21.3672C20.7109 22.0312 20.1641 22.5 19.5781 22.5C19.3438 22.5 19.1094 22.4609 18.875 22.3047L17.1953 21.0547L15.6719 22.1484C15.3594 22.3828 14.9688 22.5 14.5781 22.5C14.1875 22.5 13.8359 22.3828 13.4844 22.1484L12 21.0547L10.4766 22.1484C10.1641 22.3828 9.77344 22.5 9.38281 22.5C8.99219 22.5 8.60156 22.3828 8.28906 22.1484L6.76562 21.0547L5.08594 22.3047C4.85156 22.4609 4.61719 22.5 4.38281 22.5C3.79688 22.5 3.25 22.0312 3.25 21.3672V3.67188C3.25 3.00781 3.79688 2.53906 4.38281 2.5C4.61719 2.5 4.85156 2.57812 5.08594 2.73438L6.76562 3.94531L8.28906 2.89062C8.60156 2.61719 8.99219 2.53906 9.38281 2.53906C9.77344 2.53906 10.125 2.65625 10.4766 2.89062L12 3.94531L13.4844 2.89062C13.8359 2.61719 14.1875 2.53906 14.5781 2.53906C14.9688 2.53906 15.3594 2.65625 15.6719 2.89062L17.1953 3.94531L18.875 2.73438C19.1094 2.57812 19.3438 2.5 19.5781 2.5ZM19.5 21.1719V3.86719L17.1953 5.50781L14.9688 3.90625C14.8516 3.82812 14.7344 3.78906 14.5781 3.78906C14.4609 3.78906 14.3438 3.82812 14.2266 3.90625L12 5.50781L9.73438 3.90625C9.61719 3.82812 9.5 3.78906 9.38281 3.78906C9.26562 3.78906 9.10938 3.82812 9.03125 3.90625L6.76562 5.50781L4.5 3.86719V21.2109L6.76562 19.5312L8.99219 21.1328C9.10938 21.2109 9.22656 21.25 9.38281 21.25C9.5 21.25 9.61719 21.2109 9.73438 21.1328L12 19.5312L14.2266 21.1328C14.3438 21.2109 14.4609 21.25 14.5781 21.25C14.7344 21.25 14.8516 21.2109 14.9688 21.1328L17.1953 19.5312L19.5 21.1719ZM16.375 8.125C16.6875 8.125 16.9609 8.39844 16.9609 8.75C16.9609 9.0625 16.6875 9.375 16.375 9.375H7.625C7.27344 9.375 7 9.0625 7 8.75C7 8.39844 7.27344 8.125 7.625 8.125H16.375Z" />
</svg>
