<svg xmlns="http://www.w3.org/2000/svg" viewBox="0 0 24 24" width="24" height="24">
  <path d="M 22 12.001 C 22 14.708 20.839 17.303 19.071 19.072 C 17.303 20.84 14.708 22.001 12 22.001 C 9.292 22.001 6.697 20.84 4.929 19.072 C 3.16 17.303 2 14.708 2 12 C 2 9.293 3.16 6.698 4.929 4.929 C 6.697 3.161 9.292 2 12 2 C 14.708 2 17.303 3.161 19.071 4.929 C 20.839 6.698 22 9.293 22 12 Z M 18.01 5.99 C 16.431 4.411 14.401 3.5 12 3.5 C 9.599 3.5 7.569 4.411 5.989 5.99 C 4.41 7.569 3.5 9.599 3.5 12.001 C 3.5 14.402 4.41 16.432 5.989 18.011 C 7.569 19.59 9.599 20.501 12 20.501 C 14.401 20.501 16.431 19.59 18.01 18.011 C 19.59 16.432 20.5 14.402 20.5 12.001 C 20.5 9.599 19.59 7.569 18.01 5.99 Z" />
  <path d="M 16.076 15.327 C 15.863 15.683 15.403 15.799 15.047 15.587 C 15.047 15.587 11.284 13.351 11.277 13.338 C 11.089 13.234 10.942 13.163 10.911 12.694 C 10.903 12.689 10.911 7.847 10.911 7.847 C 10.911 7.433 11.247 7.097 11.661 7.097 C 12.076 7.097 12.411 7.433 12.411 7.847 L 12.411 12.268 L 15.816 14.299 C 16.171 14.511 16.288 14.971 16.076 15.327 Z" />
</svg>
