<svg width="18" height="11" viewBox="0 0 18 11" xmlns="http://www.w3.org/2000/svg">
<path d="M5 1.5C2.78125 1.5 1 3.3125 1 5.5C1 7.71875 2.78125 9.5 5 9.5H13C15.1875 9.5 17 7.71875 17 5.5C17 3.3125 15.1875 1.5 13 1.5H5ZM0 5.5C0 2.75 2.21875 0.5 5 0.5H13C15.75 0.5 18 2.75 18 5.5C18 8.28125 15.75 10.5 13 10.5H5C2.21875 10.5 0 8.28125 0 5.5ZM15 5.5C15 4.8125 14.5938 4.15625 14 3.78125C13.375 3.4375 12.5938 3.4375 12 3.78125C11.375 4.15625 11 4.8125 11 5.5C11 6.21875 11.375 6.875 12 7.25C12.5938 7.59375 13.375 7.59375 14 7.25C14.5938 6.875 15 6.21875 15 5.5ZM10 5.5C10 4.4375 10.5625 3.46875 11.5 2.90625C12.4062 2.375 13.5625 2.375 14.5 2.90625C15.4062 3.46875 16 4.4375 16 5.5C16 6.59375 15.4062 7.5625 14.5 8.125C13.5625 8.65625 12.4062 8.65625 11.5 8.125C10.5625 7.5625 10 6.59375 10 5.5Z"/>
</svg>
