<svg width="25" height="24" viewBox="0 0 25 24" xmlns="http://www.w3.org/2000/svg">
<path d="M5 3.75C4.29688 3.75 3.75 4.33594 3.75 5V6.25H9.375C9.6875 6.25 10 6.5625 10 6.875C10 7.22656 9.6875 7.5 9.375 7.5H0.625C0.273438 7.5 0 7.22656 0 6.875C0 6.5625 0.273438 6.25 0.625 6.25H2.5V5C2.5 3.63281 3.59375 2.5 5 2.5H13.75C15.1172 2.5 16.25 3.63281 16.25 5V6.25H18.7891C19.3359 6.25 19.8438 6.52344 20.1953 6.91406L23.2812 10.5078C23.5547 10.8594 23.75 11.2891 23.75 11.7188V17.5H24.375C24.6875 17.5 25 17.8125 25 18.125C25 18.4766 24.6875 18.75 24.375 18.75H22.5C22.5 20.8203 20.8203 22.5 18.75 22.5C16.6797 22.5 15 20.8203 15 18.75H10C10 20.8203 8.32031 22.5 6.25 22.5C4.17969 22.5 2.5 20.8203 2.5 18.75V17.5V13.75H3.75V15.9766C4.41406 15.3906 5.27344 15 6.25 15C7.85156 15 9.25781 16.0547 9.76562 17.5H15V5C15 4.33594 14.4141 3.75 13.75 3.75H5ZM22.2656 11.25L19.2578 7.73438C19.1406 7.57812 18.9844 7.5 18.7891 7.5H16.25V11.25H22.2656ZM16.25 12.5V15.9766C16.9141 15.3906 17.7734 15 18.75 15C20.3516 15 21.7578 16.0547 22.2656 17.5H22.5V12.5H16.25ZM3.75 18.75C3.75 19.6484 4.21875 20.4688 5 20.9375C5.74219 21.3672 6.71875 21.3672 7.5 20.9375C8.24219 20.4688 8.75 19.6484 8.75 18.75C8.75 17.8906 8.24219 17.0703 7.5 16.6016C6.71875 16.1719 5.74219 16.1719 5 16.6016C4.21875 17.0703 3.75 17.8906 3.75 18.75ZM18.75 16.25C17.8516 16.25 17.0312 16.7578 16.5625 17.5C16.1328 18.2812 16.1328 19.2578 16.5625 20C17.0312 20.7812 17.8516 21.25 18.75 21.25C19.6094 21.25 20.4297 20.7812 20.8984 20C21.3281 19.2578 21.3281 18.2812 20.8984 17.5C20.4297 16.7578 19.6094 16.25 18.75 16.25ZM1.875 8.75H10.625C10.9375 8.75 11.25 9.0625 11.25 9.375C11.25 9.72656 10.9375 10 10.625 10H1.875C1.52344 10 1.25 9.72656 1.25 9.375C1.25 9.0625 1.52344 8.75 1.875 8.75ZM0.625 11.25H9.375C9.6875 11.25 10 11.5625 10 11.875C10 12.2266 9.6875 12.5 9.375 12.5H0.625C0.273438 12.5 0 12.2266 0 11.875C0 11.5625 0.273438 11.25 0.625 11.25Z"/>
</svg>
