<svg width="25" height="24" viewBox="0 0 25 24" fill="none" xmlns="http://www.w3.org/2000/svg">
<path d="M4.375 2.5H14.375C15.3906 2.5 16.25 3.35938 16.25 4.375V6.25H18.2031C18.8672 6.25 19.5312 6.52344 20 6.99219L23.0078 10C23.4766 10.4688 23.75 11.1328 23.75 11.7969V12.5V13.75V16.25C24.4141 16.25 25 16.8359 25 17.5C25 18.2031 24.4141 18.75 23.75 18.75H22.5C22.5 20.8203 20.8203 22.5 18.75 22.5C16.6797 22.5 15 20.8203 15 18.75H10C10 20.8203 8.32031 22.5 6.25 22.5C4.17969 22.5 2.5 20.8203 2.5 18.75V13.75H8.125C8.4375 13.75 8.75 13.4766 8.75 13.125C8.75 12.8125 8.4375 12.5 8.125 12.5H2.5H0.625C0.273438 12.5 0 12.2266 0 11.875C0 11.5625 0.273438 11.25 0.625 11.25H2.5H9.375C9.6875 11.25 10 10.9766 10 10.625C10 10.3125 9.6875 10 9.375 10H2.5H1.875C1.52344 10 1.25 9.72656 1.25 9.375C1.25 9.0625 1.52344 8.75 1.875 8.75H2.5H10.625C10.9375 8.75 11.25 8.47656 11.25 8.125C11.25 7.8125 10.9375 7.5 10.625 7.5H2.5H0.625C0.273438 7.5 0 7.22656 0 6.875C0 6.5625 0.273438 6.25 0.625 6.25H2.5V4.375C2.5 3.35938 3.32031 2.5 4.375 2.5ZM21.25 11.7969L18.2031 8.75H16.25V12.5H21.25V11.7969ZM6.25 16.875C5.54688 16.875 4.96094 17.2656 4.60938 17.8125C4.25781 18.3984 4.25781 19.1406 4.60938 19.6875C4.96094 20.2734 5.54688 20.625 6.25 20.625C6.91406 20.625 7.5 20.2734 7.85156 19.6875C8.20312 19.1406 8.20312 18.3984 7.85156 17.8125C7.5 17.2656 6.91406 16.875 6.25 16.875ZM16.875 18.75C16.875 19.4531 17.2266 20.0391 17.8125 20.3906C18.3594 20.7422 19.1016 20.7422 19.6875 20.3906C20.2344 20.0391 20.625 19.4531 20.625 18.75C20.625 18.0859 20.2344 17.5 19.6875 17.1484C19.1016 16.7969 18.3594 16.7969 17.8125 17.1484C17.2266 17.5 16.875 18.0859 16.875 18.75Z" fill="#414BDC"/>
</svg>
