<svg width="26" height="24" viewBox="0 0 26 24" fill="none" xmlns="http://www.w3.org/2000/svg">
<path d="M11.125 10H2.33594C2.02344 10 1.75 9.72656 1.75 9.375C1.75 9.0625 2.02344 8.75 2.375 8.75H11.125C11.4375 8.75 11.75 9.0625 11.75 9.375C11.75 9.72656 11.4375 10 11.125 10ZM24.875 17.5C25.1875 17.5 25.5 17.8125 25.5 18.125C25.5 18.4766 25.1875 18.75 24.875 18.75H23C23 20.8203 21.2812 22.5 19.25 22.5C17.1797 22.5 15.5 20.8203 15.5 18.75H10.5C10.5 20.8594 8.82031 22.5 6.75 22.5C4.64062 22.5 3 20.8594 3 18.75V12.5H1.08594C0.773438 12.5 0.5 12.2266 0.5 11.875C0.5 11.5625 0.773438 11.25 1.125 11.25H9.875C10.1875 11.25 10.5 11.5625 10.5 11.875C10.5 12.2266 10.1875 12.5 9.875 12.5H4.25V15.9766C4.91406 15.3906 5.77344 15 6.75 15C8.35156 15 9.71875 16.0547 10.2656 17.5H15.6953C16.2031 16.0547 17.6094 15 19.25 15C20.8516 15 22.2578 16.0547 22.7656 17.5H23V12.5H16.75V13.75C16.75 14.1016 16.4375 14.375 16.125 14.375C15.7734 14.375 15.5 14.1016 15.5 13.75V5C15.5 4.33594 14.9141 3.75 14.25 3.75H5.5C4.79688 3.75 4.25 4.33594 4.25 5V6.25H9.875C10.1875 6.25 10.5 6.5625 10.5 6.875C10.5 7.22656 10.1875 7.5 9.83594 7.5H1.08594C0.773438 7.5 0.5 7.22656 0.5 6.875C0.5 6.5625 0.773438 6.25 1.08594 6.25H3V5C3 3.63281 4.09375 2.5 5.5 2.5H14.25C15.6172 2.5 16.75 3.63281 16.75 5V6.25H19.2891C19.8359 6.25 20.3438 6.52344 20.6953 6.91406L23.4688 10.1562C23.9766 10.7422 24.25 11.4453 24.25 12.1875V17.5H24.875ZM16.75 11.25H22.7266C22.6875 11.1719 22.6094 11.0547 22.5312 10.9766L19.7578 7.73438C19.6406 7.61719 19.4453 7.5 19.2891 7.5H16.75V11.25ZM6.75 21.25C8.11719 21.25 9.25 20.1562 9.25 18.75C9.25 17.3828 8.11719 16.25 6.75 16.25C5.34375 16.25 4.25 17.3828 4.25 18.75C4.25 20.1562 5.34375 21.25 6.75 21.25ZM19.25 21.25C20.6172 21.25 21.75 20.1562 21.75 18.75C21.75 17.3828 20.6172 16.25 19.25 16.25C17.8438 16.25 16.75 17.3828 16.75 18.75C16.75 20.1562 17.8438 21.25 19.25 21.25Z" fill="currentColor"/>
</svg>
