<svg viewBox="0 0 24 24" xmlns="http://www.w3.org/2000/svg">
<path style="transform: translate(4px, 4px)" d="M3.58333 10.166C3.98958 10.166 4.33333 10.5098 4.33333 10.916C4.33333 11.3535 3.98958 11.666 3.58333 11.666C3.14583 11.666 2.83333 11.3535 2.83333 10.916C2.83333 10.5098 3.14583 10.166 3.58333 10.166ZM13.0833 10.166C13.4896 10.166 13.8333 10.5098 13.8333 10.916C13.8333 11.3535 13.4896 11.666 13.0833 11.666C12.6458 11.666 12.3333 11.3535 12.3333 10.916C12.3333 10.5098 12.6458 10.166 13.0833 10.166ZM14.3333 0.666016C15.4271 0.666016 16.3333 1.57227 16.3333 2.66602V12.666C16.3333 13.416 15.9271 14.041 15.3333 14.416V16.166C15.3333 16.4473 15.0833 16.666 14.8333 16.666C14.5521 16.666 14.3333 16.4473 14.3333 16.166V14.666H2.33333V16.166C2.33333 16.4473 2.08333 16.666 1.83333 16.666C1.55208 16.666 1.33333 16.4473 1.33333 16.166V14.416C0.708328 14.041 0.333328 13.416 0.333328 12.666V2.66602C0.333328 1.57227 1.20833 0.666016 2.33333 0.666016H14.3333ZM15.3333 12.666V10.666C15.3333 9.57227 14.4271 8.66602 13.3333 8.66602H3.33333C2.20833 8.66602 1.33333 9.57227 1.33333 10.666V12.666C1.33333 13.2285 1.77083 13.666 2.33333 13.666H14.3333C14.8646 13.666 15.3333 13.2285 15.3333 12.666ZM3.33333 7.66602H13.3021L12.7396 5.75977C12.5833 5.13477 11.9896 4.66602 11.3021 4.66602H5.33333C4.64583 4.66602 4.08333 5.13477 3.89583 5.75977L3.33333 7.66602ZM15.3333 8.44727V2.66602C15.3333 2.13477 14.8646 1.66602 14.3333 1.66602H2.33333C1.77083 1.66602 1.33333 2.13477 1.33333 2.66602V8.44727C1.58333 8.22852 1.89583 8.00977 2.23958 7.88477L2.92708 5.47852C3.23958 4.41602 4.20833 3.66602 5.33333 3.66602H11.3021C12.4271 3.66602 13.3958 4.41602 13.7083 5.47852L14.3958 7.85352C14.7396 8.00977 15.0521 8.19727 15.3333 8.44727Z" />
</svg>
