<svg width="25" height="24" viewBox="0 0 25 24" xmlns="http://www.w3.org/2000/svg">
<path d="M24.375 17.5C24.6875 17.5 25 17.8125 25 18.125C25 18.4766 24.6875 18.75 24.375 18.75H22.5C22.5 20.8203 20.7812 22.5 18.75 22.5C16.6797 22.5 15 20.8203 15 18.75H10C10 20.8203 8.28125 22.5 6.25 22.5C4.17969 22.5 2.5 20.8203 2.5 18.75C1.09375 18.75 0 17.6562 0 16.25V5C0 3.63281 1.09375 2.5 2.5 2.5H13.75C15.1172 2.5 16.25 3.63281 16.25 5V6.25H18.7891C19.3359 6.25 19.8438 6.52344 20.1953 6.91406L22.9688 10.1562C23.4766 10.7422 23.75 11.4453 23.75 12.1875V17.5H24.375ZM16.25 7.5V11.25H22.2266C22.1875 11.1719 22.1094 11.0547 22.0312 10.9766L19.2578 7.73438C19.1406 7.61719 18.9453 7.5 18.7891 7.5H16.25ZM6.25 21.25C7.61719 21.25 8.75 20.1562 8.75 18.75C8.75 17.3828 7.61719 16.25 6.25 16.25C4.84375 16.25 3.75 17.3828 3.75 18.75C3.75 20.1562 4.84375 21.25 6.25 21.25ZM18.75 21.25C20.1172 21.25 21.25 20.1562 21.25 18.75C21.25 17.3828 20.1172 16.25 18.75 16.25C17.3438 16.25 16.25 17.3828 16.25 18.75C16.25 20.1562 17.3438 21.25 18.75 21.25ZM22.5 17.5V12.5H16.25V13.75C16.25 14.1016 15.9375 14.375 15.625 14.375C15.2734 14.375 15 14.1016 15 13.75V5C15 4.33594 14.4141 3.75 13.75 3.75H2.5C1.79688 3.75 1.25 4.33594 1.25 5V16.25C1.25 16.9531 1.79688 17.5 2.5 17.5H2.69531C3.20312 16.0547 4.60938 15 6.25 15C7.85156 15 9.25781 16.0547 9.76562 17.5H15.1953C15.7031 16.0547 17.1094 15 18.75 15C20.3516 15 21.7578 16.0547 22.2656 17.5H22.5Z" />
</svg>
