<svg width="24" height="24" viewBox="0 0 24 24" xmlns="http://www.w3.org/2000/svg">
<path d="M14.75 7.5C14.75 6.17188 14.0078 4.96094 12.875 4.25781C11.7031 3.59375 10.2578 3.59375 9.125 4.25781C7.95312 4.96094 7.25 6.17188 7.25 7.5C7.25 8.86719 7.95312 10.0781 9.125 10.7812C10.2578 11.4453 11.7031 11.4453 12.875 10.7812C14.0078 10.0781 14.75 8.86719 14.75 7.5ZM6 7.5C6 5.74219 6.9375 4.10156 8.5 3.20312C10.0234 2.30469 11.9375 2.30469 13.5 3.20312C15.0234 4.10156 16 5.74219 16 7.5C16 9.29688 15.0234 10.9375 13.5 11.8359C11.9375 12.7344 10.0234 12.7344 8.5 11.8359C6.9375 10.9375 6 9.29688 6 7.5ZM3.5 21.25H18.5C18.4219 18.1641 15.8828 15.625 12.7578 15.625H9.20312C6.07812 15.625 3.53906 18.1641 3.5 21.25ZM2.25 21.3672C2.25 17.5 5.33594 14.375 9.20312 14.375H12.7578C16.625 14.375 19.75 17.5 19.75 21.3672C19.75 21.9922 19.2031 22.5 18.5781 22.5H3.38281C2.75781 22.5 2.25 21.9922 2.25 21.3672Z" />
</svg>
