<svg width="26" height="25" viewBox="0 0 26 25" xmlns="http://www.w3.org/2000/svg">
<path d="M12.9609 15.5C10.7344 15.5 8.89844 13.7031 8.9375 11.4375C8.9375 9.21094 10.7344 7.375 12.9609 7.375C15.1875 7.375 17.0234 9.21094 17.0234 11.4375C17.0234 13.7031 15.2266 15.5 12.9609 15.5ZM12.9609 8.625C11.4375 8.625 10.1484 9.91406 10.1484 11.4375C10.1484 13 11.4375 14.25 12.9609 14.25C14.5234 14.25 15.7734 13 15.7734 11.4375C15.7734 9.91406 14.5234 8.625 12.9609 8.625ZM14.9141 16.75C18 16.75 20.5 19.0938 20.5 21.9844C20.5 22.5703 19.9922 23 19.3672 23H6.59375C5.96875 23 5.5 22.5703 5.5 21.9844C5.5 19.0938 7.96094 16.75 11.0469 16.75H14.9141ZM6.75 21.75H19.2109C19.0938 19.6797 17.2188 18 14.9141 18H11.0078C8.74219 18 6.86719 19.6797 6.75 21.75ZM20.5 9.25C18.7422 9.25 17.375 7.88281 17.375 6.125C17.375 4.40625 18.7422 3 20.5 3C22.2188 3 23.625 4.40625 23.625 6.125C23.625 7.88281 22.2188 9.25 20.5 9.25ZM20.5 4.25C19.4453 4.25 18.625 5.10938 18.625 6.125C18.625 7.17969 19.4453 8 20.5 8C21.5156 8 22.375 7.17969 22.375 6.125C22.375 5.10938 21.5156 4.25 20.5 4.25ZM5.5 9.25C3.74219 9.25 2.375 7.88281 2.375 6.125C2.375 4.40625 3.74219 3 5.5 3C7.21875 3 8.625 4.40625 8.625 6.125C8.625 7.88281 7.21875 9.25 5.5 9.25ZM5.5 4.25C4.44531 4.25 3.625 5.10938 3.625 6.125C3.625 7.17969 4.44531 8 5.5 8C6.51562 8 7.375 7.17969 7.375 6.125C7.375 5.10938 6.51562 4.25 5.5 4.25ZM22.4141 10.5C24.0938 10.5 25.5 11.9844 25.5 13.7422V14.25C25.5 14.6016 25.1875 14.875 24.875 14.875C24.5234 14.875 24.25 14.6016 24.25 14.25V13.7422C24.25 12.6484 23.3906 11.75 22.4141 11.75H19.875C19.6016 11.75 19.3672 11.8281 19.1328 11.9453C18.8203 12.1016 18.4297 11.9453 18.2734 11.6328C18.1562 11.3203 18.2734 10.9688 18.5859 10.8125C18.9766 10.6172 19.4062 10.5 19.875 10.5H22.4141ZM6.82812 11.9453C6.59375 11.8281 6.35938 11.75 6.125 11.75H3.54688C2.57031 11.75 1.75 12.6484 1.75 13.7422V14.25C1.75 14.6016 1.4375 14.875 1.125 14.875C0.773438 14.875 0.5 14.6016 0.5 14.25V13.7422C0.5 11.9844 1.86719 10.5 3.54688 10.5H6.125C6.55469 10.5 6.98438 10.6172 7.375 10.8125C7.6875 10.9688 7.80469 11.3203 7.6875 11.6328C7.53125 11.9453 7.14062 12.1016 6.82812 11.9453Z" />
</svg>
