<svg viewBox="0 0 24 24" xmlns="http://www.w3.org/2000/svg">
  <path d="M 19.5 4.5 L 16.961 4.5 C 15.789 3.016 14.031 2 12 2 C 9.93 2 8.133 3.016 7 4.5 L 4.5 4.5 C 3.094 4.5 2 5.633 2 7 L 2 19.5 C 2 20.906 3.094 22 4.5 22 L 19.5 22 C 20.867 22 22 20.906 22 19.5 L 22 7 C 22 5.633 20.867 4.5 19.5 4.5 Z M 12 3.25 C 14.734 3.25 17 5.516 17 8.25 C 17 11.023 14.734 13.25 12 13.25 C 9.227 13.25 7 11.023 7 8.25 C 7 5.516 9.227 3.25 12 3.25 Z M 20.75 19.5 C 20.75 20.203 20.164 20.75 19.5 20.75 L 4.5 20.75 C 3.797 20.75 3.25 20.203 3.25 19.5 L 3.25 7 C 3.25 6.336 3.797 5.75 4.5 5.75 L 6.258 5.75 C 5.945 6.531 5.75 7.391 5.75 8.25 C 5.75 11.727 8.523 14.5 12 14.5 C 15.438 14.5 18.25 11.727 18.25 8.25 C 18.25 7.391 18.055 6.531 17.703 5.75 L 19.5 5.75 C 20.164 5.75 20.75 6.336 20.75 7 L 20.75 19.5 Z M 12 12 C 13.016 12 13.875 11.18 13.875 10.125 C 13.875 9.617 13.641 9.109 13.25 8.758 L 14.422 6.023 C 14.578 5.711 14.422 5.32 14.109 5.203 C 13.797 5.047 13.406 5.203 13.289 5.516 L 12.117 8.289 C 10.711 8.172 10.125 9.383 10.125 10.125 C 10.125 11.18 10.945 12 12 12 Z M 12 9.5 C 12.313 9.5 12.625 9.812 12.625 10.125 C 12.625 10.477 12.313 10.75 12 10.75 C 11.648 10.75 11.375 10.477 11.375 10.125 C 11.375 9.812 11.648 9.5 12 9.5 Z" transform="matrix(0.9999999999999999, 0, 0, 1, 0, 0)"/>
</svg>
