<svg width="25" height="24" viewBox="0 0 25 24" xmlns="http://www.w3.org/2000/svg">
<path d="M21.3047 6.99219C21.8125 9.02344 21.2266 11.0938 19.7422 12.5781C18.2578 14.0625 16.1094 14.6484 14.0781 14.1016L6.53906 21.6406C5.99219 22.2266 5.25 22.5 4.42969 22.5C3.64844 22.5 2.90625 22.2266 2.35938 21.6016C1.1875 20.4688 1.1875 18.5938 2.35938 17.4219L9.89844 9.88281C9.35156 7.85156 9.9375 5.74219 11.4219 4.25781C12.9062 2.77344 14.9766 2.1875 17.0078 2.69531C17.3594 2.77344 17.6719 3.08594 17.7891 3.4375C17.8672 3.82812 17.7891 4.21875 17.5156 4.49219L15.0156 6.99219L15.2891 8.71094L17.0078 8.98438L19.5078 6.48438C19.7812 6.21094 20.1719 6.13281 20.5625 6.21094C20.9141 6.32812 21.2266 6.60156 21.3047 6.99219ZM18.8828 11.7188C19.9375 10.625 20.4062 9.10156 20.1719 7.61719L17.4375 10.3125L14.1953 9.80469L13.6484 6.5625L16.3828 3.82812C16.1094 3.78906 15.8359 3.75 15.5625 3.75C14.3516 3.75 13.1797 4.25781 12.2812 5.11719C11.0703 6.36719 10.6406 8.20312 11.1875 9.88281L11.2656 10.2344L3.17969 18.3203C2.51562 18.9844 2.51562 20.0781 3.17969 20.7812C3.84375 21.4062 4.97656 21.4062 5.64062 20.7812L13.7266 12.6953L14.1172 12.8125C15.7969 13.3594 17.6328 12.9297 18.8828 11.7188ZM4.58594 18.75C4.9375 18.75 5.21094 19.0234 5.21094 19.375C5.21094 19.6875 4.9375 20 4.58594 20C4.27344 20 3.96094 19.6875 3.96094 19.375C3.96094 19.0234 4.27344 18.75 4.58594 18.75Z" />
</svg>
