<?xml version="1.0" encoding="UTF-8" ?>
<!DOCTYPE svg PUBLIC "-//W3C//DTD SVG 1.1//EN" "http://www.w3.org/Graphics/SVG/1.1/DTD/svg11.dtd">
<svg viewBox="0 0 512 512" version="1.1" xmlns="http://www.w3.org/2000/svg">
<g id="#e0f4feff">
<path fill="#e0f4fe" opacity="1.00" d=" M 73.44 0.00 L 256.00 0.00 C 256.00 30.33 256.01 60.67 256.00 91.00 C 216.00 91.01 176.00 90.98 136.00 91.01 C 116.11 90.87 96.33 99.22 82.54 113.54 C 72.25 123.76 65.37 137.15 62.34 151.29 L 61.14 151.15 C 60.82 105.75 61.07 60.33 61.02 14.92 C 60.90 7.68 66.63 1.64 73.44 0.00 Z" />
</g>
<g id="#bcdcfeff">
<path fill="#bcdcfe" opacity="1.00" d=" M 256.00 0.00 L 439.53 0.00 C 445.58 1.97 450.92 7.28 450.99 13.94 C 450.94 59.67 451.12 105.41 450.90 151.14 L 449.80 151.16 C 446.53 136.34 439.16 122.34 428.09 111.88 C 415.04 99.24 397.22 91.44 379.01 91.00 C 338.01 91.00 297.00 91.00 256.00 91.00 C 256.01 60.67 256.00 30.33 256.00 0.00 Z" />
</g>
<g id="#fe9022ff">
<path fill="#fe9022" opacity="1.00" d=" M 82.54 113.54 C 96.33 99.22 116.11 90.87 136.00 91.01 C 176.00 90.98 216.00 91.01 256.00 91.00 C 256.00 146.67 256.00 202.33 256.00 258.00 C 256.07 262.25 256.06 266.50 255.75 270.75 C 238.84 271.34 221.91 270.83 205.00 271.00 C 199.66 271.23 193.79 269.98 188.97 272.91 C 184.00 275.64 180.66 281.22 180.98 286.95 C 181.02 311.63 180.99 336.31 181.00 360.99 C 171.00 361.01 161.00 361.00 151.00 360.99 C 150.99 346.31 151.01 331.63 151.01 316.94 C 151.21 311.28 148.26 305.40 143.08 302.85 C 140.35 301.24 137.13 300.96 134.03 300.97 C 109.69 301.03 85.34 300.99 61.00 300.99 C 61.00 290.99 61.00 281.00 61.00 271.00 C 61.00 239.66 61.00 208.33 61.00 177.00 C 61.03 168.42 60.65 159.75 62.34 151.29 C 65.37 137.15 72.25 123.76 82.54 113.54 M 104.73 133.74 C 96.00 142.02 91.02 153.97 91.02 165.98 C 91.00 186.70 90.95 207.43 91.05 228.15 C 97.79 223.49 104.98 219.38 112.78 216.79 C 125.66 212.22 139.42 211.05 153.00 211.00 C 182.33 211.00 211.66 211.00 240.99 211.00 C 241.01 181.00 241.00 151.01 241.00 121.01 C 205.99 121.01 170.99 120.97 135.99 121.03 C 124.44 121.01 112.95 125.62 104.73 133.74 Z" />
</g>
<g id="#fd6328ff">
<path fill="#fd6328" opacity="1.00" d=" M 256.00 91.00 C 297.00 91.00 338.01 91.00 379.01 91.00 C 397.22 91.44 415.04 99.24 428.09 111.88 C 439.16 122.34 446.53 136.34 449.80 151.16 C 451.50 159.67 450.91 168.38 451.00 177.00 C 451.00 208.33 451.00 239.66 451.00 271.00 C 451.00 280.99 451.00 290.99 451.00 300.99 C 425.98 301.04 400.95 300.93 375.94 301.04 C 368.00 300.94 360.89 307.97 361.04 315.93 C 360.92 330.95 361.07 345.97 361.00 361.00 C 351.00 361.00 341.00 361.01 331.00 360.99 C 331.00 336.31 330.99 311.62 331.01 286.94 C 331.18 281.31 328.31 275.34 323.08 272.86 C 320.34 271.26 317.13 270.93 314.03 270.97 C 294.69 271.05 275.35 270.95 256.01 271.02 C 255.99 301.01 256.01 331.01 256.00 361.00 C 231.00 360.99 206.00 361.01 181.00 360.99 C 180.99 336.31 181.02 311.63 180.98 286.95 C 180.66 281.22 184.00 275.64 188.97 272.91 C 193.79 269.98 199.66 271.23 205.00 271.00 C 221.91 270.83 238.84 271.34 255.75 270.75 C 256.06 266.50 256.07 262.25 256.00 258.00 C 256.00 202.33 256.00 146.67 256.00 91.00 M 271.00 121.00 C 271.00 151.00 270.99 181.00 271.00 211.00 C 302.01 211.04 333.01 210.93 364.02 211.05 C 383.97 211.26 404.78 215.50 420.91 227.88 C 421.13 208.59 420.92 189.30 421.01 170.00 C 421.10 162.75 420.47 155.30 417.46 148.62 C 411.76 134.81 398.74 124.19 383.95 121.77 C 378.69 120.82 373.32 121.00 368.00 121.00 C 335.67 121.00 303.33 120.99 271.00 121.00 Z" />
</g>
<g id="#3ecbf7ff">
<path fill="#3ecbf7" opacity="1.00" d=" M 104.73 133.74 C 112.95 125.62 124.44 121.01 135.99 121.03 C 170.99 120.97 205.99 121.01 241.00 121.01 C 241.00 151.01 241.01 181.00 240.99 211.00 C 211.66 211.00 182.33 211.00 153.00 211.00 C 139.42 211.05 125.66 212.22 112.78 216.79 C 104.98 219.38 97.79 223.49 91.05 228.15 C 90.95 207.43 91.00 186.70 91.02 165.98 C 91.02 153.97 96.00 142.02 104.73 133.74 Z" />
</g>
<g id="#19aff9ff">
<path fill="#19aff9" opacity="1.00" d=" M 271.00 121.00 C 303.33 120.99 335.67 121.00 368.00 121.00 C 373.32 121.00 378.69 120.82 383.95 121.77 C 398.74 124.19 411.76 134.81 417.46 148.62 C 420.47 155.30 421.10 162.75 421.01 170.00 C 420.92 189.30 421.13 208.59 420.91 227.88 C 404.78 215.50 383.97 211.26 364.02 211.05 C 333.01 210.93 302.01 211.04 271.00 211.00 C 270.99 181.00 271.00 151.00 271.00 121.00 Z" />
</g>
<g id="#3e5959ff">
<path fill="#3e5959" opacity="1.00" d=" M 5.46 160.45 C 10.31 154.29 18.14 150.69 25.98 150.99 C 37.70 151.10 49.43 150.80 61.14 151.15 L 62.34 151.29 C 60.65 159.75 61.03 168.42 61.00 177.00 C 61.00 208.33 61.00 239.66 61.00 271.00 C 48.98 270.99 36.96 271.03 24.95 270.99 C 17.23 271.02 9.64 267.17 5.03 261.00 C 2.20 257.40 0.86 252.92 0.00 248.50 L 0.00 173.51 C 0.87 168.85 2.36 164.13 5.46 160.45 Z" />
<path fill="#3e5959" opacity="1.00" d=" M 256.00 361.00 C 281.00 360.99 306.00 361.01 331.00 360.99 C 341.00 361.01 351.00 361.00 361.00 361.00 C 391.00 361.01 421.00 360.99 451.00 361.00 C 456.66 361.09 462.34 360.81 468.00 361.08 C 475.30 361.72 481.33 368.62 481.02 375.94 C 480.99 395.98 480.99 416.02 481.01 436.06 C 481.35 443.71 474.73 450.85 467.06 450.98 C 461.69 451.10 456.33 450.94 450.97 451.02 C 420.99 450.98 391.01 450.99 361.03 451.02 C 326.04 450.97 291.04 451.03 256.04 450.99 C 255.94 420.99 256.03 391.00 256.00 361.00 Z" />
<path fill="#3e5959" opacity="1.00" d=" M 61.03 451.02 C 91.01 450.99 120.99 450.98 150.97 451.03 C 151.00 459.69 151.04 468.36 150.97 477.03 C 151.11 487.16 146.30 497.11 138.62 503.64 C 133.27 508.33 126.40 510.91 119.44 512.00 L 92.56 512.00 C 85.82 510.96 79.20 508.48 73.91 504.08 C 65.90 497.57 60.89 487.39 61.02 477.03 C 60.97 468.36 61.00 459.69 61.03 451.02 Z" />
</g>
<g id="#293939ff">
<path fill="#293939" opacity="1.00" d=" M 449.80 151.16 L 450.90 151.14 C 461.26 150.83 471.63 151.09 482.00 150.99 C 487.53 150.84 493.32 150.99 498.29 153.72 C 505.95 157.40 510.80 165.25 512.00 173.51 L 512.00 248.49 C 510.66 260.08 500.91 270.18 489.10 270.88 C 476.41 271.17 463.70 270.92 451.00 271.00 C 451.00 239.66 451.00 208.33 451.00 177.00 C 450.91 168.38 451.50 159.67 449.80 151.16 Z" />
<path fill="#293939" opacity="1.00" d=" M 361.03 451.02 C 391.01 450.99 420.99 450.98 450.97 451.02 C 451.02 459.01 450.99 467.00 451.01 474.99 C 451.12 480.71 450.34 486.55 447.73 491.70 C 442.68 502.85 431.51 510.54 419.44 512.00 L 392.56 512.00 C 376.39 510.28 362.23 496.49 361.16 480.10 C 360.80 470.41 361.06 460.71 361.03 451.02 Z" />
</g>
<g id="#ea2828ff">
<path fill="#ea2828" opacity="1.00" d=" M 256.01 271.02 C 275.35 270.95 294.69 271.05 314.03 270.97 C 317.13 270.93 320.34 271.26 323.08 272.86 C 328.31 275.34 331.18 281.31 331.01 286.94 C 330.99 311.62 331.00 336.31 331.00 360.99 C 306.00 361.01 281.00 360.99 256.00 361.00 C 256.01 331.01 255.99 301.01 256.01 271.02 Z" />
</g>
<g id="#fed941ff">
<path fill="#fed941" opacity="1.00" d=" M 61.00 300.99 C 85.34 300.99 109.69 301.03 134.03 300.97 C 137.13 300.96 140.35 301.24 143.08 302.85 C 148.26 305.40 151.21 311.28 151.01 316.94 C 151.01 331.63 150.99 346.31 151.00 360.99 C 121.00 361.01 91.00 360.99 61.00 361.00 C 61.00 341.00 61.00 321.00 61.00 300.99 Z" />
</g>
<g id="#fcbe29ff">
<path fill="#fcbe29" opacity="1.00" d=" M 361.04 315.93 C 360.89 307.97 368.00 300.94 375.94 301.04 C 400.95 300.93 425.98 301.04 451.00 300.99 C 451.00 321.00 451.00 341.00 451.00 361.00 C 421.00 360.99 391.00 361.01 361.00 361.00 C 361.07 345.97 360.92 330.95 361.04 315.93 Z" />
</g>
<g id="#547983ff">
<path fill="#547983" opacity="1.00" d=" M 31.02 375.92 C 30.92 368.68 36.80 361.96 44.01 361.17 C 49.66 360.74 55.34 361.11 61.00 361.00 C 91.00 360.99 121.00 361.01 151.00 360.99 C 161.00 361.00 171.00 361.01 181.00 360.99 C 206.00 361.01 231.00 360.99 256.00 361.00 C 256.03 391.00 255.94 420.99 256.04 450.99 C 221.02 451.03 186.00 450.96 150.97 451.03 C 120.99 450.98 91.01 450.99 61.03 451.02 C 54.35 450.61 47.45 451.91 40.94 450.09 C 34.76 447.97 30.64 441.54 30.99 435.06 C 31.03 415.35 30.96 395.63 31.02 375.92 Z" />
</g>
</svg>
